<?xml version="1.0" encoding="UTF-8" standalone="no"?>
<!-- Created with Inkscape (http://www.inkscape.org/) -->

<svg
   width="74.876686mm"
   height="65.93615mm"
   viewBox="0 0 74.876686 65.93615"
   version="1.1"
   id="svg1"
   xml:space="preserve"
   inkscape:version="1.4.2 (f4327f4, 2025-05-13)"
   sodipodi:docname="mad hatters waffles logo bw final.svg"
   xmlns:inkscape="http://www.inkscape.org/namespaces/inkscape"
   xmlns:sodipodi="http://sodipodi.sourceforge.net/DTD/sodipodi-0.dtd"
   xmlns="http://www.w3.org/2000/svg"
   xmlns:svg="http://www.w3.org/2000/svg"><sodipodi:namedview
     id="namedview1"
     pagecolor="#ffffff"
     bordercolor="#000000"
     borderopacity="0.25"
     inkscape:showpageshadow="2"
     inkscape:pageopacity="0.0"
     inkscape:pagecheckerboard="0"
     inkscape:deskcolor="#d1d1d1"
     inkscape:document-units="mm"
     inkscape:zoom="1.8519888"
     inkscape:cx="93.68307"
     inkscape:cy="143.89936"
     inkscape:window-width="1920"
     inkscape:window-height="974"
     inkscape:window-x="-11"
     inkscape:window-y="-11"
     inkscape:window-maximized="1"
     inkscape:current-layer="layer1" /><defs
     id="defs1" /><g
     inkscape:label="Layer 1"
     inkscape:groupmode="layer"
     id="layer1"
     transform="translate(-21.583075,-117.00127)"><path
       id="path20"
       style="fill:#000000"
       d="m 70.274333,140.35092 c -2.20965,-1.41801 -4.78307,-3.59417 -5.80077,-4.9053 -1.700898,-2.19131 -2.272088,-4.87384 -1.224278,-5.74969 0.595478,-0.49774 0.847808,-0.38647 3.397388,1.4981 1.14837,0.84885 2.35,1.65156 2.67028,1.78381 l 0.58244,0.24016 0.88624,-2.56678 c 1.40016,-4.05521 1.4491,-7.32221 0.16775,-11.2003 -0.61867,-1.87247 -0.4713,-2.32043 0.80155,-2.43648 2.77224,-0.25276 12.98498,3.18362 17.6163,5.92751 2.81038,1.66505 4.31675,2.88002 4.63132,3.73541 0.24401,0.6635 0.22942,0.69315 -0.55774,1.13305 -2.32626,1.3001 -3.11361,1.86346 -4.101,2.93431 -1.52559,1.65455 -3.28322,4.54861 -3.84758,6.33531 -0.26382,0.83506 -0.61639,1.88037 -0.78359,2.32289 -0.23249,0.61528 -0.19579,0.8482 0.15594,0.98998 0.83446,0.33636 2.88014,0.29908 4.84919,-0.0884 2.36133,-0.46464 2.70108,-0.15331 1.92736,1.76618 -0.46883,1.16313 -0.60509,1.28424 -2.14429,1.90588 -1.93127,0.77998 -4.92544,0.90096 -8.40982,0.33978 -3.16449,-0.50966 -8.45186,-2.44819 -10.8166,-3.96574 z m 7.77046,1.66713 c -0.14127,-0.13608 -0.41734,-0.24736 -0.61349,-0.24729 -0.19615,8e-5 -0.0806,0.11141 0.25686,0.24742 0.33742,0.13601 0.49792,0.13591 0.35663,-1.3e-4 z m 0.0744,-0.36162 c 2.28853,0.52982 2.60272,0.537 2.25339,0.0515 -0.14803,-0.20573 -0.43478,-0.44081 -0.63724,-0.52241 -0.32719,-0.13189 -0.33886,-0.10295 -0.10514,0.26084 0.20593,0.32049 0.12752,0.3278 -0.36156,0.0337 -0.34349,-0.20649 -0.60625,-0.26927 -0.58392,-0.13952 0.0371,0.21583 -1.6428,-0.23863 -4.89651,-1.32459 -0.79488,-0.26531 -0.54154,-0.11305 0.68889,0.41409 1.07037,0.45851 2.70927,1.01044 3.64208,1.22635 z m 5.14318,1.9108 c -0.0487,-0.11439 -0.25682,-0.20843 -0.46253,-0.20898 -0.22735,-5.3e-4 -0.19263,0.081 0.0885,0.20803 0.25438,0.11493 0.42272,0.1153 0.37403,9.4e-4 z m -16.47241,-7.06706 c -0.20366,-0.31957 -0.13966,-0.32052 0.28699,-0.004 0.30201,0.22384 2.24547,1.13487 4.31883,2.02442 2.17034,0.93122 3.38534,1.36997 2.86385,1.03388 -0.81529,-0.52513 -0.73235,-0.51858 0.82939,0.0655 2.02163,0.75613 5.51862,1.53333 6.32616,1.40598 0.46268,-0.073 0.41261,-0.12203 -0.2889,-0.28312 -0.46672,-0.10715 -0.82644,-0.24978 -0.79941,-0.31683 0.0271,-0.0671 0.72735,-0.18044 1.5562,-0.25178 0.82884,-0.0713 1.47312,-0.20931 1.43173,-0.30661 -0.0414,-0.0973 -0.34652,-0.14723 -0.67787,-0.11143 -1.01753,0.11056 -1.05539,-0.087 -0.0599,-0.31243 l 0.94179,-0.21331 -1.0417,-0.24655 c -0.99771,-0.23613 -1.01405,-0.25536 -0.38699,-0.45537 l 0.65472,-0.20882 -0.56049,-0.0249 c -0.30827,-0.0137 -0.91149,-0.10957 -1.34048,-0.21301 l -0.77999,-0.18809 0.90484,0.005 c 1.60626,0.008 1.33935,-0.15836 -0.67086,-0.41801 -1.43899,-0.18587 -2.5562,-0.5203 -4.19089,-1.25452 -1.22586,-0.55062 -2.12813,-0.85997 -2.00472,-0.68826 0.12595,0.17579 -0.27709,0.11271 -0.92005,-0.144 -1.02417,-0.40851 -1.10993,-0.50292 -0.818,-0.89589 0.1794,-0.24149 0.20636,-0.48735 0.0599,-0.54641 -0.14648,-0.059 -0.26952,0.0839 -0.27344,0.31768 -0.005,0.29908 -0.16842,0.36003 -0.55136,0.20567 l -0.54423,-0.21937 0.38479,0.71614 c 0.31637,0.58882 0.30938,0.68745 -0.0393,0.5547 -0.57691,-0.21961 -1.32813,0.42347 -1.10563,0.94646 0.12757,0.29988 0.08,0.36653 -0.19443,0.27231 -0.19986,-0.0686 -0.0398,0.18719 0.35567,0.56845 l 0.71902,0.6932 -1.28385,-0.6931 c -1.42044,-0.76684 -2.74449,-1.85499 -3.39438,-2.7896 -0.23371,-0.33612 -0.49812,-0.57999 -0.58756,-0.54194 -0.0894,0.038 0.39071,0.70569 1.06702,1.48363 0.74824,0.86069 0.9677,1.23308 0.56056,0.9512 -1.21568,-0.84169 -2.5636,-2.79612 -3.09242,-4.48389 -0.44887,-1.43258 -0.54643,-1.57357 -0.70438,-1.01789 -0.248158,0.87306 0.43415,2.35762 1.83647,3.99568 0.84529,0.98739 0.97683,1.24197 0.48076,0.93044 l -0.68293,-0.42888 0.59634,0.64369 c 0.70822,0.76444 1.18931,1.02571 0.81914,0.44484 z m 1.71185,0.5302 c 0.19615,-7e-5 0.47223,0.11121 0.6135,0.24729 0.14127,0.13608 -0.0192,0.13615 -0.35665,1.4e-4 -0.33742,-0.13601 -0.45299,-0.24739 -0.25685,-0.24743 z m -4.50462,-4.97871 -0.322898,-0.91465 0.435028,0.86694 c 0.40662,0.81028 0.48315,1.07214 0.29069,0.99457 -0.0439,-0.0177 -0.22523,-0.44381 -0.40282,-0.94686 z m 20.32575,11.54814 c 0.14205,-0.10445 0.0601,-0.1853 -0.19204,-0.18952 -0.49089,-0.008 -0.63957,0.13632 -0.28659,0.2786 0.127,0.0512 0.34239,0.0111 0.47863,-0.0891 z m 2.151,0.56699 c 0.56063,-0.093 1.71887,-0.46078 2.57386,-0.81735 1.22358,-0.51029 1.52404,-0.74365 1.41129,-1.09614 -0.0788,-0.24632 -0.009,-0.5925 0.15598,-0.7693 0.41289,-0.44359 -0.17999,-0.54705 -1.42379,-0.24845 -0.55899,0.1342 -0.98919,0.17661 -0.956,0.0943 0.0332,-0.0824 -0.55161,-0.0592 -1.29958,0.0515 -0.74797,0.11069 -2.5331,0.16037 -3.96695,0.11038 -2.8032,-0.0977 -2.9462,0.13918 -0.215,0.35619 1.91694,0.15231 4.44562,0.0438 4.85306,-0.20827 0.15357,-0.095 0.24061,-0.0721 0.19343,0.0509 -0.0474,0.12289 0.24561,0.11258 0.65059,-0.023 0.72502,-0.24283 0.72783,-0.24163 0.18255,0.0779 -0.30462,0.17858 -1.17945,0.44359 -1.94408,0.58891 -1.24067,0.23579 -1.30378,0.27817 -0.58671,0.39401 0.44191,0.0714 1.13163,0.0715 1.53271,1.9e-4 0.40107,-0.0713 0.60606,-0.0391 0.45552,0.0716 -0.17206,0.12653 -0.1077,0.20405 0.17327,0.20876 0.32154,0.005 0.41023,-0.10746 0.31601,-0.40205 -0.0932,-0.29131 0.012,-0.45529 0.36427,-0.56796 0.27241,-0.0871 0.46212,-0.0762 0.4216,0.0244 -0.0405,0.10054 0.13555,0.11588 0.39126,0.0341 0.36867,-0.11791 0.42208,-0.0754 0.25791,0.20553 -0.29987,0.51311 -1.69881,1.11589 -3.4871,1.50252 -1.68332,0.36396 -1.72436,0.63824 -0.0541,0.36124 z m 3.30673,-2.73299 c 0.18975,-0.20486 0.38183,-0.28576 0.42693,-0.17974 0.0451,0.10606 -0.11011,0.27362 -0.34492,0.37249 -0.33932,0.14286 -0.35615,0.10331 -0.082,-0.19275 z m -0.39144,1.23245 c 0.40481,-0.21847 0.28061,-0.30681 -0.608,-0.43244 -0.10335,-0.0146 -0.008,0.58927 0.10027,0.63278 0.043,0.0173 0.27147,-0.0728 0.50773,-0.20034 z M 65.827323,132.0488 c 0.12092,0.15332 0.17249,0.15093 0.11461,-0.005 -0.0579,-0.15628 -0.31549,-0.38745 -0.57248,-0.51373 -0.38099,-0.18721 -0.43936,-0.14249 -0.31628,0.24242 0.0994,0.31086 0.21981,0.39107 0.35262,0.23497 0.11092,-0.13038 0.30059,-0.1116 0.42152,0.0417 z m 15.02331,5.19274 c 1.01194,0.15051 1.92846,0.39409 2.03671,0.5413 0.10928,0.14853 0.17219,0.1245 0.14146,-0.0541 -0.0669,-0.38866 0.67663,-0.41443 1.08161,-0.0375 0.1596,0.14854 0.42964,0.1678 0.60042,0.0419 0.21648,-0.15918 0.16775,-0.23052 -0.16126,-0.23604 -0.25933,-0.004 -0.43318,-0.10302 -0.3863,-0.21932 0.0469,-0.11629 0.29474,-0.20793 0.55082,-0.20364 0.25605,0.004 0.42884,-0.0786 0.38392,-0.18414 -0.0449,-0.10554 -0.37174,-0.16063 -0.72646,-0.12189 -0.59529,0.0647 -0.6081,0.0394 -0.16688,-0.32942 0.26286,-0.21972 0.61559,-0.35414 0.78385,-0.2987 0.22895,0.0755 0.24097,0.0383 0.0477,-0.14776 -0.142,-0.1367 -0.13589,-0.33847 0.0136,-0.44839 0.17856,-0.1313 0.0912,-0.20284 -0.25471,-0.20865 -0.50398,-0.008 -0.49982,-0.0218 0.0975,-0.31182 0.40846,-0.19835 0.55599,-0.3954 0.42717,-0.57057 -0.13431,-0.18266 -0.0599,-0.38202 0.23462,-0.62817 0.52514,-0.43895 0.64204,-0.6822 0.29954,-0.62326 -0.14051,0.0242 -0.19063,-0.11684 -0.11142,-0.31335 0.0792,-0.19651 0.26507,-0.31259 0.41301,-0.25794 0.14809,0.0543 0.11657,-0.15469 -0.0697,-0.46519 -0.33484,-0.55806 -0.33177,-0.56364 0.26716,-0.48693 0.46102,0.059 0.63669,-0.0715 0.73472,-0.54585 0.0709,-0.34289 0.25719,-0.64555 0.41416,-0.67254 0.15692,-0.027 0.37312,-0.2669 0.48043,-0.53311 0.1073,-0.26621 0.39186,-0.48072 0.63236,-0.47669 0.39401,0.007 0.41645,-0.0493 0.22695,-0.56458 -0.11568,-0.31454 -0.0983,-0.61957 0.0387,-0.67783 0.13695,-0.0583 0.13157,-0.28308 -0.012,-0.49958 -0.19817,-0.29891 -0.14317,-0.3027 0.22857,-0.0158 0.7445,0.57468 0.70396,0.15423 -0.0486,-0.50394 l -0.66066,-0.5778 0.71526,-0.0884 c 0.44237,-0.0547 0.57673,-0.14977 0.35217,-0.24924 -0.31372,-0.13896 -0.30245,-0.17194 0.0828,-0.24239 0.34631,-0.0633 0.30248,-0.18593 -0.19626,-0.54887 -0.56217,-0.40908 -0.5736,-0.46429 -0.0917,-0.44317 0.36091,0.0158 -0.1368,-0.37975 -1.4456,-1.14889 -2.42237,-1.42358 -8.80867,-3.76635 -11.39357,-4.17968 -1.03399,-0.16533 -1.32616,-0.15957 -0.71888,0.0142 0.94235,0.26962 0.97413,0.30576 0.40288,0.4576 -0.61394,0.16321 -0.61546,0.167 -0.15083,0.37419 0.26961,0.12021 -0.001,0.19422 -0.63599,0.17388 -1.32695,-0.0425 -1.7544,0.0866 -0.83575,0.25237 0.36534,0.066 1.18271,0.26683 1.81636,0.44641 l 1.15209,0.32653 -1.11448,-0.066 c -0.61296,-0.0363 -0.97986,-0.002 -0.81534,0.0765 0.60829,0.28971 0.1049,0.54386 -0.89535,0.45198 l -1.03156,-0.0948 1.26873,0.39101 1.26873,0.39103 -1.11059,-0.0756 c -0.87068,-0.0593 -1.01532,-0.006 -0.66955,0.24563 0.35664,0.25977 0.25632,0.30551 -0.52424,0.23901 -0.53091,-0.0452 -0.76254,0.0111 -0.51473,0.12511 0.38836,0.17875 0.38263,0.24404 -0.0415,0.47292 -0.44564,0.24052 -0.38265,0.29313 0.66746,0.55755 l 1.15953,0.29197 -1.12601,-0.0374 -1.12602,-0.0374 1.2717,0.38364 c 0.89178,0.269 1.09819,0.39124 0.69087,0.40921 -0.31946,0.014 -0.94938,-0.11399 -1.39982,-0.28452 -1.01638,-0.38478 -1.00849,0.18409 0.008,0.59391 0.79325,0.31975 0.81376,0.63664 0.0569,0.87873 -0.71173,0.22764 -0.72203,0.47567 -0.0409,0.98619 0.37494,0.28103 0.45352,0.44653 0.20808,0.43823 -0.28415,-0.01 -0.26648,0.14433 0.0633,0.55076 l 0.45766,0.5641 -0.74034,-0.28645 -0.74035,-0.28645 0.53967,0.7843 c 0.32771,0.47628 0.39097,0.73628 0.16106,0.66202 -0.20825,-0.0672 -0.13818,0.0774 0.15569,0.32147 l 0.5343,0.44376 -0.63032,-0.20556 c -0.58917,-0.1922 -0.60439,-0.17752 -0.23285,0.22381 0.34234,0.36983 0.30997,0.3795 -0.23341,0.0697 -0.347,-0.19777 -0.61052,-0.24178 -0.58575,-0.0974 0.0248,0.14424 0.19791,0.32384 0.38465,0.39911 0.20743,0.0836 0.22578,0.31298 0.0472,0.58955 -0.16079,0.24898 -0.16134,0.50747 -0.001,0.57442 0.17565,0.073 0.10682,0.15728 -0.17284,0.21123 -0.38204,0.0737 -0.40285,0.11492 -0.11785,0.2334 0.19046,0.0789 0.26501,0.17841 0.16587,0.22057 -0.0992,0.0422 -0.34147,-0.0734 -0.53851,-0.25674 -0.28395,-0.26429 -0.27301,-0.34912 0.0527,-0.409 0.32981,-0.0606 0.33887,-0.10633 0.0459,-0.23144 -0.2928,-0.12556 -0.28392,-0.17082 0.0459,-0.23144 0.33784,-0.0621 0.35838,-0.12448 0.11546,-0.3506 -0.21303,-0.19829 -0.36087,-0.0898 -0.52975,0.38862 -0.18249,0.51698 -0.0509,0.87365 0.5951,1.61363 0.45615,0.52247 0.70088,0.94205 0.54385,0.93238 -1.06288,-0.0654 6.30554,2.49454 7.83489,2.72196 z m 3.07851,-1.50602 c 0.25519,-0.0492 0.57441,-0.045 0.70938,0.009 0.13497,0.0544 0.0366,0.1392 -0.21858,0.18842 -0.2552,0.0492 -0.57441,0.045 -0.70938,-0.009 -0.13497,-0.0544 -0.0366,-0.13919 0.21858,-0.18842 z m -12.78919,-2.77721 c -0.142,-0.1367 -0.17384,-0.31056 -0.0708,-0.38636 0.10308,-0.0758 0.0284,-0.20191 -0.166,-0.28026 -0.26668,-0.1075 -0.31914,-0.0353 -0.21374,0.29419 0.0768,0.24016 0.26769,0.47813 0.42417,0.52881 0.17726,0.0574 0.18719,-0.001 0.0263,-0.15638 z m 18.50447,-5.93163 c -0.0487,-0.11439 -0.25682,-0.20843 -0.46254,-0.20898 -0.22734,-5.3e-4 -0.19262,0.081 0.0885,0.20803 0.25439,0.11494 0.42273,0.1153 0.37404,9.3e-4 z m -15.33811,-7.66125 c -0.15326,-0.13035 -0.44234,-0.16741 -0.64242,-0.0823 -0.2555,0.1087 -0.17257,0.17926 0.27864,0.23705 0.36682,0.0469 0.52288,-0.0194 0.36378,-0.15477 z m 2.53093,-0.006 c 4.23297,0.90654 7.43806,2.1391 10.99078,4.22665 1.77595,1.04352 3.34317,1.93256 3.4827,1.97563 0.47626,0.14701 -1.92288,-1.57958 -3.2048,-2.30639 -1.14761,-0.65064 -1.1962,-0.71196 -0.47401,-0.59815 0.44259,0.0697 -0.0929,-0.16495 -1.18985,-0.52156 -1.47767,-0.48031 -1.91923,-0.70374 -1.70387,-0.86209 0.41936,-0.30838 -1.82796,-1.16631 -3.74948,-1.43135 -0.8524,-0.11759 -2.72357,-0.47724 -4.15816,-0.79922 -1.43458,-0.32198 -2.82126,-0.54425 -3.0815,-0.49392 -0.36038,0.0697 -0.31474,0.12021 0.19146,0.21195 0.36554,0.0663 1.66907,0.33556 2.89673,0.59847 z m -2.51175,-1.37662 c -0.14127,-0.13608 -0.41734,-0.24737 -0.6135,-0.24729 -0.19615,7e-5 -0.0806,0.11142 0.25686,0.24743 0.33742,0.13601 0.49792,0.1359 0.35664,-1.4e-4 z m 1.57534,0.35154 c -0.13904,-0.13421 -0.46868,-0.27183 -0.73245,-0.30602 -0.26385,-0.034 -0.15008,0.0758 0.25281,0.24398 0.40304,0.16784 0.61877,0.19604 0.47972,0.0619 z m 14.96534,6.03012 c -0.14127,-0.13608 -0.41734,-0.24736 -0.61349,-0.24729 -0.19615,7e-5 -0.0806,0.1114 0.25685,0.24742 0.33742,0.13601 0.49789,0.136 0.35664,-1.3e-4 z m -13.28612,-5.62411 c -0.0487,-0.11439 -0.25682,-0.20842 -0.46253,-0.20897 -0.22735,-5.3e-4 -0.19263,0.081 0.0885,0.20802 0.25439,0.11494 0.42273,0.1153 0.37404,9.4e-4 z m 12.16209,4.88757 c -0.13904,-0.13422 -0.46868,-0.27183 -0.73245,-0.30603 -0.26385,-0.034 -0.15008,0.0758 0.25281,0.24399 0.40303,0.16785 0.61876,0.19604 0.47971,0.0619 z m -26.968101,56.67796 c 0.34091,-1.30339 0.87642,-6.34338 0.88645,-8.34289 0.004,-0.70573 -0.0778,-0.81368 -0.52498,-0.69675 -0.42688,0.11164 -0.52917,0.008 -0.52917,-0.53553 0,-0.48975 0.15731,-0.69702 0.57562,-0.75846 0.47118,-0.0692 0.63078,-0.36186 0.87957,-1.61285 0.37338,-1.87742 1.0764,-2.87008 2.33014,-3.29016 1.8245,-0.61132 2.901076,0.19075 3.5815,2.66827 l 0.28145,1.0248 -0.97987,-0.162 c -0.538921,-0.0891 -1.19687,-0.16331 -1.46209,-0.16491 -0.45002,-0.003 -0.4456,-0.0495 0.0661,-0.70005 0.60559,-0.76988 0.69576,-1.2972 0.26711,-1.56212 -0.6695,-0.41377 -1.83541,1.68145 -1.83541,3.29836 0,0.53845 0.0869,0.5678 1.19063,0.40228 l 1.19062,-0.17855 v 1.06991 1.0699 l -0.85815,-0.24611 c -1.702953,-0.48839 -1.78768,-0.41987 -1.78768,1.44564 0,2.21144 0.48374,6.88557 0.79821,7.71269 0.23483,0.61765 0.19837,0.64984 -0.73862,0.65202 -0.5421,0.001 -1.59716,0.0758 -2.34457,0.16558 l -1.35894,0.16328 z m -6.167498,-2.70011 0.206255,-0.83943 -0.692872,0.57699 c -1.484441,1.23617 -3.403975,0.90317 -3.911493,-0.67856 l -0.265437,-0.82726 -1.247184,1.16346 c -1.332272,1.24284 -2.009073,1.4088 -3.060518,0.75052 -1.160044,-0.72627 -1.657826,-1.93976 -1.675682,-4.08498 -0.03132,-3.76214 1.921451,-6.26936 5.347659,-6.86598 0.956977,-0.16665 2.337675,-0.40797 3.068215,-0.53628 0.73054,-0.12831 1.382286,-0.185 1.448304,-0.12599 0.06601,0.059 -0.03524,0.79475 -0.224983,1.63496 -0.463022,2.05008 -0.757357,5.92412 -0.515536,6.78536 0.256051,0.91186 1.193763,0.91452 1.860277,0.005 0.364246,-0.4969 0.552646,-1.49712 0.672834,-3.57207 l 0.166931,-2.88192 -0.697683,1.9e-4 c -0.514619,1.4e-4 -0.650537,-0.10961 -0.518009,-0.41832 0.09879,-0.23018 0.179673,-0.52784 0.179673,-0.66146 0,-0.13362 0.254698,-0.24294 0.565993,-0.24294 0.437268,0 0.611325,-0.25573 0.765312,-1.12448 0.264329,-1.49127 1.166667,-3.15802 1.942886,-3.58878 0.344534,-0.1912 1.173771,-0.35439 1.842757,-0.36264 0.959238,-0.0118 1.358199,0.13243 1.88762,0.68258 0.651678,0.67719 1.465365,2.73154 1.182173,2.98467 -0.0772,0.069 -0.738249,0.0453 -1.469046,-0.0527 l -1.32872,-0.1781 0.464376,-0.72323 c 0.605029,-0.94228 0.311653,-1.74187 -0.497145,-1.35496 -0.564605,0.27009 -0.976784,1.13964 -1.370919,2.89204 l -0.20112,0.89422 1.363983,-0.18283 1.363972,-0.18283 v 1.068 c 0,1.0371 -0.02193,1.06053 -0.759281,0.80996 -0.4176,-0.14192 -1.036365,-0.25803 -1.375025,-0.25803 -0.60393,0 -0.612299,0.0748 -0.436228,3.9026 0.09868,2.14643 0.310513,4.37551 0.470641,4.95351 0.160139,0.578 0.265214,1.06765 0.233508,1.08812 -0.03166,0.0205 -1.168044,0.11676 -2.525202,0.21396 l -2.467552,0.17674 z m -5.363657,-3.01093 c 0.492132,-0.47465 0.736749,-1.11504 0.873887,-2.28777 0.270114,-2.30998 0.23588,-4.14048 -0.08066,-4.31537 -0.435132,-0.24038 -2.319115,1.92304 -2.820846,3.23924 -1.156789,3.0346 0.139442,5.18505 2.027666,3.3639 z m -10.796653,2.28089 c -0.333591,-0.60555 -1.060881,-1.97005 -1.616203,-3.03225 l -1.00968,-1.93124 -0.122486,2.24097 c -0.106073,1.94057 -0.221548,2.29206 -0.861503,2.6222 -0.40645,0.20971 -1.163122,0.74199 -1.681485,1.18289 l -0.942472,0.80164 -0.313116,-0.61345 c -0.172225,-0.3374 -1.161909,-2.6736 -2.19933,-5.19156 -3.84871,-9.34137 -6.122684,-12.55127 -8.481777,-11.97274 -1.134108,0.27813 -1.308555,-0.0894 -0.8887,-1.87248 0.513139,-2.17926 2.177977,-2.95916 3.978822,-1.86391 2.107383,1.28169 4.416187,5.48914 7.434588,13.54849 1.482949,3.95954 1.567005,4.11364 1.606938,2.94579 0.07996,-2.33771 -0.34844,-5.65349 -1.037935,-8.03373 l -0.691563,-2.3873 1.494105,-0.36637 c 0.821776,-0.2015 1.78592,-0.56762 2.142554,-0.81361 l 0.648425,-0.44725 0.497928,2.68645 c 0.648449,3.49858 2.966161,9.26031 3.656897,9.09091 0.295371,-0.0724 -0.13096,-4.18662 -0.930207,-8.97682 -0.688778,-4.12817 -2.20646,-9.27885 -3.122874,-10.59884 -0.244884,-0.35269 -0.118817,-0.48163 0.663584,-0.67866 0.531248,-0.13375 1.765113,-0.62799 2.741928,-1.09824 0.976826,-0.47026 1.809162,-0.83746 1.849643,-0.816 0.04048,0.0215 0.01393,0.94134 -0.059,2.04415 -0.342029,5.17221 0.415135,13.99499 1.624125,18.92489 l 0.622385,2.53791 -0.918036,0.67821 c -0.504922,0.37301 -1.494275,1.08609 -2.198553,1.58458 l -1.28051,0.90637 z m 31.745688,0.40447 c -0.18496,-0.0744 -0.5328,-0.5115 -0.77296,-0.9713 -0.36737,-0.70331 -0.44203,-1.84383 -0.4704,-7.18599 -0.0186,-3.4925 -0.0874,-6.51479 -0.15308,-6.7162 -0.0831,-0.25502 0.28227,-0.46196 1.20357,-0.68164 0.72761,-0.17349 1.57606,-0.399 1.88546,-0.50112 0.53512,-0.17664 0.55215,-0.13006 0.34933,0.95557 -0.39245,2.1007 -0.81758,8.74671 -0.64617,10.10172 0.24711,1.95353 0.3757,2.26563 0.93344,2.26563 0.69626,0 0.95058,-0.62372 1.14421,-2.80622 0.37554,-4.23279 2.03971,-6.52636 4.73543,-6.52636 1.48912,0 2.31422,0.86806 2.31294,2.43338 -0.002,2.12064 -1.70263,3.98557 -3.63703,3.98779 -0.94773,0.001 -1.03024,0.22713 -0.56749,1.55459 0.58649,1.6824 2.44836,1.85929 4.34353,0.41268 0.68029,-0.51928 1.29515,-0.88589 1.36635,-0.81469 0.0712,0.0712 0.32739,0.52583 0.56931,1.01029 0.32156,0.64393 0.61678,0.88083 1.09769,0.88083 1.06355,0 0.96475,-0.81757 -0.25926,-2.14548 -1.9507,-2.11626 -2.26205,-3.88414 -1.03841,-5.89626 0.97172,-1.59786 3.46711,-2.11962 4.62061,-0.96612 1.40625,1.40625 0.45885,4.11307 -1.43959,4.11307 -1.10381,0 -1.19904,-0.34606 -0.28183,-1.02418 0.61174,-0.45228 0.78336,-0.78456 0.78336,-1.51669 0,-0.72815 -0.0971,-0.91841 -0.43498,-0.85197 -0.59816,0.11764 -1.37684,1.23404 -1.57831,2.26285 -0.18014,0.91983 0.26148,1.47493 2.73039,3.43204 1.1632,0.92208 1.41882,1.60854 1.0824,2.90684 -0.62111,2.39692 -4.94753,3.22925 -6.21841,1.19631 -0.24641,-0.39416 -0.48091,-0.76312 -0.52111,-0.81991 -0.0402,-0.0568 -0.54537,0.32344 -1.12262,0.84494 -1.20441,1.08811 -2.50076,1.42644 -3.81,0.99435 -0.99665,-0.32892 -1.49412,-0.79856 -2.09835,-1.98089 l -0.39556,-0.77401 -0.47628,1.00369 c -0.679797,1.43257 -2.14893,2.25991 -3.23618,1.82246 z m 7.30845,-7.37107 c 0.94157,-0.79228 1.85235,-2.91547 1.43126,-3.33656 -0.68193,-0.68193 -2.12663,1.08546 -2.57131,3.14565 -0.22583,1.04626 0.0655,1.09505 1.14005,0.19091 z M 38.116376,144.79227 c -0.917652,0 4.223106,1.99687 0.968849,-14.13159 -0.685355,-3.3967 -0.206367,-3.75891 -0.516694,-3.0427 -0.514081,1.18644 -1.038063,3.94359 -1.244498,6.54843 l -0.183472,2.31511 h -0.957549 c -0.526652,0 -1.343716,0.11075 -1.815698,0.24611 l -0.858149,0.24611 v -1.84476 c 0,-2.18574 -0.608929,-5.34316 -1.333611,-6.91503 l -0.518724,-1.12514 c -1.121548,7.99785 -0.775595,12.33446 0.08339,14.94895 0.798135,2.42929 1.957247,2.27182 1.932622,2.29976 -0.07307,0.0829 -5.549971,0.60649 -6.022788,0.60866 -0.371292,0.002 0.660095,-0.14361 0.87473,-0.99018 0.334132,-1.3179 0.609442,-13.17563 0.366181,-15.77159 -0.161127,-1.71947 -0.251519,-1.99745 -0.564932,-1.73734 -0.205212,0.17031 -0.373113,0.7118 -0.373113,1.2033 0,1.04359 -0.504747,1.18265 -1.322917,0.36448 -0.691642,-0.69164 -0.669774,-1.56723 0.06615,-2.64852 1.367528,-2.00932 3.570049,-2.66264 5.198559,-1.54203 1.221867,0.84079 2.424226,3.07258 3.112882,5.77805 0.618831,2.43115 0.636825,2.42362 1.263986,-0.52917 0.879276,-4.13978 2.523937,-6.35 4.725151,-6.35 1.237677,0 3.138067,0.22531 3.138067,1.29999 0,0.70806 -1.042714,1.82709 -1.547012,1.32279 -0.600536,-0.60053 -0.720227,0.54689 -0.719598,6.89842 6.03e-4,6.09323 1.401529,10.57415 1.983902,12.10591 0.220862,0.58091 -0.877797,0.598 -2.478111,0.60151 -0.905903,0.002 -2.464237,0.0806 -2.816204,0.17482 -0.550819,0.14736 0.02612,-0.33435 -0.44139,-0.33435 z m 6.827232,-4.22577 c -1.036898,-0.72627 -1.481834,-1.93976 -1.4978,-4.08498 -0.028,-3.76214 1.717483,-6.26936 4.779981,-6.86598 0.855388,-0.16665 2.089518,-0.40797 2.742511,-0.53628 0.652994,-0.12831 1.235548,-0.185 1.294564,-0.12599 0.05902,0.059 -0.03148,0.79475 -0.201102,1.63496 -0.41387,2.05008 -0.676964,5.92412 -0.460807,6.78536 0.439206,1.74994 3.543972,4.11986 2.739554,2.10619 -1.194184,-2.98935 1.477106,-6.64514 4.17178,-7.22691 0.452685,-0.0977 0.783603,-0.33451 0.770135,-0.55105 -0.01299,-0.20882 -0.100459,-3.76965 -0.194381,-4.67916 -0.165578,-1.60341 -0.152072,-1.65364 0.444585,-1.65364 0.338444,0 1.182379,-0.17066 1.875422,-0.37923 l 1.260071,-0.37922 -0.163089,1.10683 c -0.662451,4.49583 -0.851051,12.40615 -0.406956,14.00526 0.346671,1.2483 1.109804,1.34201 1.615999,0.19844 0.466372,-1.05361 0.83985,-1.0132 0.611305,0.0661 -0.296092,1.39834 -1.192788,2.76628 -2.151896,3.28279 -0.816572,0.43976 -0.960357,0.44689 -1.613866,0.0801 -0.394584,-0.22148 -0.833282,-0.75619 -0.974885,-1.18825 -0.141602,-0.43206 -0.283315,-0.82649 -0.314918,-0.8765 -0.0316,-0.05 -2.429024,0.7674 -3.338701,0.59531 -2.773495,-0.52468 -3.36979,-0.51034 -5.678052,-2.1972 l -1.433929,-1.05716 -1.127339,1.17656 c -1.202976,1.25549 -1.80651,1.42319 -2.748186,0.76362 z m 3.224634,-3.15665 c 0.439892,-0.47465 0.658542,-1.11504 0.781116,-2.28777 0.241441,-2.30998 0.210843,-4.14048 -0.07213,-4.31537 -0.388941,-0.24038 -2.07293,1.92304 -2.521406,3.23924 -1.033992,3.0346 0.124642,5.18505 1.812425,3.3639 z m 10.318888,2.64568 c 0.78211,0 0.635211,-1.04143 0.797108,-3.59998 0.102342,-1.61736 0.107478,-3.01731 0.01141,-3.111 -0.315928,-0.30809 -2.186726,2.07246 -2.613894,3.32613 -1.040743,3.05441 -0.687643,3.38485 1.805372,3.38485 z m -11.945781,23.91988 c 1.618919,-0.81107 0.68798,-7.14405 0.693906,-9.49062 0.0034,-1.35135 -0.04778,-1.51085 -0.392951,-1.22438 -0.242176,0.20099 -0.396875,0.78085 -0.396875,1.48761 0,1.09651 -0.04011,1.15823 -0.752743,1.15823 -0.99079,0 -1.628507,-0.74536 -1.628507,-1.90338 0,-1.175 0.752753,-2.15685 2.114051,-2.75745 l 1.043018,-0.46018 -0.116602,-1.47439 c -0.06413,-0.81092 -0.179062,-2.32761 -0.255402,-3.37042 -0.07634,-1.04282 -1.705559,-1.92694 -1.78706,-2.13933 -0.113957,-0.29696 1.755496,-0.60517 3.099254,-0.85872 0.961049,-0.18134 1.791293,-0.28545 1.844987,-0.23136 0.05369,0.0541 -1.077483,1.06278 -0.846975,5.09088 0.139873,2.44426 0.374791,3.07726 0.966573,3.07726 0.278076,0 1.248576,0.23125 2.156667,0.51388 l 1.651073,0.51387 0.467605,-6.26572 c 0.148459,-1.9893 -2.127435,-1.25307 -1.758973,-1.39493 1.660649,-1.21491 3.403015,-1.50895 5.418136,-1.88904 l -1.425844,8.43873 c -1.248469,7.38895 0.223195,10.81142 0.822793,12.37395 0.140819,0.36697 0.04665,0.40518 -0.593704,0.24094 -2.666302,-0.91721 -4.816743,2.03316 -3.387944,-0.62543 0.256102,-0.46311 0.623437,-6.16858 0.634396,-8.38808 l 0.0081,-1.64121 -0.992187,-0.27554 c -0.545703,-0.15155 -1.570891,-0.27621 -2.278196,-0.27702 l -1.286008,-0.001 -0.245197,7.74138 c -0.09868,3.11545 2.321362,2.25253 2.675894,4.00522 -5.56031,-0.49836 -6.306514,1.40408 -5.821613,0.14045 z m 37.418332,-4.27893 c 0.13637,-0.26562 0.33005,-0.82562 0.4304,-1.24445 l 0.18244,-0.76151 -0.80705,0.80705 c -0.99073,0.99073 -2.39913,1.48519 -3.59263,1.26128 -1.0355,-0.19426 -2.42956,-1.4692 -2.67478,-2.44623 -0.16139,-0.64303 -0.19079,-0.62414 -0.74659,0.47978 -1.1518,2.28768 -3.22145,2.68364 -4.073996,0.77942 l -0.45663,-1.01992 -0.83759,0.99767 c -0.46067,0.54871 -1.15306,1.07684 -1.53864,1.17361 -0.938407,0.23553 -1.941887,-0.44553 -2.143777,-1.45498 l -0.1578,-0.78903 -0.89475,1.04531 c -1.06999,1.25005 -2.19647,1.59438 -3.157,0.96502 -0.36285,-0.23775 -0.73074,-0.78733 -0.81753,-1.2213 l -0.15781,-0.78903 -0.89886,1.05013 c -1.06718,1.24675 -1.716969,1.50331 -2.737185,1.08072 -1.194325,-0.49471 -1.71885,-1.86948 -1.71885,-4.5051 0,-1.90082 0.106547,-2.46349 0.675915,-3.56945 0.991313,-1.92556 2.22909,-2.67579 5.4095,-3.27877 1.45521,-0.27589 2.67031,-0.47868 2.70022,-0.45064 0.0299,0.028 -0.12374,1.15761 -0.34146,2.51016 -0.21772,1.35255 -0.36125,3.37198 -0.31897,4.48762 0.0694,1.8306 0.13112,2.03619 0.63306,2.10787 0.99908,0.14266 1.34825,-0.85847 1.45912,-4.18356 0.1009,-3.0256 0.0986,-3.03923 -0.49395,-2.95684 -0.32742,0.0455 -0.59531,-0.034 -0.59531,-0.1768 0,-0.60887 0.35461,-1.0966 0.79729,-1.0966 0.31177,0 0.44461,-0.15981 0.38489,-0.46302 -0.0502,-0.25466 -0.15625,-1.20716 -0.23576,-2.11667 -0.12754,-1.45903 -0.0895,-1.65364 0.32289,-1.65364 0.2571,0 1.10168,-0.16452 1.876837,-0.36559 l 1.40939,-0.3656 -0.14841,0.96091 c -0.0816,0.5285 -0.22668,1.56849 -0.32233,2.3111 l -0.17391,1.35021 0.85575,0.17115 c 0.47067,0.0941 0.9685,0.17115 1.1063,0.17115 0.23039,0 0.11208,-2.1165 -0.20335,-3.63802 -0.10036,-0.48407 -0.007,-0.59531 0.50103,-0.59531 0.34344,0 1.189856,-0.17017 1.880916,-0.37815 l 1.25649,-0.37814 -0.17002,1.63491 c -0.0935,0.89921 -0.23274,1.96234 -0.30941,2.36252 -0.11594,0.60517 -0.0468,0.72761 0.41079,0.72761 0.4633,0 0.55019,0.16322 0.55019,1.03356 0,0.8919 -0.0702,1.0152 -0.51222,0.89961 -0.41899,-0.10956 -0.546,0.0461 -0.69783,0.85543 -0.19559,1.04259 0.005,4.72446 0.29986,5.49168 0.0952,0.24803 0.40452,0.45097 0.68742,0.45097 0.68824,0 1.28111,-1.46079 1.28111,-3.15658 0,-2.7001 1.6952,-5.52768 3.65009,-6.08833 1.36617,-0.39181 2.66934,0.11129 3.12729,1.20733 0.9446,2.26073 -1.07807,5.12716 -3.61793,5.12716 -0.77706,0 -0.82346,0.051 -0.66266,0.7276 0.0951,0.40019 0.38781,1.02526 0.65045,1.38907 1.04075,1.4416 4.05526,0.65862 4.58393,-1.19063 0.21222,-0.74229 0.0906,-3.71469 -0.22877,-5.59038 -0.13841,-0.81296 -0.11549,-0.83365 1.27155,-1.14758 0.77688,-0.17584 1.63293,-0.38069 1.90233,-0.45523 0.4293,-0.11878 0.46773,-0.026 0.31098,0.75071 -0.0984,0.48743 -0.24691,1.12418 -0.33009,1.415 -0.11494,0.40188 0.10823,0.29436 0.93001,-0.44807 1.88579,-1.7037 4.08324,-1.60377 4.95112,0.22515 0.52436,1.10499 0.33927,2.66461 -0.4327,3.646 -0.63876,0.81205 -2.1417,1.27259 -3.03932,0.93131 l -0.64701,-0.24599 0.81816,-0.73108 c 1.01223,-0.90451 1.36834,-2.6511 0.66033,-3.2387 -0.38409,-0.31877 -0.57211,-0.30032 -1.38143,0.13552 -0.51526,0.27749 -1.23817,0.89961 -1.60649,1.38249 -0.64542,0.84618 -0.6638,0.97576 -0.50797,3.57962 0.0889,1.4859 0.28317,3.11048 0.43163,3.61017 0.14847,0.49968 0.24222,0.93089 0.20832,0.95824 -0.0339,0.0274 -1.05287,0.1335 -2.2644,0.23589 -2.07738,0.17556 -2.18867,0.15866 -1.95483,-0.29679 z m -22.118963,-3.45951 c 0.56905,-0.61103 0.70454,-1.07009 0.84567,-2.86523 0.0924,-1.17569 0.0912,-2.52187 -0.003,-2.99151 l -0.17077,-0.85389 -0.79115,0.74256 c -1.15408,1.08318 -2.041482,3.13378 -2.044559,4.72453 -0.004,2.05536 0.915369,2.58377 2.163539,1.24354 z m 9.811937,0.26459 c 0.30702,-0.33975 0.4688,-1.32592 0.60766,-3.70417 0.19092,-3.26993 0.0733,-3.74142 -0.72118,-2.89093 -0.17993,0.19262 -0.61662,0.29488 -0.97042,0.22725 l -0.64326,-0.12297 0.11232,3.15037 c 0.0618,1.7327 0.20314,3.29732 0.31414,3.47692 0.28469,0.46062 0.81107,0.4054 1.30074,-0.13647 z m 9.837106,-4.92045 c 1.21101,-1.58771 1.15453,-3.23579 -0.0881,-2.57075 -0.63885,0.3419 -1.61874,2.33018 -1.61874,3.28456 0,0.63256 0.0627,0.68599 0.51841,0.44208 0.28513,-0.1526 0.81992,-0.67274 1.18843,-1.15589 z m 9.241167,14.80513 c -1.07611,-0.48434 -1.68759,-1.38529 -1.68759,-2.48648 0,-0.92364 0.39362,-1.90811 0.76292,-1.90811 0.11833,0 0.40556,0.48476 0.6383,1.07725 0.37098,0.94444 0.51428,1.06676 1.162344,0.99219 1.145354,-0.1318 1.028554,-0.80599 -0.427997,-2.47048 -1.412127,-1.61372 -1.784637,-2.66695 -1.493027,-4.22138 0.36025,-1.92031 2.352824,-3.29199 4.261888,-2.93385 1.56276,0.29318 2.16995,1.9309 1.32306,3.5686 -0.41388,0.80036 -0.88668,1.07726 -1.83941,1.07726 -0.952667,0 -0.985717,-0.2821 -0.12703,-1.08423 0.58594,-0.54735 0.78005,-0.94353 0.71832,-1.46614 -0.11084,-0.93844 -0.56776,-1.05845 -1.24838,-0.3279 -0.628587,0.67471 -0.955444,2.03652 -0.689737,2.8737 0.0996,0.31383 0.817707,0.97783 1.595767,1.47555 2.17862,1.39364 2.69913,2.52824 1.93213,4.21161 -0.66315,1.45546 -3.303097,2.33286 -4.881558,1.62241 z M 53.21732,131.78331 c -0.281798,-0.008 -0.55123,-7.5e-4 -0.810287,0.0222 -0.03847,0.27351 -0.07493,0.54717 -0.10852,0.82114 0.377657,-0.0611 0.762998,-0.0878 1.1498,-0.078 0.215267,0.005 0.431219,0.0219 0.646473,0.0501 0.543412,0.0714 1.222173,0.23421 1.843298,0.42168 0.244666,-0.21343 0.507329,-0.4028 0.783415,-0.57103 -1.37631,-0.41603 -2.516019,-0.63713 -3.504179,-0.66611 z m 16.729211,1.29812 c -0.06364,0.0284 -0.133318,0.0521 -0.207739,0.0703 l 0.160714,0.0661 z m -21.395076,0.46302 c -0.255202,0.1899 -0.966614,0.40413 -1.625741,0.48627 -3.39e-4,7.6e-4 -6.95e-4,0.002 -0.001,0.003 -0.09987,0.31096 -0.204769,0.64649 -0.287321,0.99063 0.182928,-0.0441 0.37235,-0.0753 0.56379,-0.0915 0.480465,-0.0405 0.888674,-0.14747 1.281058,-0.34572 0.03457,-0.34606 0.05645,-0.69384 0.06925,-1.04231 z m 13.875639,0.0129 c -0.01836,0.69433 -0.02815,1.38911 -0.02997,2.08514 0.985581,0.12161 1.872712,0.29515 2.724898,0.5426 -0.255244,-0.26654 -0.474598,-0.51591 -0.648539,-0.74 -0.101303,-0.13052 -0.19827,-0.26285 -0.291455,-0.39636 l -0.438216,-0.11111 0.228927,-0.2005 c -0.193199,-0.30099 -0.365756,-0.60669 -0.516248,-0.91106 -0.09885,-0.0176 -0.196366,-0.0485 -0.295072,-0.093 -0.170463,-0.0769 -0.436858,-0.13796 -0.734322,-0.1757 z m -10.256739,0.27078 c -0.0065,0.0723 -0.01261,0.14462 -0.0186,0.21704 0.02821,-0.004 0.0572,-0.009 0.08682,-0.0139 0.541739,-0.0918 1.702326,0.003 2.579171,0.21032 l 0.0041,0.001 c 0.09842,-0.13341 0.200929,-0.26303 0.307475,-0.3886 -0.14755,-0.006 -0.297955,-0.0135 -0.450619,-0.0212 -0.990531,-0.0499 -1.919307,-0.048 -2.508374,-0.005 z m 6.663676,0.46095 c -0.0093,0.0106 -0.01865,0.0209 -0.02791,0.0315 0.0097,-3.1e-4 0.01948,-2.7e-4 0.02946,-5.2e-4 8e-5,-0.002 4.36e-4,-0.004 5.16e-4,-0.006 z m -0.156063,0.18087 c -0.255817,0.30229 -0.498034,0.6175 -0.719336,0.9462 0.28004,-0.006 0.557879,-0.007 0.836642,-0.004 0.01004,-0.30758 0.02048,-0.61502 0.03307,-0.92191 -0.05421,-0.006 -0.104497,-0.0131 -0.150379,-0.0202 z m -19.433956,0.18655 c -0.460897,0.026 -0.942017,0.0705 -1.440738,0.13385 -0.01682,0.21221 -0.03284,0.42441 -0.04806,0.63665 -0.03307,0.0871 -0.04761,0.19375 -0.05323,0.31057 0.641353,-0.0967 1.187563,-0.16693 1.662947,-0.21187 -0.03745,-0.29002 -0.07805,-0.57958 -0.120923,-0.8692 z m 3.252515,0.20257 c 0.02258,0.33406 0.04836,0.6677 0.07855,1.00098 0.127133,0.0508 0.246253,0.0976 0.358118,0.14004 0.01703,-0.33591 0.04565,-0.67004 0.0801,-0.99787 -0.162951,-0.0536 -0.335191,-0.1011 -0.516764,-0.14315 z m 11.899532,0.03 -0.464571,0.0625 c -0.471918,0.0634 -1.120717,0.16529 -1.854667,0.28938 -0.01127,0.27157 -0.01846,0.54459 -0.02119,0.81907 0.685244,-0.1168 1.317431,-0.21611 1.909961,-0.2992 0.122154,-0.29973 0.266847,-0.59156 0.430464,-0.87178 z m -6.127274,1.05265 c -0.222802,0.0443 -0.440719,0.0885 -0.651123,0.13177 -0.391381,0.0806 -0.76722,0.15327 -1.129647,0.21859 0.01215,0.27494 0.06174,0.54334 0.162781,0.79634 0.378762,-0.0729 0.748226,-0.14549 1.101741,-0.21653 0.0617,-0.0124 0.122957,-0.025 0.183968,-0.0372 0.07904,-0.12386 0.145292,-0.25012 0.196887,-0.36483 0.05046,-0.17485 0.09562,-0.35088 0.135393,-0.52813 z m -15.270386,0.11782 c -0.460158,0.23372 -0.941759,0.52093 -1.490865,0.8847 0.01152,0.34375 0.02657,0.68874 0.04806,1.03353 0.522056,-0.34603 0.99999,-0.64146 1.438155,-0.88884 0.0057,-0.34272 0.0078,-0.68613 0.0047,-1.02939 z m 25.516789,0.47542 c -0.256773,-0.002 -0.467012,0.0125 -0.6134,0.0465 -0.2692,0.0626 0.09513,0.19291 0.840259,0.32401 0.0054,-0.12156 0.01031,-0.2427 0.01499,-0.36432 -0.08442,-0.003 -0.165256,-0.006 -0.241845,-0.006 z m -19.019511,0.13539 c -0.77923,-0.007 -1.450142,0.0184 -1.829346,0.0703 -0.03754,0.12971 -0.107315,0.22423 -0.233577,0.25787 0.189518,0.0371 0.518958,0.0624 0.984952,0.0744 0.469275,0.0121 0.843712,0.0335 1.120862,0.062 -0.01308,-0.15497 -0.02763,-0.30974 -0.04289,-0.46457 z m 3.42098,0.0496 c -0.08467,0.004 -0.169121,0.007 -0.253215,0.01 0.03946,0.35236 0.08371,0.7043 0.132808,1.05523 0.06023,-0.0102 0.120387,-0.0206 0.181385,-0.031 -0.04077,-0.34147 -0.05879,-0.68743 -0.06098,-1.03405 z m 19.4939,0.34624 c 0.0091,0.13704 0.01428,0.27599 0.01757,0.41651 0.406509,0.0759 0.766033,0.14938 1.035596,0.2129 0.849535,0.20019 1.471108,0.28287 1.383378,0.18139 -0.214,-0.24205 -1.231687,-0.55051 -2.436544,-0.8108 z m -10.234001,0.3023 c 0.02707,0.0795 0.05744,0.15834 0.09095,0.23565 0.243118,-0.0239 0.448726,-0.0434 0.601514,-0.0563 0.192647,-0.0164 0.290285,-0.0355 0.301273,-0.0553 v -5.2e-4 h 5.17e-4 c 5.2e-5,-1.7e-4 -4.3e-5,-0.001 0,-0.002 8e-5,-4.1e-4 4e-4,-0.002 5.17e-4,-0.003 v -5.1e-4 -5.2e-4 l -5.17e-4,-5.2e-4 v -5.1e-4 -5.2e-4 -5.2e-4 l -5.17e-4,-5.1e-4 v -5.2e-4 c -0.02459,-0.0394 -0.378703,-0.0823 -0.993738,-0.11524 z m -12.610599,0.11731 c -0.187935,0.0342 -0.42356,0.0687 -0.707451,0.10283 -0.797382,0.0959 -1.906356,0.28887 -2.464449,0.42892 -0.594242,0.14906 -1.040023,0.10301 -1.075903,-0.11111 -0.03692,-0.22073 -0.105506,-0.22078 -0.173116,-5.1e-4 -0.184005,0.60004 -2.90209,1.92215 -3.215824,1.56424 -0.126194,-0.144 -0.201745,-0.19033 -0.247531,-0.12764 0.06629,0.51922 0.156588,1.03366 0.280603,1.53841 2.290809,-1.53319 4.042765,-2.10641 7.650179,-2.61276 -0.01186,-0.26113 -0.02749,-0.52173 -0.04651,-0.78238 z m 17.218587,0.68006 c -0.05084,0.19222 -0.104516,0.40482 -0.119373,0.601 0.02418,-7.1e-4 0.04863,-0.001 0.07286,-0.002 v -5.2e-4 c 0.621323,-0.0172 1.259191,-0.0226 1.876888,-0.015 0.01783,-0.17522 0.03344,-0.35037 0.04754,-0.52607 -0.663444,-0.0327 -1.290422,-0.0518 -1.877921,-0.0574 z m -3.248381,0.15658 c -0.273801,0.0365 -0.526102,0.0791 -0.755509,0.12816 0.162084,0.2068 0.342346,0.4012 0.532784,0.58187 0.10076,-0.017 0.208334,-0.033 0.321944,-0.0486 -0.04913,-0.21928 -0.08166,-0.44026 -0.09922,-0.66146 z m 8.916252,0.19689 c 0.0093,0.16899 0.02395,0.33664 0.04754,0.50177 l 0.158647,0.0171 -0.155029,0.007 c 0.02641,0.17785 0.0631,0.35235 0.115755,0.52193 0.307862,0.0296 0.516002,0.0882 0.613399,0.15142 0.111202,-0.22893 0.202805,-0.48038 0.361218,-0.66973 0.07024,-0.14933 0.176064,-0.25633 0.298173,-0.32349 -0.322211,-0.0696 -0.703035,-0.12847 -1.142049,-0.17519 -0.09974,-0.0106 -0.198899,-0.0208 -0.297656,-0.031 z m 2.432926,0.54673 c 0.0292,0.0814 0.04312,0.17364 0.03824,0.27596 -0.01415,0.22246 -0.04147,0.44556 -0.08165,0.66817 0.482488,-0.35058 0.494611,-0.67843 0.04341,-0.94413 z m -36.573478,0.19637 c -1.087393,0.83964 -1.103824,1.01419 -1.170988,2.0345 -0.0694,1.0539 0.05017,1.36664 0.851111,2.22829 0.02248,0.0242 0.04615,0.0506 0.07131,0.0791 0.03062,-0.14003 0.04237,-0.28712 0.03566,-0.4346 0.01785,-0.25998 0.03479,-0.52027 0.05116,-0.78083 -0.161172,-0.0965 -0.194148,-0.43887 -0.138493,-1.0418 0.03073,-0.33297 0.08477,-0.56751 0.242363,-0.80512 0.02115,-0.42593 0.04039,-0.85252 0.05788,-1.27951 z m 20.56722,0.0656 c -0.639382,0.63566 -1.211646,1.36546 -1.984375,1.84795 -0.642096,0.43637 -1.37154,0.33974 -1.997811,-0.008 -0.658001,0.0669 -1.139061,0.15883 -1.392163,0.25632 0.08537,0.33533 0.176239,0.66936 0.273369,1.002 0.185852,-0.0162 0.370235,-0.0306 0.552421,-0.0429 0.387113,-0.0261 0.711156,-0.0399 0.983402,-0.0393 0.724679,0.002 1.084489,0.10527 1.303797,0.34985 0.230324,-0.051 0.461066,-0.0983 0.692981,-0.14263 -0.142991,-0.33453 -0.195402,-0.60611 -0.168466,-0.83819 0.10923,-0.94198 0.357448,-0.88554 0.912089,0.20877 0.06693,0.13208 0.150151,0.28872 0.24288,0.45785 0.14405,-0.0227 0.288311,-0.0445 0.432531,-0.0656 -0.04434,-0.076 -0.08979,-0.15265 -0.136425,-0.22996 -0.583699,-0.96752 -0.856564,-1.64716 -0.665593,-1.65519 0.003,-1.3e-4 0.006,-2.2e-4 0.0093,0 0.223429,0.0147 0.741305,0.7991 1.292944,1.81487 0.190415,-0.0258 0.380805,-0.0505 0.571025,-0.0744 0.24091,0.0126 0.588793,0.0317 0.774113,0.14004 -0.194928,-0.47878 -0.721815,-1.42334 -1.628841,-2.93057 -0.02248,-0.017 -0.04473,-0.0341 -0.06718,-0.0512 z m 8.051705,0.0574 c 0.06093,0.0289 0.134206,0.0491 0.221692,0.0589 0.428487,0.0311 1.023442,0.18565 1.366842,0.003 -0.37182,0.009 -0.875734,-0.006 -1.405599,-0.0486 -0.06078,-0.005 -0.121831,-0.009 -0.182935,-0.0129 z m -17.292484,0.2372 c -1.831498,0.47972 -5.643825,1.97582 -7.145301,2.84737 0.05334,0.12207 0.109616,0.24326 0.168982,0.36328 0.417059,-0.19062 0.975252,-0.45263 1.704806,-0.79581 1.321701,-0.62174 3.289614,-1.42613 4.37286,-1.78749 0.324312,-0.10819 0.628111,-0.21396 0.893485,-0.31006 0.0024,-0.10583 0.0042,-0.21155 0.0052,-0.31729 z m 28.972391,0.17725 c -0.935267,-0.0224 -2.9505,0.66449 -4.095357,1.35961 -0.0874,0.22166 -0.187916,0.43819 -0.301273,0.6475 0.432032,-0.16282 1.24454,-0.51941 1.979207,-0.87178 0.947207,-0.45429 2.030156,-0.72923 2.69906,-0.68523 1.292439,0.0851 1.242752,-0.18402 -0.07958,-0.43098 -0.05989,-0.0112 -0.127414,-0.0173 -0.202055,-0.0191 z m -24.978837,0.0925 c -0.14867,0.0337 -0.300391,0.069 -0.455269,0.10542 0.05332,0.25892 0.109805,0.51702 0.169499,0.77463 0.276021,-0.0661 0.543836,-0.12762 0.800468,-0.18449 -0.146958,-0.15136 -0.277513,-0.31396 -0.387057,-0.48007 -0.04455,-0.071 -0.08729,-0.14287 -0.127641,-0.21549 z m 19.493384,0.0232 c -0.08411,0.0218 -0.200014,0.038 -0.348816,0.045 0.03596,0.0718 0.07576,0.14233 0.11989,0.21136 0.09306,-0.0681 0.166309,-0.15681 0.228926,-0.25632 z m -23.538098,1.02423 c -2.935885,0.84223 -4.671045,1.54158 -5.382617,2.16524 -0.265782,0.23296 -0.432329,0.45069 -0.467672,0.72502 0.505272,0.19156 1.086829,0.2722 1.565796,0.49041 -0.435096,0.15806 -0.870104,0.32303 -1.313098,0.45321 0.357436,0.68084 1.103542,1.65757 2.357479,3.20238 1.436213,1.76946 2.948057,3.63973 3.359485,4.15582 0.03239,0.0406 0.06448,0.0801 0.09612,0.11782 0.181472,-0.0766 0.362259,-0.15621 0.542602,-0.23719 -0.263243,-0.24131 -0.508493,-0.64428 -0.807186,-1.29708 -0.197805,-0.43236 -1.31177,-1.85927 -2.476334,-3.17035 -1.164296,-1.31129 -2.143218,-2.54216 -2.175578,-2.73471 -0.07755,-0.46268 1.838391,-1.14662 4.297929,-1.67897 0.06412,-0.1803 0.11579,-0.36755 0.15968,-0.55656 -0.47543,0.10492 -0.949117,0.2153 -1.381311,0.3235 -2.876006,0.71999 -3.407904,0.78969 -2.3797,0.31212 0.898907,-0.41752 2.345414,-0.91865 3.909839,-1.39164 0.01165,-0.0642 0.02289,-0.12787 0.03462,-0.19017 0.02401,-0.22992 0.04396,-0.45944 0.05994,-0.68885 z m 11.895915,0.18242 c 0.08741,0.14418 0.185767,0.29712 0.295589,0.4594 0.445368,0.65808 0.895751,1.42181 1.109493,1.87121 0.203098,-0.11492 0.407017,-0.22842 0.613399,-0.33693 -0.03813,-0.0779 -0.07469,-0.15709 -0.109037,-0.23617 -0.125507,-0.28871 -0.42557,-0.7701 -0.738456,-1.19579 -0.402792,-0.15778 -0.792113,-0.34857 -1.170988,-0.56172 z m 16.820678,0.10593 c -0.05508,-2.7e-4 -0.101975,0.004 -0.140043,0.0129 -1.156421,0.26864 -1.241221,0.63425 -0.413928,1.78129 0.106671,0.14789 0.243671,0.3606 0.399976,0.61857 0.207966,-0.0424 0.415732,-0.0875 0.623217,-0.13436 -0.195651,-0.008 -0.415217,-0.3674 -0.527099,-0.94051 -0.07784,-0.39853 0.08225,-0.59895 0.467672,-0.60048 0.385425,-0.002 0.996066,0.19551 1.819527,0.59118 0.185659,0.0892 0.437761,0.19988 0.732255,0.32246 0.07429,-0.0197 0.148494,-0.0393 0.222725,-0.0589 -0.0074,0.0472 -0.01483,0.0943 -0.02222,0.14159 0.50932,0.20799 1.117141,0.44192 1.716691,0.66094 0.381223,-0.0775 0.759107,-0.17398 1.134815,-0.28009 -2.528229,-1.11513 -5.189711,-2.10949 -6.013587,-2.11356 z m -22.600687,0.26872 c 0.653137,-0.0252 1.023558,0.0597 0.833541,0.22635 -0.07192,0.0631 -0.700676,0.0831 -1.397331,0.0444 l -1.266589,-0.0703 1.093473,-0.13746 c 0.270285,-0.034 0.519193,-0.0546 0.736906,-0.0631 z m 20.451981,0.33332 c -0.185593,0.0154 0.09071,0.48583 0.715202,1.21077 l 0.623218,0.72451 c 0.04405,-0.008 0.08826,-0.0158 0.132292,-0.0238 l -0.389124,-0.67645 c -0.4216,-0.73413 -0.840087,-1.22036 -1.062467,-1.23506 -0.007,-4.6e-4 -0.01313,-5e-4 -0.01912,0 z m -12.870532,0.0692 c 0.07194,0.15248 0.149005,0.30835 0.230477,0.46509 0.106703,0.20529 0.207644,0.40448 0.300757,0.59169 0.176865,-0.0862 0.356637,-0.16716 0.539502,-0.24029 -0.07641,-0.153 -0.159145,-0.3226 -0.249597,-0.50953 -0.02216,-0.0458 -0.04355,-0.0907 -0.0646,-0.13436 -0.257704,-0.0428 -0.50974,-0.10085 -0.756543,-0.1726 z m 5.66322,0.10129 c -0.09651,0.0313 -0.196896,0.0591 -0.304374,0.0842 -0.05799,0.35073 -0.11679,0.70155 -0.1757,1.05213 0.250822,-0.14424 0.505109,-0.28808 0.759127,-0.42943 -0.11698,-0.23016 -0.142352,-0.57258 -0.279053,-0.70693 z m -3.516064,0.37827 -0.383956,0.0222 0.26355,0.0295 h 5.17e-4 c 0.06686,-0.0183 0.104812,-0.0354 0.119889,-0.0517 z m -4.773869,0.2744 c -0.0047,0.009 -0.0094,0.0182 -0.01499,0.0274 0.007,-0.007 0.01173,-0.0157 0.01499,-0.0274 z m -0.176217,0.25942 c -0.178748,0.31257 -0.320858,0.632 -0.433048,0.95756 0.66779,1.42659 1.177907,2.79172 0.981335,2.95899 -0.514716,0.43806 -0.973229,0.27319 -1.339453,-0.48059 -0.0046,-0.009 -0.0094,-0.0189 -0.01447,-0.0289 -0.003,0.3147 -0.0059,0.63196 -0.0031,0.94982 l 0.119373,0.17931 -0.116272,0.0625 c 0.0034,0.1792 0.0096,0.35864 0.0186,0.53744 0.114035,-0.066 0.217937,-0.12574 0.310576,-0.17777 1.701031,-0.95523 1.745764,-1.00141 1.716174,-1.7601 -0.01195,-0.30594 -0.195172,-0.8891 -0.450102,-1.47433 -0.0363,-0.006 -0.07276,-0.0132 -0.109037,-0.0202 -0.5985,-0.007 -0.387998,-0.13426 -0.02997,-0.28422 -0.06265,-0.13074 -0.128295,-0.25905 -0.195337,-0.38189 -0.247641,-0.45382 -0.404777,-0.81767 -0.45527,-1.03766 z m 19.258773,0.077 c -0.343039,8.5e-4 -0.624254,0.1139 -0.757576,0.35761 -0.03881,0.071 -0.0822,0.11699 -0.128158,0.14056 0.518646,-0.11833 1.035688,-0.24825 1.551327,-0.38241 -0.231879,-0.0762 -0.459769,-0.11626 -0.665593,-0.11576 z m -5.315954,0.21291 -1.827279,0.92656 c -1.005231,0.50955 -2.889664,1.75533 -4.187341,2.76882 -0.243414,0.19011 -0.467181,0.36679 -0.672311,0.53227 -0.04698,0.27674 -0.09395,0.55364 -0.14056,0.83044 1.561525,-1.40104 4.782792,-3.6654 5.418274,-3.62355 0.251715,0.0166 0.24349,0.15512 -0.02377,0.39326 -0.344369,0.30677 -0.329765,0.35544 0.08785,0.29404 0.29375,-0.0432 0.398344,0.0188 0.252698,0.14986 -0.136673,0.12295 -0.518996,0.20587 -0.849044,0.18397 -0.43286,-0.0285 -1.072909,0.37481 -2.29495,1.4459 -0.932068,0.81693 -2.047079,1.68838 -2.477885,1.93632 -0.09014,0.0519 -0.179939,0.0982 -0.266651,0.13797 -0.03971,0.23897 -0.07913,0.47771 -0.118339,0.71676 l 0.366386,-0.1726 c 0.439596,-0.20716 1.299162,-0.81443 1.909961,-1.34979 1.150981,-1.0088 3.243265,-2.27784 3.947563,-2.39417 0.01834,-0.003 0.03635,-0.005 0.05426,-0.006 v 5.1e-4 c 0.268657,-0.0123 0.492441,0.22994 0.796334,0.8506 0.07152,0.14605 0.194291,0.36553 0.352433,0.632 0.130419,-0.0244 0.260088,-0.0494 0.388607,-0.0754 0.03245,-9e-4 0.06718,-0.003 0.103353,-0.007 -0.287114,-0.474 -0.521805,-0.86984 -0.655257,-1.10898 l -0.636137,-1.13946 0.82889,0.89865 c 1.130117,1.22512 1.270023,0.54602 0.153996,-0.74517 -0.533336,-0.61668 -0.690184,-0.86705 -0.519349,-0.86868 0.03942,-3.8e-4 0.09633,0.0125 0.170016,0.0372 0.34558,0.11556 0.895811,0.77699 1.632458,1.96267 0.186631,0.30039 0.404986,0.63454 0.633553,0.97255 -0.05015,-0.4365 -0.08965,-0.87419 -0.133325,-1.31154 5.75e-4,-0.0389 -1.2e-4,-0.0787 -0.0016,-0.11938 -0.391824,-0.49084 -0.746026,-0.92557 -1.008207,-1.23455 z m -13.507186,0.1049 c -0.07067,0.001 -0.03196,0.10189 0.117305,0.28681 0.187704,0.23295 0.348284,0.31496 0.357084,0.1819 0.0085,-0.13266 -0.144947,-0.32333 -0.341581,-0.42323 -0.06105,-0.0311 -0.105154,-0.0459 -0.132808,-0.0455 z m 20.444747,0.33022 c -0.04357,0.28723 -0.08648,0.57497 -0.128675,0.86299 0.06663,0.0723 0.124629,0.1445 0.17415,0.21756 -0.01581,-0.30791 0.03771,-0.59254 0.265617,-0.77618 -0.0046,-0.005 -0.009,-0.01 -0.01344,-0.015 -0.09148,-0.10438 -0.191583,-0.20086 -0.297656,-0.28939 z m -19.31045,0.0486 c -0.0011,-1e-5 -0.002,4.2e-4 -0.0031,5.2e-4 -0.0057,5.1e-4 -0.01076,0.002 -0.01499,0.006 -0.02139,0.0187 -0.01067,0.10114 0.0248,0.22479 0.05324,-0.0287 0.106637,-0.0576 0.159681,-0.0868 -0.07267,-0.0903 -0.13158,-0.14426 -0.166399,-0.1447 z m 27.344585,0.2744 c 2.59572,1.3952 4.453136,2.54946 6.090067,3.8406 0.342768,-0.0934 0.688211,-0.18006 1.034562,-0.26097 -0.443285,-0.44375 -0.806662,-1.38893 -0.923974,-2.53938 -0.01206,-0.11836 -0.02455,-0.23197 -0.03772,-0.34158 -0.191649,0.004 -0.386929,0.006 -0.584977,0.004 0.150401,0.74596 0.17528,1.33307 0.04444,1.38287 -0.155503,0.0592 -1.152338,-0.44952 -2.214851,-1.13068 -0.22388,-0.14353 -0.472895,-0.29849 -0.735873,-0.45837 -0.320756,-0.0409 -0.646646,-0.0884 -0.976684,-0.1416 -0.515823,-0.0831 -1.088192,-0.20402 -1.694987,-0.35502 z m -19.076872,0.11008 c -0.04482,0.004 -0.129412,0.0536 -0.250114,0.15089 -0.232764,0.18764 -0.31479,0.3486 -0.181901,0.3576 0.132994,0.009 0.323787,-0.14506 0.423747,-0.34158 0.05861,-0.11533 0.05903,-0.17105 0.0083,-0.16691 z m 15.743742,0.0723 c -0.0186,0.17937 -0.0369,0.35862 -0.05581,0.53795 0.527376,0.228 0.946356,0.43603 1.135848,0.57206 0.698239,0.50162 0.68747,0.50536 -0.697115,0.2341 -0.176259,-0.0345 -0.347828,-0.0689 -0.514697,-0.10336 -0.0232,0.20942 -0.04703,0.41863 -0.07183,0.62787 0.841306,0.19022 1.797867,0.45678 1.892907,0.56638 0.145011,0.16544 -0.905063,1.01713 -1.574581,1.29191 0.171661,0.12611 0.280122,0.31783 0.346233,0.5364 0.3677,-0.2535 0.717962,-0.48768 1.022676,-0.68265 1.102272,-0.70529 2.008964,-1.35804 2.014864,-1.45004 0.02052,-0.31169 -1.529643,-1.19133 -3.498494,-2.13062 z M 44.3791,144.58615 c -0.01604,0.11574 -0.05036,0.22633 -0.104904,0.32504 0.616395,0.0372 1.098033,0.0465 1.308448,0.016 -0.06571,-0.059 -0.133266,-0.11613 -0.201538,-0.17208 -0.23013,-0.0521 -0.575605,-0.1103 -1.002006,-0.16898 z m 14.948441,0.10077 c -0.05805,0.004 -0.201153,0.059 -0.437699,0.16175 -0.245115,0.10646 -0.543359,0.27219 -0.785999,0.43149 -0.01765,0.10338 -0.03505,0.20669 -0.05271,0.31006 0.373794,-0.16448 0.863441,-0.46153 1.095024,-0.66456 0.189956,-0.16646 0.256022,-0.24422 0.181384,-0.23874 z m -6.929293,0.0687 c 0.216905,0.44757 0.486821,0.92072 0.622185,1.08934 0.237892,0.29429 0.256287,0.27795 0.164847,-0.1447 -0.04663,-0.21535 -0.203668,-0.5726 -0.38809,-0.92655 -0.132927,-0.005 -0.265963,-0.0108 -0.398942,-0.0181 z m -20.26853,0.30076 c -0.386,0.0357 -0.77232,0.0788 -1.158586,0.12298 0.717321,0.92158 1.832611,2.49553 2.636015,3.72794 1.269788,1.94785 2.548555,3.7809 4.496367,6.38928 -0.138507,-0.32232 -0.285645,-0.64117 -0.443384,-0.9555 -0.326302,-0.33699 -0.369934,-0.86772 -0.10697,-1.19889 -4.938987,-6.85952 -6.462787,-9.50201 -2.601909,-4.9413 1.285216,1.51832 2.408669,2.69699 2.496489,2.61999 0.08774,-0.0773 -0.975784,-1.436 -2.36368,-3.01945 -1.558109,-1.77674 -2.605108,-2.80731 -2.736784,-2.69183 -0.03489,0.0306 -0.111081,0.01 -0.217558,-0.0532 z m -1.779736,0.19378 c -0.31644,0.0357 -0.633169,0.0703 -0.949813,0.0997 0.435549,0.60897 0.901799,1.28826 1.324467,1.9358 0.990284,1.51714 3.449074,5.1318 5.464266,8.03206 0.951955,1.37004 2.219457,3.20175 3.521232,5.08807 -0.19634,-0.79625 -0.40227,-1.59149 -0.63562,-2.37764 -3.915886,-5.67544 -7.440426,-10.81702 -8.367965,-12.23491 -0.12745,-0.19482 -0.24615,-0.37557 -0.356567,-0.54312 z m 9.883634,0.39843 c -0.135311,-0.002 -0.232712,0.006 -0.28267,0.0243 -0.461828,0.16872 0.04426,0.4217 1.035079,0.5178 0.544266,0.0528 2.187703,0.37875 3.651974,0.72451 0.780594,0.18431 1.381102,0.29273 1.781286,0.33589 -0.0097,-0.12826 -0.01972,-0.25672 -0.02945,-0.38499 -0.262136,-0.0992 -0.610816,-0.2144 -1.050582,-0.34313 -1.355905,-0.39691 -4.158456,-0.86205 -5.105632,-0.87436 z m 31.355192,0.18035 c -0.03287,0.154 -0.08401,0.31963 -0.151928,0.50023 -0.131641,0.34998 -0.221229,0.4349 -0.489893,0.19275 -0.01919,0.13946 -0.03848,0.27855 -0.05736,0.41703 -0.06351,0.14773 -0.09638,0.27395 -0.103353,0.38137 0.09518,0.0921 0.241384,0.27448 0.412378,0.51831 0.1547,0.0461 0.343471,0.0668 0.549321,0.0734 3.4e-5,-0.002 -3.3e-5,-0.005 0,-0.007 -0.143222,-0.0811 -0.211682,-0.59747 -0.07752,-1.42627 -0.02376,-0.21698 -0.05134,-0.43365 -0.08165,-0.64957 z m -17.81545,1.13791 c -1.497918,0.95479 -2.896596,1.87961 -3.186885,2.13837 -0.164867,0.14694 -0.218703,0.27206 -0.119373,0.27906 0.131595,0.009 1.646355,-0.93536 3.274736,-1.9973 0.01052,-0.14003 0.021,-0.28009 0.03152,-0.42013 z m 21.894271,0.29973 c -0.02755,0.15917 -0.03466,0.30153 0.01499,0.39739 0.02879,-0.13357 0.02151,-0.28225 -0.01499,-0.39739 z m -36.561076,0.63355 c -0.623423,0.029 0.610914,0.44437 2.635498,0.84956 2.636523,0.5276 4.172977,0.65619 3.882967,0.32504 -0.160279,-0.1829 -4.789873,-1.05986 -6.134509,-1.1622 -0.167981,-0.0128 -0.294895,-0.0166 -0.383956,-0.0124 z m 49.606275,0.40101 c -0.02857,0.22391 -0.08383,0.44633 -0.130742,0.6289 l 0.0041,0.002 c 0.178069,-0.15422 0.369966,-0.29878 0.572575,-0.42995 -0.01561,-0.007 -0.03097,-0.0145 -0.04651,-0.0217 -0.133896,-0.0624 -0.26773,-0.12257 -0.399458,-0.17932 z m -10.651547,0.94413 c -0.570508,0.35261 -1.127944,0.71431 -1.588016,1.03456 -0.133254,0.25028 -0.353336,0.43711 -0.63097,0.46199 -0.08665,0.068 -0.163753,0.13162 -0.22996,0.18965 -0.0749,0.0657 -0.142594,0.12639 -0.203605,0.1819 -0.01603,0.10316 -0.03018,0.20667 -0.04186,0.31058 0.403425,-0.2196 1.143089,-0.68634 2.214852,-1.39785 0.14352,-0.26968 0.303175,-0.53055 0.479557,-0.78083 z m -31.484383,0.0884 c -0.42202,0.26507 -0.86202,0.54493 -1.288293,0.81959 -0.571511,0.36824 -1.070618,0.68259 -1.508435,0.94775 0.01644,0.19452 0.02408,0.38934 0.02532,0.58446 0.393346,-0.24026 0.832558,-0.51742 1.326017,-0.83303 0.472823,-0.30241 0.981475,-0.62328 1.490349,-0.94051 -0.01501,-0.19277 -0.03016,-0.38547 -0.04496,-0.57826 z m 6.297807,0.0145 c -0.07663,-0.002 -0.153412,0.004 -0.23151,0.0171 -0.161696,0.0271 -0.863659,0.46684 -1.79524,1.09812 0.240574,0.0507 0.48016,0.10896 0.71882,0.1726 0.430617,-0.2831 0.727529,-0.45202 0.817521,-0.45114 0.143336,0.002 0.101819,0.28078 -0.08165,0.66146 0.301613,0.0909 0.601876,0.18583 0.901237,0.27906 -0.139474,-0.26854 -0.161307,-0.45608 -0.08527,-0.60048 0.04712,-0.0895 0.112026,-0.13408 0.196887,-0.13075 0.05614,0.002 0.121201,0.0251 0.195337,0.0698 0.02171,-0.28892 0.0434,-0.5777 0.06511,-0.86662 -0.244262,-0.16774 -0.47137,-0.2436 -0.701249,-0.24908 z m 28.755351,0.18294 c -0.12662,0.10859 -0.241324,0.2295 -0.345716,0.35967 l 0.08837,0.0377 c 0.128775,0.0554 0.241372,0.10551 0.341065,0.15503 0.04462,-0.14065 0.07871,-0.28446 0.100252,-0.43202 -0.06319,-0.048 -0.124908,-0.0882 -0.183968,-0.1204 z m -15.06213,0.73535 c 0.127434,0.19224 0.248743,0.37899 0.361218,0.55604 0.01331,-0.31383 -0.102428,-0.48071 -0.361218,-0.55604 z m -9.337931,0.21239 c -0.03792,0.23413 -0.07591,0.46857 -0.113172,0.7028 0.07011,0.0666 0.138145,0.13355 0.204122,0.20154 0.08314,-0.1666 0.173101,-0.33388 0.269751,-0.49868 z m 32.696712,0.21343 c -0.27608,0.15092 -0.542144,0.33232 -0.786515,0.53847 0.383792,0.41351 0.778062,0.85157 1.189591,1.31929 0.0052,0.006 0.01026,0.0116 0.0155,0.0176 0.0089,-0.0109 0.01806,-0.0215 0.02687,-0.0325 0.158439,-0.24233 0.329375,-0.5617 0.427881,-0.88987 -0.08218,-0.0908 -0.163851,-0.18045 -0.244947,-0.26872 z m -19.423104,0.21652 c 3.84e-4,0.0241 0.0012,0.0482 0.0016,0.0724 l 0.03411,-0.0253 z m 6.609933,0.17828 -1.801441,1.3007 c -0.0021,0.22745 0.0024,0.45538 0.01137,0.68265 l 1.513603,-1.05472 c 0.07553,-0.31468 0.16741,-0.62503 0.276469,-0.92863 z m -15.590263,0.20878 c -0.11592,0.15648 -0.223775,0.31887 -0.324011,0.48627 0.110786,0.0378 0.224241,0.0761 0.34003,0.11472 0.242526,0.081 0.467551,0.15625 0.675928,0.22583 9.87e-4,-0.20006 -9.14e-4,-0.40037 -0.0041,-0.59996 -0.223175,-0.0759 -0.453367,-0.15162 -0.687813,-0.22686 z m 10.257255,0.1788 -0.289905,0.21342 c -0.575422,0.42401 -0.838188,0.62757 -0.825789,0.67076 v 5.2e-4 l 5.16e-4,5.2e-4 c 4.7e-5,2.1e-4 -3.4e-5,7.8e-4 0,0.001 l 5.17e-4,5.2e-4 v 5.1e-4 h 5.17e-4 v 5.2e-4 5.2e-4 c 0.02338,0.0239 0.198604,-0.0391 0.509013,-0.16485 0.139581,-0.0565 0.344688,-0.16935 0.590145,-0.32091 0.0047,-0.13412 0.0097,-0.26846 0.01499,-0.40256 z m 16.966923,0.12971 c -0.104712,0.11241 -0.202981,0.22946 -0.293522,0.3514 0.362658,0.36239 0.795383,0.81863 1.222147,1.29294 0.0011,0.001 0.002,0.002 0.0031,0.004 0.105223,-0.095 0.208512,-0.19208 0.308508,-0.29197 -0.379728,-0.4833 -0.824924,-0.96548 -1.240234,-1.35599 z m -4.776453,0.85059 c -0.121438,0.19018 -0.256661,0.37175 -0.40411,0.54312 0.263308,0.4092 0.564798,0.82642 0.869198,1.19786 0.03303,-0.36677 0.02294,-0.74143 0.0026,-1.11621 -0.148639,-0.19526 -0.30546,-0.40434 -0.467672,-0.62477 z m -45.937248,0.12609 c -0.07204,9.4e-4 -0.0523,0.0867 0.06356,0.26407 0.101703,-0.0263 0.203144,-0.054 0.303858,-0.0837 -0.08377,-0.0581 -0.15813,-0.10369 -0.219108,-0.13281 -0.06688,-0.0319 -0.116649,-0.0479 -0.148312,-0.0475 z m 5.79913,0.0894 c -0.02158,0.0127 -0.04284,0.0251 -0.06408,0.0377 -0.0029,0.0452 -0.0057,0.0902 -0.0088,0.1354 0.02269,-0.0591 0.04681,-0.11655 0.07286,-0.17312 z m 6.243546,0.062 c -0.0047,0.14779 -0.0097,0.2956 -0.01447,0.44339 0.34425,-0.20977 0.632099,-0.35376 0.882117,-0.4408 -0.03927,-0.001 -0.07855,-0.002 -0.117823,-0.003 z m 44.101701,0.078 c -0.108867,0.26249 -0.244728,0.51156 -0.406693,0.74053 0.08986,0.13245 0.174718,0.25782 0.254248,0.3762 0.216021,0.0206 0.455586,0.0453 0.558622,0.14831 0.387955,0.14033 0.705346,0.37074 0.95188,0.65888 -0.242685,-0.4968 -0.577401,-1.00382 -0.98392,-1.46761 -0.112196,-0.12801 -0.23928,-0.28334 -0.374137,-0.45631 z m -42.013456,0.0264 c 0.03012,0.0186 0.06018,0.0385 0.09043,0.0594 0.259279,0.179 0.749678,0.65494 1.320849,1.25677 0.0031,-0.20424 0.006,-0.40837 0.0083,-0.61289 -0.162288,-0.18573 -0.306571,-0.35466 -0.433565,-0.50797 -0.324938,-0.0832 -0.654117,-0.14784 -0.985986,-0.19534 z m 35.872746,0.008 c -0.02464,0.29027 -0.03612,0.57939 -0.03721,0.86713 0.898779,0.90964 1.498285,1.55278 1.828829,1.98954 0.115704,-0.16749 0.244995,-0.3265 0.387056,-0.47542 -0.124229,-0.1554 -0.264649,-0.3227 -0.421163,-0.50281 -0.41591,-0.15068 -0.820655,-0.34084 -1.240234,-0.47749 0.143367,-0.13852 0.292687,-0.27177 0.4439,-0.40308 -0.303529,-0.32458 -0.627035,-0.66009 -0.961181,-0.99787 z m -21.198706,0.14469 c -0.291445,0.20234 -0.63896,0.43018 -1.014926,0.66663 -0.0065,0.20079 -0.01041,0.40168 -0.01085,0.60254 0.335277,-0.2056 0.671617,-0.4172 1.002006,-0.63097 0.01069,-0.21232 0.01802,-0.42529 0.02377,-0.6382 z m -6.393409,0.53537 c -0.02433,0.0896 -0.04824,0.18126 -0.0708,0.27388 0.06851,0.006 0.141406,0.0134 0.218591,0.0212 l 1.061434,0.10645 -0.946712,-0.30127 c -0.08757,-0.0279 -0.174779,-0.0613 -0.262517,-0.10025 z m 21.719088,0.58808 c -0.0968,0.0503 -0.194967,0.0971 -0.295072,0.14004 -0.108227,0.23587 -0.226142,0.63593 -0.325562,1.18959 -0.06209,0.34585 -0.09906,0.6349 -0.111104,0.86351 0.16307,0.0502 0.333841,0.0771 0.507462,0.0827 0.07323,-0.30389 0.149643,-0.72851 0.207223,-1.17668 0.07304,-0.56847 0.06794,-0.9309 0.01705,-1.09915 z m -5.595524,0.0847 c -0.02298,0.0771 -0.046,0.15955 -0.06873,0.24701 -0.182892,0.70366 -0.406053,1.34385 -0.496093,1.42265 -0.137282,0.12033 -0.309449,0.025 -0.466122,-0.19327 0.0085,0.19211 0.0169,0.38908 0.08733,0.54209 0.07618,0.0648 0.152998,0.12711 0.228927,0.18552 0.540069,-0.42434 0.609996,-1.26758 0.714685,-1.91823 -0.0013,-0.0951 -0.0013,-0.19038 0,-0.28577 z m 6.815088,0.23357 c -0.09447,0.007 -0.316061,0.43161 -0.497127,0.95395 -0.131226,0.37858 -0.19884,0.69232 -0.206189,0.90796 0.182833,-0.0518 0.361742,-0.12324 0.531233,-0.21136 0.187445,-0.61419 0.331895,-1.64042 0.176217,-1.65055 -0.0014,-9e-5 -0.0026,-1.1e-4 -0.0041,0 z m -11.782227,0.0904 c -0.239956,0.0685 -0.557208,0.2002 -0.935343,0.38654 0.01422,0.18349 0.02971,0.36693 0.04651,0.54932 0.02503,-0.0139 0.05143,-0.0283 0.07906,-0.0429 0.314804,-0.166 0.519636,-0.27608 0.68833,-0.28319 0.01101,-4.7e-4 0.02184,-4.2e-4 0.03256,0 0.03476,-0.20282 0.064,-0.40604 0.08888,-0.60978 z m 9.157064,0.0362 c -0.134021,0.0169 -0.268935,0.0266 -0.405143,0.0295 -0.03457,0.12772 -0.06917,0.25499 -0.102836,0.38085 0.08797,0.23679 0.200553,0.46478 0.331246,0.6811 0.06845,-0.34523 0.128659,-0.7139 0.176733,-1.09141 z m -14.04307,0.19689 c -0.253995,0.14967 -0.551533,0.33065 -0.875399,0.53175 0.0035,0.0604 0.0072,0.12048 0.01137,0.18087 -0.01685,0.0761 -0.02242,0.16887 -0.0186,0.26561 0.295814,-0.19109 0.570064,-0.37141 0.81132,-0.5333 0.02739,-0.14767 0.05118,-0.29597 0.07131,-0.44493 z m -6.509681,0.59066 c 0.02938,0.37271 0.126826,0.73105 0.328663,1.05006 0.01688,0.009 0.03361,0.0176 0.05064,0.0258 0.330362,-0.0291 0.610585,-0.24333 0.839742,-0.50798 -0.454862,0.0198 -0.851218,-0.16194 -1.219048,-0.56792 z m -16.149918,0.33538 c -0.158477,0.18054 -0.292172,0.35645 -0.40566,0.5333 0.0032,0.39796 0.01246,0.80751 0.01499,1.1591 0.02305,0.79842 0.05307,1.59622 0.0925,2.39314 0.166996,0.26678 0.322917,0.53197 0.453202,0.77514 v 5.2e-4 c 0.453669,0.84678 1.20211,1.97272 1.663465,2.50166 0.209496,0.24038 0.348596,0.38965 0.412894,0.4346 0.01274,-0.006 0.02538,-0.0129 0.03772,-0.0196 -0.02927,-0.12133 -0.288902,-0.57502 -0.803052,-1.42679 -0.655002,-1.08511 -1.314516,-2.28919 -1.465543,-2.67529 -0.459207,-1.17444 0.380139,-0.10122 1.312581,1.67794 0.417834,0.79721 0.832785,1.46014 1.254187,1.99523 0.105078,-0.33355 0.181079,-0.67254 0.235128,-1.01493 -0.442558,-0.57025 -0.86478,-1.21699 -1.204578,-1.8712 l -0.633036,-1.21853 1.910994,0.0155 c -0.0096,-0.18445 -0.02012,-0.36866 -0.02997,-0.55191 -0.11225,0.002 -0.222359,0.005 -0.330212,0.008 -2.809167,0.0859 -3.174981,-0.0333 -0.842326,-1.94923 -0.309028,0.003 -0.621581,-0.0656 -0.907955,-0.19482 -0.597055,0.38786 -0.763248,0.41591 -0.582394,0.13591 0.0438,-0.0678 0.138583,-0.17172 0.275436,-0.30438 -0.171462,-0.11226 -0.327118,-0.24788 -0.45837,-0.40359 z m 44.055192,0.0382 c 0.04174,0.45539 0.08783,0.91204 0.124023,1.37253 2.83e-4,0.0451 0.0015,0.0901 0.0036,0.13487 0.162431,-0.0401 0.328738,-0.055 0.51263,-0.0496 v 0.001 c 0.08575,0.002 0.175543,0.009 0.270268,0.0202 0.05547,0.006 0.107766,0.0123 0.156579,0.0181 0.05779,-0.26322 0.138639,-0.52076 0.242879,-0.76843 -0.02832,-0.005 -0.05742,-0.01 -0.08733,-0.0155 -0.567933,-0.10549 -0.91917,-0.30494 -1.222664,-0.71313 z m -38.141341,0.33796 c -0.006,0.18692 -0.01211,0.37378 -0.01809,0.56069 1.162901,0.08 2.563677,0.12962 3.553788,0.12196 0.0062,-0.1504 0.01219,-0.30064 0.01757,-0.45114 -0.972747,-0.12795 -2.356349,-0.22396 -3.553271,-0.23151 z m 43.483134,0.30386 c -0.0085,0.004 -0.01599,0.01 -0.02429,0.0139 0.0072,0.0103 0.03607,0.0428 0.04289,0.0527 -0.0062,-0.0221 -0.01047,-0.044 -0.0186,-0.0667 z m -36.754863,0.85266 c 0.0095,0.21898 0.02274,0.4374 0.04031,0.65578 0.112728,0.16128 0.195525,0.29332 0.240295,0.38705 l 0.33228,0.69557 -0.399976,0.33951 c 0.04608,0.28283 0.09925,0.56421 0.159164,0.84439 0.263539,-0.23059 0.503386,-0.44464 0.717785,-0.64078 -0.534707,-0.55947 -0.836358,-1.34665 -0.98857,-2.13889 -0.03167,-0.0456 -0.06544,-0.0929 -0.101286,-0.14263 z m 32.407841,0.42323 c -0.196149,0.0863 -0.458865,0.20744 -0.763261,0.3514 0.05316,0.25633 0.119061,0.51033 0.179834,0.76481 0.193798,-0.1126 0.378823,-0.22174 0.552938,-0.32659 -0.01202,-0.26355 -0.0019,-0.52819 0.03049,-0.78962 z m -39.195023,0.80202 c -0.0012,0.17084 -0.01023,0.345 -0.0217,0.5209 1.774687,-0.003 3.114273,-0.0615 3.121256,-0.14366 0.01247,-0.14695 -1.408627,-0.29805 -3.099552,-0.37724 z m 22.092191,0.19689 c -0.145391,0.17941 -0.297737,0.35355 -0.45837,0.51935 0.267571,0.53021 0.548232,1.12543 0.835608,1.77456 0.0206,0.0465 0.04246,0.0939 0.06511,0.14211 0.212664,-0.0451 0.423745,-0.0922 0.628386,-0.15037 -0.04249,-0.0996 -0.08329,-0.20095 -0.122473,-0.30438 -0.192196,-0.50733 -0.54906,-1.24163 -0.948263,-1.98127 z m -4.845699,0.11007 c -0.10078,0.11931 -0.20479,0.23626 -0.312125,0.34985 l 0.676961,0.13384 c -0.09656,-0.14564 -0.176241,-0.30342 -0.234094,-0.47077 z m 9.429399,0.27905 c -0.07088,0.088 -0.144756,0.17355 -0.221692,0.2558 1.47477,1.95734 2.566807,3.27557 2.215885,2.62413 -0.09056,-0.16813 -0.92322,-1.36881 -1.994193,-2.87993 z m 1.722892,0.31574 c 1.647937,2.51114 2.325854,3.03496 3.485059,2.78536 0.436304,-0.0939 1.82913,-0.74898 3.380672,-1.54874 -0.345008,0.0184 -0.689785,0.0314 -1.034562,0.0393 -0.243785,0.0251 -0.447138,-0.0626 -0.587561,-0.20878 -0.506118,0.48953 -1.880137,1.26318 -2.467033,1.26608 -0.705627,0.003 -1.760921,-0.98315 -1.603003,-1.4981 0.0074,-0.0242 0.02172,-0.051 0.04237,-0.0806 -0.439203,-0.17802 -0.850209,-0.43899 -1.215946,-0.75448 z m -7.183541,0.20774 c -0.115832,0.0981 -0.236196,0.19139 -0.361218,0.27854 -4.32e-4,3.8e-4 -6.01e-4,6.6e-4 -0.001,0.001 0.499868,0.0749 0.823439,0.10582 0.86403,0.078 2.99e-4,-2.4e-4 0.0013,-0.001 0.0016,-0.002 2.2e-4,-2.5e-4 0.0014,-0.001 0.0015,-0.002 1.41e-4,-2.7e-4 4.16e-4,-0.001 5.17e-4,-0.002 6e-5,-2.9e-4 -2.1e-5,-7.3e-4 0,-0.001 0.0065,-0.0984 -0.185084,-0.22233 -0.505396,-0.35192 z m 18.216976,0.23048 c -0.120535,0.0917 -0.181992,0.14635 -0.186552,0.16485 -4.4e-5,2.8e-4 1.5e-5,7.7e-4 0,0.001 v 5.2e-4 5.2e-4 5.1e-4 l 5.17e-4,5.2e-4 c 4.8e-5,2.2e-4 -2.3e-5,7.8e-4 0,0.001 l 5.17e-4,5.2e-4 5.16e-4,5.2e-4 5.17e-4,5.1e-4 h 5.17e-4 c 0.0164,0.006 0.08947,-0.0232 0.216524,-0.0837 -0.01118,-0.0288 -0.02199,-0.0578 -0.03256,-0.0868 z m -13.639477,0.0677 c -0.208114,0.13804 -0.431772,0.25259 -0.672311,0.33693 l -0.0026,0.001 c 0.133744,0.17874 0.267004,0.35438 0.398426,0.52503 2.412744,3.13328 2.246428,2.85866 1.783353,2.93626 -0.213502,0.0356 -0.577845,-0.27897 -0.878499,-0.76016 -0.305868,-0.48914 -0.60303,-0.74348 -0.734322,-0.62839 -0.10577,0.0927 -0.401288,-0.12605 -0.774113,-0.55862 -0.0292,0.22763 -0.05861,0.45527 -0.08837,0.68316 0.187569,0.18605 0.360906,0.2925 0.502812,0.30179 0.242822,0.0162 0.551962,0.15484 0.686263,0.30851 0.197795,0.22568 0.118231,0.29964 -0.415479,0.38654 -0.265519,0.0432 -0.56384,-0.0579 -0.867647,-0.27337 -0.03846,0.2998 -0.07646,0.59989 -0.112138,0.90021 0.172454,-0.0769 0.289545,-0.12324 0.334347,-0.13075 0.03239,-0.005 0.06304,-0.008 0.0925,-0.01 0.441972,-0.0197 0.547952,0.40212 0.105419,0.61598 -0.121244,0.0586 -0.350179,0.19028 -0.625284,0.3576 -0.05576,0.53872 -0.10194,1.07832 -0.132292,1.61902 0.988968,-0.56435 2.049784,-1.1939 3.110404,-1.85053 1.235115,-0.76466 1.040849,-1.41835 -1.2392,-4.17132 -0.151989,-0.18351 -0.31034,-0.38154 -0.471289,-0.58911 z m -12.375989,0.16743 c -0.391719,0.54677 -0.129371,0.90397 0.491443,1.58078 0.185097,0.20182 0.370714,0.44657 0.538468,0.7028 0.5808,0.74133 0.910507,1.71765 1.138432,2.60087 0.357206,-0.20488 0.746606,-0.36112 1.1498,-0.45371 -0.05811,-0.0324 -0.12242,-0.0677 -0.193269,-0.10646 -0.636633,-0.3486 -0.84949,-0.5851 -0.82734,-0.92087 0.0221,-0.33574 0.33121,-0.36652 1.201477,-0.11989 0.644235,0.18284 1.247663,0.26668 1.341003,0.18758 0.192411,-0.16335 -0.765756,-0.56225 -2.038118,-0.84852 -0.568656,-0.12808 -0.96276,-0.40842 -1.174605,-0.83716 -0.299501,-0.60602 -0.09716,-0.62434 3.354317,-0.30076 1.128942,0.10556 1.911658,0.16957 2.34456,0.18965 0.0491,-0.0347 0.0995,-0.0672 0.150895,-0.0977 -0.449541,-0.10503 -1.506418,-0.29041 -3.179134,-0.56224 -1.437793,-0.23358 -2.835653,-0.32766 -3.106271,-0.20929 -0.729,0.31887 -0.829757,0.0278 -0.359668,-0.53124 -0.292305,-0.0402 -0.576011,-0.13116 -0.83199,-0.27388 z m -4.550627,0.12247 c -0.260292,0.23817 -0.392871,0.38874 -0.370003,0.41341 0.01263,0.0104 0.061,-0.008 0.147794,-0.0584 0.122342,-0.0716 0.264379,-0.1743 0.404627,-0.28991 -0.02113,-0.008 -0.04242,-0.0176 -0.06356,-0.0269 -0.04031,-0.0119 -0.0799,-0.0246 -0.118856,-0.0382 z m 29.64832,0.11214 c -0.04395,0.007 -0.08779,0.0133 -0.131775,0.0196 -0.06517,0.0389 -0.152041,0.10435 -0.255282,0.19482 -0.293899,0.25762 -0.371129,0.41046 -0.172599,0.34106 0.198472,-0.0694 0.438501,-0.27943 0.533301,-0.46715 0.02065,-0.041 0.0289,-0.0703 0.02635,-0.0884 z m -14.748454,0.20981 c -0.05568,0.002 -0.05666,0.0862 0.0021,0.24804 0.0869,-0.0265 0.178149,-0.0469 0.269751,-0.0594 -0.130907,-0.12875 -0.222692,-0.19055 -0.271818,-0.18861 z m -12.461255,0.1018 -0.818555,0.33073 c -0.487358,0.19705 -1.48724,0.80715 -2.651001,1.5844 0.08016,0.21803 0.164558,0.43482 0.253732,0.64957 0.0033,0.008 0.0063,0.0154 0.0093,0.0233 0.09896,-0.032 0.19118,-0.0498 0.278536,-0.0532 0.0558,-0.002 0.109797,0.002 0.162264,0.0119 0.147719,-0.26268 0.314025,-0.51367 0.503846,-0.74776 l -0.02481,-0.0424 0.115238,-0.0656 c 1.59e-4,-1.8e-4 3.59e-4,-3.3e-4 5.17e-4,-5.2e-4 0.156796,-0.18195 0.328806,-0.3528 0.517798,-0.51056 0.60414,-0.34405 1.302733,-0.521 2.008663,-0.555 z m -3.641121,0.26768 c -0.03915,0.002 -0.13602,0.0619 -0.294039,0.18035 0.01879,0.07 0.03769,0.13955 0.05736,0.20929 0.06262,-0.0587 0.10761,-0.10677 0.132291,-0.14262 0.114652,-0.16648 0.151641,-0.24909 0.104387,-0.24702 z m 32.510677,0.24081 c -1.950466,1.24773 -4.23499,2.55349 -6.057512,3.42408 -0.617937,0.29519 -1.164966,0.56228 -1.702738,0.84026 0.156611,0.13284 0.297204,0.28341 0.417545,0.44907 2.200462,-1.10026 4.225054,-2.19963 5.99395,-3.24476 0.172916,-0.51556 0.479576,-0.95392 1.036112,-1.0759 0.173142,0.0212 0.31691,0.0854 0.439767,0.17931 0.0689,-0.0431 0.137277,-0.0858 0.205155,-0.12867 -0.118938,-0.14494 -0.231449,-0.29186 -0.332279,-0.44339 z m -40.047168,0.1292 c 0.0704,0.16119 0.162892,0.31567 0.283703,0.46147 0.0115,0.01 0.02343,0.0197 0.03514,0.0294 0.658634,-0.0571 0.896929,-0.17025 0.74104,-0.34726 -0.10595,-0.1209 -0.557211,-0.16221 -1.059883,-0.14366 z m 36.680448,0.0832 c -0.04479,0.004 -0.12994,0.0542 -0.250631,0.15142 -0.232815,0.18762 -0.314871,0.3486 -0.181901,0.3576 0.132981,0.009 0.323777,-0.14505 0.423747,-0.34158 0.05878,-0.11547 0.05952,-0.17153 0.0088,-0.16744 z m -42.84493,0.43719 c 0.0284,0.4089 0.05946,0.81796 0.09353,1.22628 0.2931,0.37681 0.595371,0.76453 0.906922,1.16427 1.160551,1.48909 2.109991,2.71672 2.890263,3.74137 0.129,-0.11315 0.262477,-0.22136 0.399975,-0.32401 -0.534709,-0.74338 -1.138314,-1.56946 -1.820044,-2.49235 -0.535038,0.19648 -1.08549,-0.40445 -0.738456,-0.92915 -7.5e-4,-0.0231 -2.53e-4,-0.0452 0.001,-0.0661 -0.533934,-0.71843 -1.110661,-1.49016 -1.733228,-2.32027 z m 41.378353,0.47129 c -0.0448,0.004 -0.129934,0.0536 -0.250631,0.15089 v 5.2e-4 c -0.233004,0.18786 -0.31447,0.34808 -0.181384,0.35708 0.132981,0.009 0.32326,-0.14505 0.42323,-0.34158 0.05873,-0.11543 0.05954,-0.17102 0.0088,-0.16691 z m -32.268831,0.38292 c -0.270972,0.20759 -0.521592,0.39046 -0.756027,0.54984 0.128601,0.18473 0.223298,0.3968 0.267168,0.64905 0.05041,-0.4363 0.315846,-0.80485 0.488859,-1.19889 z m 27.974519,0.74104 c -0.04483,0.004 -0.129434,0.0541 -0.250114,0.15141 v -5.2e-4 c -0.233005,0.18786 -0.314974,0.3486 -0.181901,0.3576 0.132958,0.009 0.323787,-0.14506 0.423747,-0.34158 0.05861,-0.11532 0.05904,-0.17104 0.0083,-0.16691 z m -18.568892,0.24494 c -0.06803,0.024 -0.130889,0.0594 -0.188619,0.10439 0.03337,0.0602 0.06694,0.12142 0.100769,0.18294 0.03665,-0.0925 0.0669,-0.18805 0.08785,-0.28733 z m -6.510714,0.20826 c -1.055075,0.75195 -2.09943,1.53315 -2.917651,2.19263 0.366829,-0.0655 0.734554,-0.12642 1.102775,-0.18138 0.617496,-0.47207 1.315662,-0.97394 2.084627,-1.49707 0.206556,-0.14052 0.39567,-0.27034 0.569991,-0.38861 -0.277554,-0.0828 -0.558402,-0.12152 -0.839742,-0.12557 z m 23.944275,0.27699 c -0.172204,-0.0113 -2.925292,1.60608 -5.562451,3.21479 -0.0095,0.15303 -0.02012,0.30652 -0.03049,0.46043 0.335695,-0.20243 0.692065,-0.41703 1.069702,-0.64492 0.919437,-0.55483 1.675186,-1.01443 2.289266,-1.39319 0.315617,-0.26048 0.661601,-0.47981 1.031978,-0.64544 1.153446,-0.73598 1.420794,-0.97724 1.201994,-0.99167 z m -3.399792,0.0191 c 0.04057,-9.6e-4 0.07178,0.009 0.09095,0.0315 0.102818,0.11728 0.01308,0.35336 -0.199471,0.52503 -0.212467,0.17165 -0.650596,0.39791 -0.973584,0.50281 -0.470987,0.1529 -0.431497,0.0488 0.199471,-0.52555 0.351502,-0.31993 0.70685,-0.52966 0.882634,-0.53381 z m -23.787179,0.20412 c -0.04867,-0.003 -0.04874,0.0511 0.02842,0.22014 0.06384,-0.0403 0.128107,-0.0815 0.19327,-0.12299 -0.0982,-0.0487 -0.178749,-0.0948 -0.221692,-0.0971 z m -2.759005,0.13332 c -0.502588,0.009 -1.003696,0.0411 -1.499133,0.10852 0.696503,0.31149 1.438337,0.34566 2.259294,0.12558 l 0.748275,-0.20051 c -0.502066,-0.0273 -1.006191,-0.0423 -1.508436,-0.0336 z m 1.694471,0.0444 -0.63407,0.56275 c -0.410686,0.36479 -0.573744,0.64969 -0.372587,0.65009 0.169893,1.7e-4 1.00898,-0.48278 2.047937,-1.13791 -0.345189,-0.0278 -0.69257,-0.054 -1.04128,-0.0749 z m 10.036596,0.32969 c -0.04888,0.15382 -0.09315,0.30182 -0.136942,0.43047 0.06376,-0.11641 0.136051,-0.22927 0.211356,-0.34107 -0.02496,-0.0301 -0.04986,-0.06 -0.07441,-0.0894 z m -17.390153,0.68936 c 0.0712,0.61427 0.150244,1.22721 0.237712,1.83969 0.607925,0.88293 1.192913,1.72666 1.762166,2.54041 0.141687,-0.27957 0.303638,-0.54863 0.483175,-0.80512 -0.782042,-1.12422 -1.618367,-2.32798 -2.483053,-3.57498 z m 26.160677,0.006 c -0.219428,0.11471 -0.423246,0.22197 -0.613399,0.32091 0.09698,0.15878 0.184561,0.32401 0.26355,0.49299 0.11718,-0.0627 0.23733,-0.12683 0.359668,-0.19172 -0.0029,-0.2074 -0.0062,-0.4148 -0.0098,-0.62218 z m -8.726082,0.12092 c 0.0718,0.099 0.145223,0.19904 0.220142,0.29972 0.0559,0.0751 0.112823,0.1514 0.170532,0.22841 0.194241,-0.0262 0.388664,-0.0524 0.58291,-0.0786 -0.08561,-0.10993 -0.171616,-0.21932 -0.256832,-0.32711 -0.100778,-0.0136 -0.201446,-0.0269 -0.302307,-0.0398 -0.168926,-0.0481 -0.304818,-0.0776 -0.414445,-0.0827 z m 1.788521,0.26458 c 0.01414,0.0234 0.02819,0.0469 0.04237,0.0703 0.08899,-0.0118 0.178168,-0.0234 0.267167,-0.0351 -0.103253,-0.0108 -0.206473,-0.0228 -0.309542,-0.0351 z m 0.715719,0.0315 c -0.05715,-7.5e-4 -0.130364,0.006 -0.222725,0.0227 -0.266661,-0.0976 -0.114418,0.333 -0.132292,0.53279 0.06447,0.10316 0.128494,0.205 0.192753,0.30592 0.01353,-0.0389 0.0283,-0.0806 0.04341,-0.12557 0.131253,-0.3325 0.518902,-0.73062 0.118856,-0.73588 z m 3.678328,0.90848 c -0.07825,0.001 -0.300498,0.35703 -0.387056,0.50901 -0.105766,0.18184 -0.145969,0.26634 -0.143661,0.28525 6.2e-5,2.8e-4 4.32e-4,0.001 5.17e-4,0.002 l 5.17e-4,5.2e-4 v 5.2e-4 l 5.17e-4,5.1e-4 5.17e-4,5.2e-4 5.16e-4,5.2e-4 c 2.19e-4,3e-5 0.0013,0 0.0016,0 0.0486,-0.006 0.464082,-0.59038 0.533817,-0.79737 -0.0022,-7.2e-4 -0.0047,-0.001 -0.0072,-0.001 z m 12.667444,0.18655 c -0.01781,0.0122 -0.03527,0.0246 -0.05271,0.0372 0.01755,-0.0107 0.03484,-0.0215 0.05219,-0.032 z m -4.507218,0.91932 c -0.0146,0.007 -0.02898,0.0139 -0.04341,0.0207 -0.449971,0.21118 -1.064236,0.56628 -1.804541,1.03973 -0.01376,0.22263 -0.02658,0.44575 -0.03721,0.6687 0.551812,-0.3495 1.087406,-0.66774 1.590083,-0.94362 0.06794,-0.20896 0.145264,-0.41581 0.233578,-0.62011 0.01967,-0.0552 0.03998,-0.11061 0.0615,-0.16537 z m -14.846639,0.75034 c -0.0045,0.19565 -0.007,0.39059 -0.0083,0.5855 0.476112,0.222 0.87855,0.42569 1.207161,0.61133 0.102182,-0.12821 0.23079,-0.23162 0.385506,-0.29766 0.15752,-0.0208 0.302031,-0.0636 0.414962,-0.14004 -0.141971,-0.13696 -0.264541,-0.27083 -0.382922,-0.42168 -0.400776,-0.0579 -0.800649,-0.24782 -1.210262,-0.32194 -0.003,0.16365 -0.143646,0.13567 -0.406177,-0.0155 z m -5.182113,0.0796 c -0.01016,0.0614 -0.02052,0.12247 -0.03049,0.18396 0.253024,0.13114 0.693457,0.29346 1.231966,0.46458 0.0088,-0.14346 0.0187,-0.28673 0.03049,-0.42944 -0.5508,-0.11904 -0.98051,-0.19543 -1.231966,-0.2191 z m -4.594551,0.31264 c -0.04957,0.0504 -0.09854,0.10097 -0.147278,0.15244 0.09234,0.0498 0.27673,0.12063 0.531234,0.20619 -0.0014,-0.10886 -0.0033,-0.21794 -0.0062,-0.32763 -0.149106,-0.022 -0.277919,-0.0321 -0.377754,-0.031 z m -0.430982,0.46457 c -0.142589,0.16373 -0.279888,0.33254 -0.409794,0.50643 0.24066,0.39271 0.621418,0.86296 1.146183,1.47846 0.02545,-0.26684 0.0442,-0.53495 0.05736,-0.8046 -0.462789,-0.58026 -0.698701,-0.92346 -0.79375,-1.18029 z m 24.521501,0.0713 c -0.430882,0.28879 -0.890409,0.59777 -1.381828,0.92966 -0.0046,0.27092 -0.0048,0.54141 0.0015,0.81081 0.369841,-0.26046 0.720246,-0.50879 1.046965,-0.7426 0.05837,-0.0418 0.116939,-0.0837 0.1757,-0.12557 0.04431,-0.29268 0.09533,-0.58368 0.157613,-0.8723 z m -4.988326,0.0455 c -0.565834,0.3685 -0.95522,0.63669 -1.068669,0.74414 -0.07398,0.0701 -0.137408,0.13121 -0.184485,0.18035 v 0.1111 c 0.154632,-0.0615 0.522107,-0.26365 1.210262,-0.66714 -8.34e-4,-0.0227 -0.0017,-0.045 -0.0026,-0.0677 0.03816,-0.11987 0.05167,-0.21884 0.04547,-0.30075 z m -14.696261,0.34158 c -0.02516,0.18334 -0.04877,0.36708 -0.0708,0.55087 0.477431,0.1226 0.949306,0.24043 1.391646,0.34727 0.0082,-0.17618 0.0154,-0.35248 0.02274,-0.52865 -0.419514,-0.12179 -0.872371,-0.24647 -1.343587,-0.36949 z m 5.364531,0.004 c 0.0018,0.14116 0.0045,0.28231 0.0078,0.42323 0.353278,0.0685 0.667575,0.12065 0.918807,0.15089 0.01138,-0.0925 0.03093,-0.18378 0.05839,-0.27182 -0.257725,-0.0851 -0.593448,-0.18807 -0.984952,-0.3023 z m -10.929566,0.50488 c -0.08056,0.12684 -0.156517,0.25631 -0.227893,0.38809 0.729241,1.05122 1.107389,1.71286 1.351339,2.28823 l 0.001,-5.2e-4 c 0.02029,0.0478 0.04032,0.0946 0.05995,0.14056 0.0019,-0.007 0.0038,-0.0133 0.0057,-0.0202 0.04428,-0.20393 0.08363,-0.4083 0.118856,-0.61237 -0.305738,-0.59436 -0.72693,-1.29915 -1.308964,-2.18384 z m 12.055078,1.01699 c -0.318765,0.15241 -0.677359,0.3329 -1.053165,0.52968 0.01205,0.21938 0.02558,0.43895 0.03979,0.65836 0.594395,-0.31322 1.198025,-0.61312 1.705839,-0.8506 -0.116945,-0.0443 -0.276361,-0.0632 -0.463538,-0.0956 -0.09032,-0.0666 -0.166682,-0.14864 -0.228927,-0.24184 z m 8.184514,0.047 c -0.198461,0.14699 -0.399863,0.29698 -0.603581,0.4501 -0.210987,0.15859 -0.42045,0.31515 -0.627869,0.46974 v 0.0796 c -0.02572,-0.007 -0.05128,-0.0148 -0.077,-0.0222 -0.874669,0.6512 -1.716449,1.2664 -2.520259,1.84175 0.01006,0.24199 0.02179,0.48374 0.03566,0.72554 1.277361,-0.91446 2.569033,-1.88044 3.79305,-2.8453 -4.76e-4,-0.2332 3e-5,-0.46613 0,-0.69919 z m -3.763078,0.37621 c -0.04168,0.0184 -0.07593,0.0466 -0.100252,0.0873 0.03446,-0.0296 0.06789,-0.0586 0.100252,-0.0873 z m -3.517615,0.20102 c -0.09267,0.0543 -0.188474,0.10903 -0.286804,0.16381 -0.49108,0.2736 -1.102595,0.56345 -1.605587,0.76843 0.01254,0.18044 0.02567,0.36092 0.03927,0.54157 0.584711,-0.24358 1.214733,-0.53142 1.778186,-0.8139 0.0063,-0.10277 0.01244,-0.20529 0.0186,-0.30799 0.04284,-0.14847 0.06034,-0.26279 0.05633,-0.35192 z m -13.823445,0.71778 c -0.102376,0.688 -0.07651,1.41691 0.453202,1.87224 0.26336,0.0199 0.508673,-0.056 0.726054,-0.19275 -0.341099,-0.48365 -0.737483,-1.04851 -1.179256,-1.67949 z m 21.109822,0.13385 c -0.328861,0.22394 -0.667949,0.45541 -1.018026,0.69401 -0.873592,0.59541 -1.811637,1.22978 -2.75332,1.86294 0.01836,0.2735 0.03963,0.54688 0.06304,0.8201 1.261228,-0.84769 2.529586,-1.70759 3.734656,-2.53214 -0.0136,-0.28111 -0.02178,-0.56286 -0.02635,-0.84491 z m -7.42797,0.85162 c -0.552676,0.36576 -1.095031,0.71709 -1.609721,1.04335 0.01153,0.1373 0.0234,0.27476 0.03514,0.41238 -1.78e-4,0.0883 0.0029,0.1761 0.0088,0.26355 0.500237,-0.30548 1.010675,-0.62589 1.511536,-0.94981 0.01919,-0.2565 0.03702,-0.51299 0.05426,-0.76947 z m -11.318689,3.02153 c -0.09468,0.0655 -0.189862,0.13993 -0.286288,0.21962 0.50147,0.67209 1.008509,1.34528 1.527039,2.02778 l 5.17e-4,-5.1e-4 c 2.032395,2.67508 3.244177,3.97277 3.585827,3.83956 0.433131,-0.16883 2.841524,-1.70009 5.892147,-3.70831 0.05675,-0.31993 0.108588,-0.64065 0.156063,-0.96221 -1.036354,0.68336 -1.930125,1.26568 -2.556433,1.66398 l -3.389457,2.15542 -1.522388,-1.68155 c -0.405953,-0.44843 -0.973103,-1.12333 -1.566829,-1.85725 -0.849432,-0.21269 -1.591177,-0.80167 -1.840198,-1.69653 z m 11.038086,0.17725 c -0.31008,0.20197 -0.609316,0.39374 -0.897103,0.57464 0.03902,0.22587 0.06622,0.45283 0.07235,0.68264 0.236162,-0.14812 0.478093,-0.30182 0.724503,-0.46043 0.03596,-0.26526 0.06937,-0.53082 0.100253,-0.79685 z m -6.943762,1.15755 c -0.06242,0.004 -0.165205,0.0564 -0.325045,0.17725 -0.09344,0.0458 -0.189012,0.0858 -0.286804,0.11989 0.0177,0.046 0.03712,0.0915 0.05839,0.13591 l -5.17e-4,5.1e-4 c 0.668575,1.39369 1.445274,2.06117 2.263945,1.94614 0.617536,-0.0868 2.064755,-0.8359 3.912939,-1.97146 -0.486229,0.0485 -0.97334,0.0914 -1.460376,0.13074 -1.196917,0.66274 -2.041069,1.0071 -2.447912,0.9803 -0.387801,-0.0256 -0.683032,-0.21076 -1.08934,-0.7245 -0.239238,0.0175 -0.478654,0.0356 -0.717785,0.0543 0.07022,-0.35247 0.296389,-0.86126 0.0925,-0.84904 z" /></g></svg>
