<?xml version="1.0" encoding="UTF-8" standalone="no"?>
<!-- Created with Inkscape (http://www.inkscape.org/) -->

<svg
   width="74.876686mm"
   height="65.93615mm"
   viewBox="0 0 74.876686 65.93615"
   version="1.1"
   id="svg1"
   xml:space="preserve"
   inkscape:version="1.4.2 (f4327f4, 2025-05-13)"
   sodipodi:docname="mad hatters waffles logo.svg"
   xmlns:inkscape="http://www.inkscape.org/namespaces/inkscape"
   xmlns:sodipodi="http://sodipodi.sourceforge.net/DTD/sodipodi-0.dtd"
   xmlns="http://www.w3.org/2000/svg"
   xmlns:svg="http://www.w3.org/2000/svg"><sodipodi:namedview
     id="namedview1"
     pagecolor="#ffffff"
     bordercolor="#000000"
     borderopacity="0.25"
     inkscape:showpageshadow="2"
     inkscape:pageopacity="0.0"
     inkscape:pagecheckerboard="0"
     inkscape:deskcolor="#d1d1d1"
     inkscape:document-units="mm"
     inkscape:zoom="1.3095539"
     inkscape:cx="204.26804"
     inkscape:cy="109.5793"
     inkscape:window-width="1920"
     inkscape:window-height="974"
     inkscape:window-x="-11"
     inkscape:window-y="-11"
     inkscape:window-maximized="1"
     inkscape:current-layer="layer1" /><defs
     id="defs1" /><g
     inkscape:label="Layer 1"
     inkscape:groupmode="layer"
     id="layer1"
     transform="translate(-21.583075,-117.00127)"><g
       id="g291"
       transform="matrix(1.1986467,1.1637062,-1.1637062,1.1986467,203.06483,-162.5095)"
       style="fill:#d4aa00"><path
         style="fill:#d4aa00;stroke-width:0.641567"
         d="m 77.961439,209.29783 c -2.991184,-0.45353 -5.68086,-0.9351 -9.233071,-1.65308 -2.257956,-0.4564 -5.802893,-1.16145 -7.877641,-1.56678 -2.074747,-0.40534 -4.637808,-0.93224 -5.695689,-1.17091 -1.057886,-0.23867 -2.291566,-0.45277 -2.741509,-0.47582 -0.703255,-0.0361 -0.884978,-0.12048 -1.294604,-0.60204 -0.474734,-0.55808 -0.475693,-0.56533 -0.256431,-1.93712 0.42097,-2.63377 0.639035,-3.25792 1.619451,-4.63513 1.015476,-1.42647 2.077387,-2.43348 2.963775,-2.81061 0.475687,-0.20246 0.581062,-0.34188 0.619669,-0.8203 0.02711,-0.33585 0.244052,-0.82236 0.519814,-1.16563 0.260311,-0.32405 0.485007,-0.73435 0.499323,-0.91174 0.01434,-0.17741 0.137014,-0.69203 0.272647,-1.14361 0.34486,-1.1482 1.245981,-1.97315 3.179641,-2.91092 0.891882,-0.43253 1.817465,-1.01126 2.056854,-1.28606 0.23939,-0.27479 0.617886,-0.56569 0.841108,-0.64639 0.289916,-0.10482 0.445467,-0.32919 0.544515,-0.78524 0.170101,-0.78324 0.649554,-1.35908 1.4174,-1.70235 0.348465,-0.15575 0.629032,-0.42711 0.699482,-0.6764 0.315277,-1.11564 0.415693,-1.22966 1.206131,-1.36951 2.600121,-0.45988 4.884569,-0.69651 5.922472,-0.61303 0.651425,0.0522 1.574001,0.01 2.050156,-0.093 1.070107,-0.23257 1.504225,-0.10647 2.493655,0.72458 0.774168,0.65018 1.590912,0.8935 1.844018,0.54934 0.07229,-0.0982 0.574685,-0.33267 1.116452,-0.52084 0.541756,-0.18824 1.120084,-0.44473 1.285155,-0.57011 0.248148,-0.18846 0.466958,-0.18307 1.263395,0.0316 0.5298,0.1429 1.332422,0.28949 1.783614,0.3259 0.980439,0.0791 1.869446,0.50329 2.083226,0.99401 0.458189,1.05165 -0.417672,5.09011 -2.145709,9.8936 -0.244339,0.67917 -0.722045,2.76972 -1.061575,4.64567 -0.718825,3.97153 -2.561258,12.45673 -2.834829,13.05557 -0.09119,0.19966 -1.152643,0.14768 -3.14089,-0.15378 z m 3.386905,-2.59373 c 0.306339,-1.2866 0.950569,-4.26167 1.431624,-6.61131 1.435683,-7.01231 1.642839,-7.86242 2.441887,-10.02092 0.732063,-1.97752 1.515374,-5.10944 1.628494,-6.51128 0.05055,-0.62645 0.02118,-0.66998 -0.570335,-0.84619 -0.342991,-0.10219 -1.842027,-0.28186 -3.331193,-0.39931 -3.663182,-0.28859 -5.399132,-0.0438 -10.163458,1.43473 -0.960702,0.29819 -2.672684,0.70592 -3.804394,0.90616 -2.654966,0.46972 -3.979813,1.07513 -5.865724,2.68027 -1.669309,1.42078 -2.677557,2.63298 -4.989331,5.99857 -0.88389,1.28681 -2.096915,2.95896 -2.695614,3.71592 -1.730145,2.18743 -2.197149,3.17239 -2.56974,5.41979 -0.245186,1.47888 -0.367211,1.3467 1.664396,1.80287 2.357283,0.52933 19.854382,3.98916 21.707398,4.29237 1.016884,0.1664 2.458659,0.34192 3.203944,0.39003 l 1.355069,0.0873 z m -2.599092,1.42901 c -0.220665,-0.0814 -0.423962,-0.24037 -0.45179,-0.35349 -0.03652,-0.1485 0.177162,-0.15987 0.767531,-0.0412 0.622773,0.12526 0.888095,0.10498 1.111134,-0.0847 0.534149,-0.45437 1.341606,-3.73158 2.08196,-8.44999 0.311928,-1.98797 0.653698,-3.57341 0.925072,-4.29132 0.236703,-0.62622 0.536658,-1.55146 0.666571,-2.05613 l 0.236189,-0.9176 -0.03937,0.76318 c -0.02164,0.41974 -0.283742,1.50979 -0.582392,2.42234 -0.341458,1.04335 -0.650131,2.47221 -0.831646,3.84977 -0.513486,3.89691 -1.542904,8.33506 -2.09943,9.0513 -0.303637,0.39075 -0.915563,0.42775 -1.783806,0.10796 z m -3.957259,-0.71133 c -0.793384,-0.33466 -2.08361,-0.56913 -6.54569,-1.18953 -6.31758,-0.87835 -8.672369,-1.26406 -11.177177,-1.83072 -0.965846,-0.2185 -2.281309,-0.4582 -2.923252,-0.53265 -0.75277,-0.0874 -1.186072,-0.21246 -1.220412,-0.35253 -0.03868,-0.15773 0.227895,-0.19453 0.975996,-0.13432 0.573398,0.0463 1.035338,0.008 1.042937,-0.0862 0.0084,-0.1045 0.887838,-0.0986 2.297822,0.0148 1.256291,0.10136 2.279696,0.24147 2.274234,0.31124 -0.0056,0.0697 -0.979486,0.032 -2.164521,-0.0842 -4.790511,-0.46952 0.04641,0.59745 9.414416,2.07665 6.284212,0.99226 7.964167,1.36692 8.917425,1.98872 0.579852,0.37824 0.30137,0.32145 -0.891822,-0.18184 z m 2.590778,-0.44939 c -0.459447,-0.10994 -1.682056,-0.27507 -2.716915,-0.36679 -2.280562,-0.20217 -2.319224,-0.23734 -2.255253,-2.05371 0.04793,-1.36096 0.798763,-5.35413 1.160871,-6.17388 l 0.21352,-0.48339 2.28189,0.66389 c 1.255042,0.36515 2.743171,0.70158 3.306958,0.74761 1.549013,0.12593 1.662096,0.28961 1.390248,2.00423 -0.310257,1.95685 -1.180139,5.17299 -1.516692,5.60748 -0.295365,0.38133 -0.47778,0.38667 -1.864627,0.0546 z m 1.818768,-0.78202 c 0.26874,-0.64063 0.802749,-2.80015 1.197347,-4.84208 0.180795,-0.93556 0.173841,-0.98388 -0.09911,-0.68919 -0.161456,0.17423 -0.307825,0.4638 -0.325292,0.64334 -0.06519,0.67009 -0.988558,2.97402 -1.297111,3.2365 -0.211134,0.17967 -0.357918,0.57958 -0.430948,1.17433 -0.146787,1.19555 -0.149161,1.1862 0.29379,1.15935 0.277487,-0.0168 0.462067,-0.20717 0.661333,-0.68225 z m -1.426373,0.14043 c 0.07409,-0.18135 0.09924,-0.48343 0.05587,-0.67129 -0.06843,-0.29656 0.789498,-3.22958 1.181686,-4.03981 0.265132,-0.54774 -0.693516,-0.38068 -2.87431,0.50087 -1.169165,0.4726 -2.209796,0.82355 -2.312519,0.77982 -0.195419,-0.0831 2.509798,-1.33135 3.208874,-1.4806 0.573483,-0.12229 0.409314,-0.23022 -1.224458,-0.80407 -2.370089,-0.83246 -2.267778,-0.87068 -2.650396,0.99005 -0.412975,2.00835 -0.53363,3.49352 -0.329646,4.05761 0.156743,0.43341 0.199996,0.446 2.287833,0.66651 1.170442,0.12361 2.216782,0.24861 2.325205,0.2777 0.108434,0.0292 0.25773,-0.0956 0.331837,-0.27681 z m -4.442222,-0.87626 c 1.719671,-1.15948 4.291744,-2.52245 4.268493,-2.26192 -0.01533,0.1722 -4.309515,2.61127 -4.549966,2.58437 -0.09283,-0.01 0.03384,-0.15542 0.281473,-0.32245 z m 3.220573,-2.87037 c 1.073767,-0.60846 1.980036,-1.07366 2.013936,-1.03382 0.15999,0.18805 -3.289614,2.19472 -3.71403,2.16047 -0.138695,-0.0115 0.626331,-0.51819 1.700094,-1.12665 z m 2.834933,-0.35156 c 0.146441,-0.48735 0.234275,-0.92367 0.195206,-0.96959 -0.06347,-0.0747 -0.588709,1.31477 -0.913081,2.41528 -0.106868,0.36257 -0.08577,0.35336 0.164522,-0.0719 0.157913,-0.26824 0.406913,-0.88646 0.55335,-1.37381 z m -0.534229,-1.3734 c 0.613449,-0.0511 1.662314,-0.72253 1.474273,-0.94359 -0.04936,-0.058 -0.635761,-0.16569 -1.303094,-0.23923 -0.667331,-0.0735 -2.063423,-0.4018 -3.102422,-0.72942 -1.038996,-0.32765 -1.929479,-0.56134 -1.978852,-0.51935 -0.04938,0.042 -0.161572,0.32351 -0.249343,0.62561 l -0.159577,0.54922 1.090001,0.30017 c 0.599498,0.16507 1.538108,0.44513 2.085794,0.62237 1.185904,0.38372 1.312957,0.40353 2.143224,0.33422 z m -2.564709,-0.94881 c -0.810493,-0.1312 -1.524674,-0.30282 -1.587065,-0.38141 -0.161324,-0.20325 3.678771,0.3171 4.172047,0.56531 0.362062,0.18221 0.321665,0.19719 -0.351113,0.13021 -0.418111,-0.0417 -1.423375,-0.18298 -2.233871,-0.31414 z m -9.815132,5.06638 c -0.547909,-0.17451 -1.339571,-0.33561 -1.759257,-0.35799 -0.419687,-0.0224 -0.857448,-0.0582 -0.972808,-0.0794 -0.283724,-0.0527 -0.222227,-0.58081 0.111714,-0.95962 0.257084,-0.29163 0.267934,-0.28084 0.197042,0.19623 -0.06492,0.4368 -0.01236,0.51722 0.390532,0.59672 l 0.465557,0.0918 -0.297062,-0.58921 c -0.212937,-0.42237 -0.272522,-0.87659 -0.210379,-1.60402 0.114994,-1.34551 0.857525,-5.36785 1.035737,-5.61018 0.315842,-0.42947 0.943891,-0.41594 2.814124,0.0607 1.037413,0.26436 1.91344,0.45749 1.946725,0.42917 0.03329,-0.0283 -0.704928,-0.28955 -1.640476,-0.58052 -0.935544,-0.29097 -1.886436,-0.60518 -2.113085,-0.69824 -0.371546,-0.15262 -0.376327,-0.16765 -0.04859,-0.15328 0.199892,0.01 1.224799,0.3153 2.277488,0.68125 1.052694,0.36594 2.164657,0.69644 2.471033,0.73446 0.537552,0.0668 0.533046,0.0709 -0.12841,0.12197 l -0.685464,0.0529 0.664572,0.20606 c 0.365507,0.11323 0.740184,0.21865 0.832606,0.23404 0.10499,0.0175 0.0851,0.88343 -0.053,2.30798 l -0.221042,2.27998 0.322855,-0.99575 c 0.177571,-0.54766 0.353442,-1.22318 0.390828,-1.50115 0.04892,-0.36372 0.08421,-0.40943 0.125872,-0.16301 0.07242,0.42786 -0.845635,4.64459 -1.055377,4.84783 -0.08656,0.0837 -0.135151,-0.1068 -0.110874,-0.43471 l 0.04323,-0.58403 -0.327737,0.54891 c -0.660794,1.10672 -1.78352,1.30073 -3.763306,0.65029 -1.142291,-0.37532 -1.950176,-0.48608 -1.263273,-0.17316 0.22585,0.10285 1.010997,0.3449 1.744745,0.53782 1.08737,0.2859 1.193314,0.339 0.572875,0.28718 -0.418682,-0.0348 -1.209502,-0.20638 -1.757409,-0.38089 z m 3.499658,-0.56302 c 0.79352,-0.46547 1.032418,-1.11728 1.255181,-3.42459 l 0.20825,-2.157 -0.432545,-0.1602 c -0.523481,-0.19381 -3.6417,-0.4371 -4.263739,-0.33266 -0.662426,0.11126 -0.849688,0.61835 -1.195416,3.23751 -0.370715,2.80846 -0.309407,2.89586 1.048254,1.4947 1.065417,-1.09957 2.847328,-2.61776 2.939832,-2.50476 0.03623,0.0443 -0.710787,0.82248 -1.660047,1.72937 l -1.725936,1.64885 0.779996,0.25947 c 1.163514,0.38705 2.577475,0.48419 3.04617,0.20926 z m -1.261311,-0.79512 c 0.02303,-0.28527 0.835037,-1.1874 1.052962,-1.1698 0.168505,0.0132 0.05619,0.2228 -0.350529,0.65289 -0.595711,0.62996 -0.718871,0.72058 -0.702433,0.51691 z m -2.03432,-2.56847 c 0.88014,-0.9332 2.577033,-2.29568 2.69152,-2.1611 0.11501,0.13531 -2.853532,2.78665 -3.097833,2.76692 -0.08435,-0.007 0.09846,-0.27943 0.406313,-0.60582 z m -0.795962,-2.56544 c 0.17954,-0.18397 0.195859,-0.37044 0.07563,-0.8652 -0.08424,-0.34687 -0.215693,-0.57119 -0.292103,-0.49847 -0.220887,0.21014 -1.019351,5.51989 -0.91137,6.06055 0.07057,0.35335 0.208446,-0.19647 0.498232,-1.98691 0.230927,-1.4268 0.497616,-2.57482 0.629535,-2.70998 z m 5.783075,-0.18267 c -0.02131,-0.35177 -0.203531,-0.43192 -2.108318,-0.92741 -2.567823,-0.66798 -3.543417,-0.78556 -3.434173,-0.4139 0.05597,0.1904 0.359526,0.28908 1.114931,0.36237 0.775602,0.0753 0.928322,0.12642 0.604097,0.20209 -0.238669,0.0557 -0.688354,0.0883 -0.999266,0.0728 -0.366673,-0.0186 -0.546869,0.0465 -0.512771,0.18511 0.03822,0.15575 0.57746,0.24513 1.988612,0.32962 1.064826,0.0636 2.196969,0.20623 2.515879,0.31675 0.847879,0.29364 0.856471,0.29233 0.831064,-0.12708 z m -11.080232,5.79012 c 0.192577,-0.0649 0.700446,-0.0951 1.128555,-0.0673 1.007177,0.0658 1.245878,-0.17126 1.842235,-1.82327 0.504398,-1.39814 0.824088,-2.02631 0.790134,-1.55256 -0.0099,0.13977 -0.257453,0.92341 -0.549866,1.74162 -0.668823,1.8714 -0.910367,2.06177 -2.438808,1.92212 -0.783806,-0.0712 -1.016754,-0.13812 -0.77225,-0.22064 z m -6.75241,-1.62673 c 0.04343,-0.8208 2.011582,-5.05692 2.337295,-5.03064 0.03596,0.003 -0.192037,0.50179 -0.506585,1.10863 -0.314554,0.60686 -0.824241,1.77273 -1.13264,2.59084 -0.706299,1.87361 -0.729064,1.917 -0.69807,1.33117 z m 4.024758,0.3938 c -2.630864,-0.31282 -3.010496,-0.46699 -2.951455,-1.19867 0.05095,-0.63131 0.61233,-1.83701 1.751021,-3.76069 1.35085,-2.28208 2.374013,-3.64017 2.721362,-3.61213 0.226987,0.0183 0.221241,-0.0249 -0.03459,-0.26086 -0.29605,-0.27215 -0.291898,-0.27874 0.109208,-0.17394 1.821971,0.47622 2.492027,0.71016 2.306233,0.80524 -0.125724,0.0644 0.15788,0.22521 0.685559,0.38883 0.494993,0.15344 1.052021,0.42391 1.237838,0.60093 0.329047,0.3135 0.328963,0.35183 -0.0033,1.47133 -0.187596,0.6322 -0.570188,2.1228 -0.8502,3.31246 -0.618718,2.62865 -0.815646,2.93688 -1.796271,2.81147 -0.391883,-0.0501 -1.820812,-0.22287 -3.175411,-0.38397 z m 3.711654,-0.0132 c 0.34009,-0.17959 0.586541,-0.84082 1.03612,-2.78002 0.232327,-1.00211 0.508883,-2.0959 0.614561,-2.43064 l 0.192147,-0.60865 -1.443703,-0.31246 c -0.794037,-0.17186 -1.616354,-0.34968 -1.82737,-0.39514 -0.296952,-0.064 -0.565102,0.119 -1.186583,0.80948 -1.694717,1.88313 -3.419258,4.70437 -3.044226,4.98018 0.09418,0.0692 1.027687,0.18956 2.074474,0.26727 1.046807,0.0775 2.120248,0.22578 2.385473,0.32899 0.622266,0.24212 0.93741,0.27916 1.199112,0.14092 z M 59.181037,201.521 c 0.620157,-0.5167 2.974231,-2.07017 3.119326,-2.05845 0.262627,0.0213 -0.451128,0.60671 -1.803431,1.47943 -1.186797,0.76588 -1.935689,1.09542 -1.315895,0.57902 z m -0.509186,-2.50784 c 0.938977,-0.77475 1.794019,-1.399 1.900091,-1.38723 0.214385,0.0234 -2.229659,2.00314 -3.071548,2.48757 -0.294672,0.16962 0.23248,-0.32558 1.171457,-1.10034 z m -0.226906,1.3541 c 0.110791,-0.22932 1.814056,-1.43014 2.668707,-1.88144 1.410224,-0.74469 1.30817,-0.40331 -0.137788,0.46096 -0.773032,0.46204 -1.614779,1.00719 -1.87055,1.21144 -0.465621,0.37183 -0.788366,0.47402 -0.660369,0.209 z m -2.010976,-0.36242 c 0.471961,-0.76143 1.133077,-1.72849 1.469143,-2.14906 0.336065,-0.42055 0.530273,-0.72329 0.431568,-0.67277 -0.33655,0.17225 -0.155606,-0.21463 0.409495,-0.8755 0.561175,-0.65628 0.750372,-1.15856 0.445663,-1.18317 -0.370718,-0.03 -2.985691,4.27629 -3.647656,6.00674 -0.24246,0.63382 -0.04318,0.38214 0.891787,-1.12624 z m 3.19256,-4.07971 c 0.01615,-0.20108 -0.335014,0.0755 -0.742665,0.58466 l -0.412311,0.51504 0.573304,-0.49797 c 0.315315,-0.27387 0.577068,-0.54467 0.581672,-0.60173 z m 4.058796,0.31952 c 0.03183,-0.33358 -3.712871,-1.70077 -3.996824,-1.45923 -0.09543,0.0813 0.307441,0.26249 0.971916,0.43737 1.246946,0.3282 2.095303,0.79043 0.939907,0.51212 -0.36751,-0.0885 -0.924994,-0.24922 -1.23885,-0.35713 -0.694484,-0.23872 -0.824847,-0.15954 -0.478995,0.29056 0.183895,0.23938 0.603889,0.40323 1.404528,0.54787 0.628198,0.11356 1.358365,0.28476 1.622589,0.38059 0.471576,0.17103 0.737325,0.0506 0.775729,-0.35215 z m -0.736385,5.82426 c 0.214383,-0.9169 0.819475,-2.54022 0.90806,-2.43607 0.123235,0.14488 -0.654773,2.84762 -0.868532,3.01729 -0.164841,0.1307 -0.174063,-0.007 -0.03952,-0.58122 z m 9.622151,-3.48099 c 0.03379,-0.41877 0.08063,-0.58741 0.10405,-0.37478 0.02337,0.21263 -0.0043,0.55528 -0.06145,0.76138 -0.05723,0.20614 -0.07641,0.0321 -0.04256,-0.3866 z m 8.820849,0.10499 c 0.02217,-0.52811 1.688855,-6.93442 1.836823,-7.0603 0.162775,-0.13845 0.02275,0.51853 -0.679358,3.18746 -1.122701,4.26775 -1.18243,4.46762 -1.157465,3.87284 z m -16.948348,-1.28596 c 0.03941,-0.54532 1.173588,-5.21803 1.220405,-5.02775 0.0562,0.22844 -1.023275,5.08519 -1.155185,5.1974 -0.04539,0.0386 -0.07476,-0.0378 -0.06522,-0.16965 z m 13.347979,0.73871 c -0.345157,-0.11339 -0.858248,-0.34981 -1.140223,-0.52572 -0.285253,-0.17795 -0.869412,-0.34055 -1.316852,-0.36652 -1.022719,-0.0593 -1.048073,-0.16086 -0.628466,-2.51767 0.357421,-2.00748 0.842633,-3.67175 1.145642,-3.9295 0.138844,-0.11801 0.546533,-0.0532 1.405739,0.22358 0.665604,0.21446 1.970726,0.47275 2.900276,0.57398 2.127083,0.23165 2.483103,0.43148 2.271484,1.27487 -0.624828,2.49018 -1.383388,4.84274 -1.669578,5.17793 -0.290474,0.34021 -0.485981,0.39077 -1.340292,0.34658 -0.550109,-0.0285 -1.282597,-0.14421 -1.62774,-0.25759 z m 2.451724,0.0396 c 0.230073,0.0186 0.667253,-0.90024 0.886229,-1.86252 0.135531,-0.59557 0.130108,-0.78419 -0.02027,-0.70723 -0.150001,0.0768 -0.157237,-0.11323 -0.02688,-0.70777 0.09802,-0.44699 0.225766,-0.94299 0.283884,-1.10221 0.10761,-0.29479 -0.151617,-0.43118 -0.337952,-0.17779 -0.125296,0.17039 -1.140948,3.16869 -1.378266,4.0688 -0.151237,0.57367 -0.135744,0.64157 0.128658,0.56386 0.165334,-0.0486 0.37441,-0.0824 0.464673,-0.0747 z m -0.464691,-2.03849 c 0.353475,-1.07205 0.685598,-2.04151 0.738052,-2.15435 0.06443,-0.13861 -0.08904,-0.21978 -0.472687,-0.25018 -0.312446,-0.0249 -0.902048,-0.17973 -1.31025,-0.34439 -1.626858,-0.65624 -2.818859,-0.96313 -3.078404,-0.79253 -0.146062,0.0959 -0.34244,0.65898 -0.467536,1.34024 l -0.215705,1.1747 0.905814,-0.71761 c 0.842006,-0.66705 1.98097,-1.28057 2.105517,-1.13416 0.02968,0.0351 -0.626213,0.5049 -1.45755,1.04447 l -1.511528,0.981 -0.06973,0.8033 c -0.06947,0.80011 0.136091,1.09733 0.367396,0.53116 0.06687,-0.16367 0.706506,-0.70597 1.42141,-1.20513 2.16693,-1.51292 2.294255,-1.5347 0.489667,-0.0832 -1.617238,1.30014 -1.696702,1.39246 -1.315392,1.52785 0.269744,0.0958 0.556052,0.0519 0.853675,-0.1302 0.66581,-0.40757 1.243681,-0.63572 1.229154,-0.48534 -0.0071,0.0729 -0.301478,0.28831 -0.654291,0.47851 -0.476591,0.25694 -0.596332,0.39892 -0.465834,0.55233 0.130487,0.15344 0.320536,0.16633 0.739306,0.0506 0.497062,-0.13763 0.524173,-0.13087 0.229341,0.0575 -0.313797,0.20032 -0.300167,0.22643 0.221303,0.42312 1.057128,0.39878 1.027958,0.42706 1.718369,-1.66686 z m 2.183284,-2.80406 c 0.01971,-0.16235 -0.04036,-0.30129 -0.13342,-0.30879 -0.09306,-0.008 -0.186887,0.27229 -0.208506,0.62178 -0.03151,0.50975 -0.0051,0.57085 0.133421,0.3088 0.09498,-0.17972 0.188828,-0.45948 0.208505,-0.62179 z m -0.863119,-0.19739 c 0.192985,-0.25985 0.196284,-0.32476 0.01724,-0.33921 -0.121752,-0.01 -0.312221,0.0595 -0.423279,0.15377 -0.126235,0.10746 -0.457745,0.10697 -0.884576,-0.001 -0.971639,-0.24592 -0.957435,-0.43176 0.02162,-0.28276 0.493576,0.075 0.831016,0.0554 0.839457,-0.0493 0.0084,-0.10417 0.242,-0.11884 0.577312,-0.0363 0.329758,0.0813 0.617612,0.0646 0.694472,-0.0397 0.166521,-0.22641 0.35243,-0.17802 -1.990219,-0.51768 -1.110977,-0.16103 -2.447113,-0.42884 -2.969193,-0.5951 -1.046772,-0.33331 -1.037407,-0.33525 -1.229368,0.25399 -0.111912,0.34353 -0.07128,0.42376 0.236393,0.4668 0.675564,0.0944 2.193411,0.5546 2.860266,0.86696 0.982224,0.46013 1.95841,0.51196 2.249881,0.1195 z m -9.191026,4.25095 c 0.126086,-0.0391 0.271532,-0.0211 0.323208,0.0394 0.05169,0.0607 -0.05149,0.0926 -0.229233,0.071 -0.196466,-0.0239 -0.233303,-0.0674 -0.09398,-0.11043 z m 0.908499,-0.10251 c 0.01665,-0.46146 0.756585,-3.76593 1.021977,-4.56406 0.191741,-0.57662 0.192814,-0.57708 0.161802,-0.072 -0.03746,0.61027 -1.203262,5.17595 -1.183784,4.63615 z m -2.890532,-1.31971 c -0.70338,-0.29773 -1.242603,-0.41219 -1.871592,-0.39728 -1.368498,0.0325 -1.473973,-0.18196 -1.170663,-2.37971 0.134739,-0.97634 0.424388,-2.29713 0.643653,-2.9351 l 0.398667,-1.15993 1.182848,0.11455 c 0.650558,0.063 1.968803,0.23863 2.929416,0.39018 l 1.746561,0.27564 -0.203602,1.27735 c -0.30302,1.90103 -1.125825,4.69646 -1.480557,5.03005 -0.390041,0.36682 -0.923516,0.31388 -2.174732,-0.21576 z m 2.073812,-0.23539 c 0.326529,-0.42022 1.263285,-3.91146 1.106229,-4.12286 -0.05137,-0.0691 -0.771902,-0.26455 -1.601194,-0.43425 -0.829289,-0.16969 -1.765164,-0.40095 -2.079728,-0.51393 -0.415254,-0.14917 -0.611828,-0.15131 -0.717576,-0.008 -0.253974,0.34362 -0.623471,1.76083 -0.697163,2.67399 -0.0391,0.4846 -0.154913,1.10386 -0.257333,1.37612 l -0.186232,0.49503 1.288224,0.0939 c 0.929552,0.0681 1.436394,0.0204 1.820504,-0.17073 l 0.532294,-0.26512 -0.500332,0.39662 c -0.587887,0.46601 -0.607649,0.52426 -0.22344,0.6585 0.748968,0.2617 1.216117,0.20644 1.515813,-0.17917 z m -3.051371,-1.36796 c 1.330987,-0.75034 3.026714,-1.49671 3.128546,-1.37698 0.124141,0.14586 0.211218,0.0944 -1.765072,1.04521 -1.815266,0.87338 -2.710601,1.09122 -1.363479,0.33173 z m 1.002369,-1.86958 c 0.937966,-0.4887 1.239792,-0.59102 1.225622,-0.41544 -0.0094,0.11653 -1.832578,0.95976 -2.034364,0.94077 -0.09299,-0.008 0.270974,-0.24513 0.808742,-0.52533 z m -2.474285,1.90778 c 0.08164,-0.28611 0.197242,-1.12523 0.256918,-1.86471 0.07824,-0.96954 0.184998,-1.40959 0.382777,-1.57784 0.150858,-0.12823 0.280355,-0.32313 0.287778,-0.43293 0.0079,-0.11702 -0.06284,-0.10005 -0.170966,0.041 -0.15376,0.20049 -0.180488,0.18562 -0.160484,-0.0897 0.01549,-0.21371 -0.03863,-0.27683 -0.153644,-0.17899 -0.398951,0.33936 -1.079008,4.58393 -0.73883,4.61139 0.08144,0.007 0.214836,-0.22216 0.296466,-0.50825 z m 5.882152,-3.5912 c 0.127438,-0.55366 0.151501,-0.53967 -1.173394,-0.68192 -0.510721,-0.0547 -1.478958,-0.23688 -2.151617,-0.40453 -0.810745,-0.20207 -1.322985,-0.25681 -1.519587,-0.16235 -0.223707,0.1073 -0.101644,0.15938 0.496711,0.21163 1.017673,0.0892 1.240722,0.43909 0.244546,0.38414 l -0.730572,-0.0404 0.748251,0.2243 c 0.665172,0.19935 3.281279,0.8477 3.779397,0.93658 0.10494,0.0186 0.242755,-0.19166 0.30626,-0.4675 z m -15.49845,3.78534 c 0.02954,-0.36595 1.256443,-1.89907 2.189446,-2.73589 0.571894,-0.51293 0.822,-0.68197 0.555795,-0.37562 -0.266209,0.30635 -0.925164,1.09614 -1.464344,1.75512 -1.110776,1.35755 -1.296894,1.55465 -1.280897,1.35639 z m 4.384548,0.1401 c 0.126086,-0.0391 0.27153,-0.0211 0.323206,0.0394 0.05172,0.0608 -0.05147,0.0928 -0.229231,0.071 -0.196466,-0.0239 -0.233305,-0.0674 -0.09398,-0.11043 z m 1.095161,0.0148 c -0.295393,-0.11158 -0.534337,-0.23714 -0.530983,-0.27869 0.0087,-0.1073 1.041453,0.18877 1.331587,0.38175 0.215499,0.14339 0.214328,0.1579 -0.01055,0.1307 -0.139107,-0.0173 -0.49466,-0.12196 -0.790057,-0.23373 z m -0.123911,-0.67941 c -0.207068,-0.10318 -0.835749,-0.28313 -1.397056,-0.39997 -1.114232,-0.23195 -1.404053,-0.52198 -1.180725,-1.18168 0.311964,-0.92151 2.006053,-2.63968 4.628819,-4.69459 1.476398,-1.15676 1.952426,-0.82366 1.099949,0.76971 -0.210271,0.39301 -0.679934,1.76343 -1.043697,3.04539 -0.363761,1.28194 -0.740403,2.42021 -0.836979,2.5295 -0.202833,0.22955 -0.729099,0.2012 -1.270312,-0.0684 z m 0.844073,-0.33085 c 0.003,-0.0366 -0.52307,-0.242 -1.168917,-0.45663 -0.645851,-0.21462 -1.203708,-0.49038 -1.239683,-0.61276 -0.106407,-0.36207 0.650832,-1.41937 1.548347,-2.16181 0.459923,-0.38047 0.841995,-0.76321 0.849044,-0.85058 0.0071,-0.0873 0.320915,-0.48674 0.697477,-0.88748 l 0.684658,-0.72863 -0.690805,0.5403 c -1.12922,0.88319 -2.959371,2.76116 -3.462154,3.55261 -0.548538,0.86348 -0.437687,1.05307 0.687861,1.17655 0.371378,0.0407 0.860651,0.15048 1.087283,0.24367 0.456912,0.18806 0.998602,0.28746 1.006889,0.18476 z m 0.552661,-1.16586 c 0.129613,-0.41102 0.193301,-0.75073 0.141496,-0.75492 -0.0518,-0.005 -0.340624,0.18333 -0.641871,0.41653 l -0.547709,0.42412 0.509202,-0.55497 c 0.877495,-0.95632 1.027825,-1.17781 1.203361,-1.77305 l 0.170797,-0.57912 -0.527652,0.55034 c -1.004603,1.04779 -1.74433,1.72979 -1.733732,1.59848 0.0058,-0.0725 0.562344,-0.72459 1.236647,-1.449 0.674303,-0.72441 1.200563,-1.34703 1.169468,-1.38357 -0.130734,-0.15362 -2.804053,2.091 -3.207701,2.6934 -0.497268,0.74209 -0.475138,0.78058 0.693793,1.20665 1.219609,0.44452 1.273561,0.43062 1.533891,-0.39489 z m 1.148911,-4.08066 c 0.492675,-0.46332 0.256862,-0.56147 -0.248675,-0.10351 -0.236961,0.21465 -0.353226,0.39656 -0.258366,0.40424 0.09485,0.008 0.32302,-0.12774 0.50704,-0.30075 z m 0.03367,5.01341 c 0.02408,-0.19645 0.06734,-0.23332 0.110461,-0.094 0.03901,0.12608 0.02123,0.27152 -0.03954,0.32322 -0.06075,0.0518 -0.09269,-0.0516 -0.07095,-0.22927 z m 0.243048,-0.6474 c 0.015,-0.18611 0.103638,-0.52381 0.196909,-0.75045 0.134294,-0.32629 0.163912,-0.34162 0.142288,-0.0737 -0.015,0.18613 -0.103638,0.52384 -0.19691,0.75047 -0.134295,0.32627 -0.163913,0.34162 -0.142288,0.0735 z m 0.442042,-1.5112 c 0.02408,-0.19647 0.06734,-0.23332 0.110462,-0.0941 0.03901,0.12608 0.02123,0.27153 -0.03954,0.32322 -0.06077,0.0516 -0.09268,-0.0516 -0.07095,-0.22924 z m 0.223816,-0.66313 c 0.02408,-0.19645 0.06736,-0.23332 0.110461,-0.0941 0.03903,0.12609 0.02123,0.27154 -0.03954,0.32323 -0.06075,0.0517 -0.09268,-0.0516 -0.07094,-0.22925 z m 11.522405,0.0808 c -1.267278,-0.22417 -2.432507,-0.50437 -2.589391,-0.62266 -0.246983,-0.18622 -0.229446,-0.19887 0.13075,-0.0941 0.228794,0.0666 1.624441,0.3403 3.101442,0.6084 1.477,0.26809 2.797549,0.52285 2.934553,0.56615 0.56101,0.17728 -1.420585,-0.0763 -3.577341,-0.45777 z m -3.727891,-0.97355 0.140573,-0.84345 -0.626355,0.005 c -0.344493,0.003 -1.371139,-0.26218 -2.281438,-0.58867 -0.910298,-0.32651 -2.013972,-0.65721 -2.45261,-0.73491 -0.833565,-0.14768 -0.949474,-0.34007 -0.564833,-0.93762 0.405169,-0.62946 6.683063,-2.95565 6.993085,-2.5912 0.03582,0.042 -0.0816,0.70038 -0.260924,1.46288 -0.179326,0.76247 -0.399598,1.99347 -0.4895,2.73552 -0.08991,0.74208 -0.261357,1.57123 -0.381015,1.84255 -0.193525,0.43885 -0.20203,0.40017 -0.07699,-0.3501 z m -1.068829,-1.36998 c -0.842779,-0.24644 -1.535949,-0.29438 -0.846795,-0.0583 0.273454,0.0936 0.725568,0.1888 1.00472,0.21164 0.426719,0.0348 0.401609,0.01 -0.157946,-0.15312 z m 0.04605,-0.75749 c -0.223873,-0.34846 -0.443953,-0.60213 -0.489068,-0.56376 -0.112242,0.0954 0.568194,1.17082 0.750116,1.18549 0.0803,0.007 -0.0372,-0.27329 -0.261048,-0.62173 z m 1.132639,-0.13169 c 0.02794,-0.34604 -0.05409,-0.80792 -0.182278,-1.02646 -0.128163,-0.21848 -0.157089,-0.39116 -0.06428,-0.38366 0.09284,0.008 0.217233,0.10828 0.276414,0.22387 0.07399,0.14455 0.155902,0.11125 0.262113,-0.10664 0.18494,-0.37921 0.293053,-1.24228 0.15699,-1.25326 -0.153496,-0.0132 -1.67796,0.89226 -1.686729,1.00093 -0.0045,0.0541 0.234753,0.41475 0.531366,0.80154 0.296611,0.3868 0.529226,0.79804 0.516921,0.91384 -0.02355,0.22107 -0.536134,-0.40066 -0.94294,-1.14356 l -0.239033,-0.43651 -0.642567,0.28194 c -0.353419,0.1551 -0.644572,0.30676 -0.647019,0.33711 -0.0025,0.0305 0.183756,0.33449 0.413785,0.67587 0.579872,0.86057 1.00987,0.85804 0.456862,-0.003 -0.28189,-0.43873 -0.335141,-0.61792 -0.15849,-0.53325 0.146326,0.07 0.298818,0.0506 0.338887,-0.0434 0.04005,-0.0941 0.347779,0.18985 0.683849,0.63106 0.336072,0.44122 0.670506,0.77753 0.743189,0.74738 0.07269,-0.03 0.154996,-0.33792 0.182918,-0.68396 z m -2.36729,-0.0199 c -0.26145,-0.60011 -0.557225,-0.7655 -1.220677,-0.68258 -0.3471,0.0429 -0.644959,0.15443 -0.662064,0.24672 -0.04999,0.26947 0.689605,0.64646 1.383406,0.70517 0.568614,0.0478 0.624476,0.018 0.499347,-0.26923 z m -2.297184,-0.2574 c -0.122823,-0.44247 0.653922,-0.92645 1.391374,-0.86695 0.395907,0.0318 1.304485,-0.41318 2.706015,-1.32575 0.707746,-0.46081 0.710901,-0.46693 0.201872,-0.39123 -0.284425,0.0424 -1.114689,0.35972 -1.845065,0.70536 -0.730378,0.34566 -1.683495,0.74732 -2.118038,0.89261 -1.037265,0.34683 -1.377789,0.68017 -0.978394,0.95778 0.398914,0.27727 0.715234,0.29115 0.642231,0.0282 z m 13.423388,3.75126 c 0.02406,-0.19645 0.06736,-0.23332 0.110478,-0.0941 0.03901,0.12608 0.02121,0.27154 -0.03954,0.32322 -0.06073,0.0518 -0.09268,-0.0514 -0.07094,-0.22923 z m -21.003561,-2.03673 c 0.389527,-0.60513 3.054951,-2.37506 3.522982,-2.33932 0.07999,0.007 -0.221389,0.23056 -0.669723,0.49879 -0.44833,0.26824 -1.322322,0.86759 -1.942206,1.3319 -0.619881,0.46432 -1.029856,0.69321 -0.911053,0.50863 z m 15.111878,1.01761 c -0.230245,-0.0485 -0.588258,-0.23992 -0.795591,-0.42514 l -0.376974,-0.33682 0.367892,-2.0825 c 0.507779,-2.87433 0.677969,-3.30528 1.398088,-3.54014 0.654153,-0.21328 3.656651,-0.29252 5.489951,-0.14472 1.41275,0.11389 1.64573,0.31641 1.452984,1.26344 -0.260722,1.28099 -1.414397,4.7745 -1.735933,5.25663 -0.408228,0.6122 -0.940956,0.65172 -2.856431,0.21196 -0.833086,-0.19126 -1.582703,-0.2735 -1.941257,-0.21295 -0.321258,0.0542 -0.77249,0.0588 -1.00273,0.01 z m 5.307666,0.0921 c 0.346474,-0.33933 0.724352,-1.93507 0.421537,-1.78009 -0.137656,0.0704 -0.1605,-0.0231 -0.07219,-0.29506 0.318245,-0.98071 0.554035,-2.70911 0.355723,-2.6076 -0.110544,0.0565 -0.214825,0.23132 -0.231722,0.38836 -0.01717,0.15691 -0.158918,0.50506 -0.315596,0.77342 l -0.284883,0.48789 0.138118,-0.7552 c 0.124092,-0.67851 0.08544,-0.62975 -0.380744,0.48017 -0.606451,1.44393 -1.070699,3.08422 -0.943339,3.33306 0.146887,0.287 1.011359,0.27057 1.313091,-0.025 z m -4.603679,-0.37452 c 0.0058,-0.0714 -0.165295,-0.43955 -0.380141,-0.81801 -0.225259,-0.3968 -0.295111,-0.64792 -0.165008,-0.5932 0.124092,0.0523 0.380477,0.36972 0.569745,0.70559 0.387995,0.68856 0.643006,0.87403 0.673982,0.49022 0.01154,-0.14257 -0.32602,-0.80827 -0.750024,-1.47968 -0.751345,-1.18977 -0.755078,-1.20284 -0.147084,-0.51517 0.343104,0.3881 0.733201,1.01177 0.866882,1.38596 0.254814,0.71329 0.337825,0.77176 1.485063,1.04622 0.631381,0.15097 0.713032,0.13301 0.736828,-0.16169 0.02261,-0.28016 0.767344,-2.53906 1.256028,-3.80975 0.138448,-0.36001 0.106555,-0.37453 -1.018961,-0.46457 -0.667346,-0.0534 -1.493033,-0.24265 -1.939903,-0.44472 -0.713236,-0.32253 -0.826322,-0.33339 -1.358063,-0.13053 l -0.580054,0.22118 -0.369579,1.90615 -0.369581,1.90616 0.410736,0.41631 c 0.395003,0.40037 1.057408,0.60878 1.079134,0.33948 z m 1.063749,-1.18836 c -0.586574,-0.93719 -0.893473,-1.56691 -0.801687,-1.64499 0.08988,-0.0765 0.872958,1.16713 1.161394,1.84432 0.245377,0.57609 0.06194,0.4745 -0.359707,-0.19933 z m 1.097175,0.26297 c -0.0867,-0.12625 -0.468605,-0.79128 -0.848665,-1.47758 l -0.691021,-1.24788 0.710906,0.89347 c 0.695212,0.8737 1.222449,1.86092 1.065277,1.9946 -0.04335,0.0367 -0.149771,-0.0363 -0.236497,-0.16268 z m 0.04122,-1.56698 c -0.604278,-0.8968 -0.466968,-1.19205 0.163121,-0.35074 0.29242,0.39044 0.526551,0.77335 0.520295,0.85091 -0.02329,0.28847 -0.27728,0.10252 -0.683409,-0.50017 z m 0.552762,-0.58466 c -0.142255,-0.30459 -0.224319,-0.58298 -0.182367,-0.61868 0.09546,-0.0813 0.722523,0.84957 0.706458,1.04867 -0.02481,0.30754 -0.275768,0.1017 -0.524091,-0.42999 z m 3.688248,-1.80698 c 0.148288,-0.29843 0.1219,-0.29593 -0.297686,0.0275 -0.361274,0.27907 -0.477275,0.5262 -0.539156,1.14857 -0.04341,0.43614 -0.142074,1.09441 -0.219334,1.46285 -0.0773,0.36842 0.0922,1.5e-4 0.376439,-0.82111 0.284309,-0.82006 0.590148,-1.63837 0.679642,-1.81846 z m -5.743364,-0.1452 c 1.794156,0.36421 3.322083,0.54954 2.997547,0.36357 -0.179049,-0.10268 -0.540103,-0.25138 -0.802338,-0.33061 -0.262235,-0.0793 -0.445584,-0.1706 -0.407443,-0.20305 0.03816,-0.0325 0.58048,0.092 1.20519,0.27643 1.224647,0.36164 1.750578,0.30864 1.121854,-0.11307 -0.373923,-0.25082 -0.369557,-0.25421 0.147496,-0.11455 0.390983,0.10549 0.656678,0.062 0.998245,-0.16519 0.688166,-0.4568 0.349567,-0.57262 -1.795194,-0.61408 -3.515709,-0.0679 -4.720541,0.14998 -4.778173,0.86416 -0.01615,0.19972 0.03206,0.21171 0.246447,0.0611 0.172219,-0.12097 0.549374,-0.12971 1.066364,-0.0247 z m -11.837801,3.911 c 0.04081,-0.75451 0.871847,-2.45321 1.358003,-2.77593 0.670881,-0.44529 0.804483,-0.35037 0.213921,0.15196 -0.305638,0.25999 -0.656089,0.82957 -0.87347,1.41962 -0.199671,0.54199 -0.443782,1.13217 -0.542469,1.31155 -0.16439,0.29878 -0.177465,0.2898 -0.155985,-0.1073 z m 1.063503,-0.812 c 0.101644,-0.0864 0.484078,-0.0521 0.971242,0.0874 l 0.803607,0.22969 -0.971242,-0.0874 c -0.588874,-0.0526 -0.905251,-0.14322 -0.803607,-0.2297 z m 7.848205,-0.0265 c 0.06817,-0.8447 0.766415,-3.47453 1.004437,-3.78304 0.166214,-0.21543 0.176825,-0.20409 0.06463,0.0691 -0.07382,0.17975 -0.31972,1.19312 -0.546432,2.252 -0.426903,1.9939 -0.605984,2.49483 -0.52264,1.46199 z m 8.789534,0.98502 c 0.02408,-0.19646 0.06736,-0.23332 0.110478,-0.0939 0.03901,0.12609 0.02121,0.27151 -0.03954,0.32321 -0.06074,0.0518 -0.09268,-0.0514 -0.07094,-0.22923 z m 0.251118,-1.00155 c 0.02408,-0.19645 0.06736,-0.23329 0.110478,-0.0938 0.03901,0.12609 0.02121,0.27153 -0.03954,0.32323 -0.06074,0.0517 -0.09271,-0.0516 -0.07095,-0.22925 z m 0.270168,-1.07093 c 0.01877,-0.23266 0.06482,-0.32473 0.102401,-0.20462 0.03756,0.12015 0.02219,0.31045 -0.03413,0.42299 -0.05634,0.11257 -0.08707,0.0148 -0.06827,-0.21839 z m 0.357383,-1.30063 c 0.09223,-0.48962 0.249914,-1.08995 0.35035,-1.33413 0.234967,-0.57121 -0.0326,0.80128 -0.321112,1.6469 -0.15933,0.46708 -0.16492,0.4073 -0.02919,-0.31277 z m -4.668145,-2.59307 c 0.02156,-0.26718 1.703918,-0.27946 2.641207,-0.0194 0.814726,0.22613 0.800905,0.229 -0.635333,0.13169 -0.807497,-0.0546 -1.592329,-0.063 -1.744094,-0.0183 -0.151765,0.0445 -0.269548,0.002 -0.261777,-0.0939 z m -28.72345,20.39505 c 0.04346,-0.53864 -0.01956,-0.80888 -0.221413,-0.94934 -0.252002,-0.17535 -0.241424,-0.19362 0.09893,-0.1708 0.422273,0.0282 0.561188,-0.42963 0.243612,-0.80296 -0.145173,-0.17067 -0.131295,-0.21496 0.06251,-0.1993 0.283973,0.0229 0.900044,-1.67823 0.728883,-2.01265 -0.06281,-0.12279 -0.03326,-0.1513 0.07463,-0.0719 0.104693,0.077 0.315308,-0.0892 0.508367,-0.40099 0.181289,-0.29285 0.577098,-0.83818 0.879575,-1.21183 0.702891,-0.86833 0.515675,-0.88585 -0.404195,-0.0377 -0.468995,0.43237 -0.659628,0.53788 -0.551586,0.30527 0.09082,-0.19549 0.75089,-0.86791 1.466853,-1.49426 0.922366,-0.8069 1.685705,-1.70342 2.619164,-3.07609 0.724577,-1.06551 1.734249,-2.46706 2.243712,-3.11457 l 0.926302,-1.17731 -0.841838,0.50293 c -0.463012,0.27658 -1.000889,0.71999 -1.195291,0.98528 -0.194399,0.26531 -0.345403,0.37905 -0.335565,0.25278 0.0099,-0.12625 0.59522,-0.73622 1.300844,-1.35545 0.705623,-0.61922 1.287221,-1.17877 1.292436,-1.24341 0.01632,-0.20276 -1.359541,0.43705 -2.057657,0.95684 -0.833875,0.62087 -1.373583,1.573 -1.459252,2.57435 -0.04692,0.54921 -0.198785,0.92319 -0.528437,1.30197 -0.285954,0.32859 -0.471418,0.73861 -0.485838,1.07408 -0.03112,0.72426 -0.154831,0.86075 -1.148574,1.26752 -0.830966,0.34012 -1.346808,0.88391 -2.965476,3.12626 -0.43929,0.60855 -0.789192,1.79397 -1.11755,3.78612 -0.157781,0.95729 -0.139173,1.14312 0.150413,1.50226 0.483643,0.59984 0.648344,0.52696 0.716439,-0.3169 z m 9.954181,-15.72423 c 0.237336,-0.21501 0.393449,-0.394 0.346919,-0.39774 -0.04648,-0.003 -0.27877,0.16917 -0.516113,0.38409 -0.237338,0.21499 -0.393452,0.394 -0.346921,0.39776 0.04646,0.003 0.27877,-0.16917 0.516115,-0.38411 z m 4.268702,-2.75358 c 0.359814,-0.119 1.471615,-0.3743 2.470672,-0.56737 0.999054,-0.19312 2.267657,-0.474 2.819132,-0.62415 l 1.00265,-0.27321 -0.563398,-0.81308 c -0.499653,-0.7211 -0.514694,-0.77526 -0.132959,-0.47867 0.236745,0.18398 0.549441,0.52899 0.694874,0.76669 l 0.264427,0.43224 1.089615,-0.34357 c 0.599286,-0.18896 1.695345,-0.46668 2.435681,-0.61716 0.740334,-0.15048 1.380528,-0.34749 1.422651,-0.43773 0.04211,-0.0903 -0.327027,-0.41531 -0.820327,-0.7223 l -0.896911,-0.55816 -0.954632,0.19592 c -0.52504,0.1078 -1.437877,0.1579 -2.028541,0.11126 -1.403606,-0.11027 -6.158671,0.59204 -6.479872,0.95748 -0.128937,0.14669 -0.251615,0.48012 -0.272664,0.74091 -0.02937,0.36405 -0.214983,0.5807 -0.799043,0.93272 -0.861387,0.51918 -1.421847,1.26426 -1.478432,1.9655 l -0.03842,0.47608 0.805636,-0.46357 c 0.4431,-0.25494 1.100027,-0.56089 1.459838,-0.67989 z m -0.440396,-0.36937 c 0.694553,-0.16827 1.051929,-0.40356 1.23189,-0.81098 0.131591,-0.29786 0.3599,-0.46775 0.688088,-0.51199 0.270069,-0.0369 0.678538,-0.10351 0.907637,-0.1485 0.270837,-0.0537 0.373305,-0.0237 0.29302,0.0854 -0.0679,0.0923 -0.39389,0.19627 -0.724411,0.23116 -0.371259,0.0397 -0.685481,0.20011 -0.822161,0.42126 -0.327015,0.5293 -0.933515,0.8903 -1.412373,0.84069 -0.232394,-0.0237 -0.305077,-0.0722 -0.16167,-0.1068 z m 3.827658,-1.00464 c 0.653045,-0.17583 0.925914,-0.11554 0.497177,0.10895 -0.143886,0.0755 -0.451677,0.119 -0.683971,0.0967 -0.366021,-0.0356 -0.341046,-0.063 0.186853,-0.20518 z m 1.251043,-0.63653 c -0.756556,-0.6169 -0.77493,-0.65604 -0.185801,-0.39579 0.481733,0.21278 0.965415,0.68971 0.808701,0.79739 -0.03893,0.0267 -0.319229,-0.15394 -0.622905,-0.4016 z m -3.184975,-0.5465 c 0.107231,-0.0865 2.933216,-0.815 3.521908,-0.90789 0.311032,-0.0495 0.4456,-0.0183 0.369977,0.0844 -0.130965,0.17821 -3.241284,0.94333 -3.687825,0.90728 -0.15399,-0.0132 -0.24583,-0.0503 -0.204072,-0.0837 z m 5.547584,0.0748 c -0.242969,-0.24581 -0.369805,-0.4411 -0.281869,-0.43401 0.225122,0.0181 0.925874,0.70852 0.815063,0.80296 -0.05027,0.0428 -0.290233,-0.12312 -0.533194,-0.36895 z m 1.245076,-0.30516 c -0.204924,-0.20076 -0.318862,-0.36323 -0.253195,-0.36103 0.237253,0.008 0.949338,0.46956 0.938148,0.60826 -0.01909,0.23651 -0.291541,0.13828 -0.684953,-0.24723 z m 0.968252,-0.0979 c -0.115076,-0.22483 0.108929,-0.20675 0.422996,0.0341 0.207312,0.15905 0.200988,0.18164 -0.04575,0.16399 -0.157435,-0.0115 -0.327236,-0.10037 -0.377237,-0.19813 z m 10.981104,0.12839 c -0.202076,-0.28777 -0.394114,-0.34488 -2.751073,-0.81816 -1.478693,-0.2969 -1.527526,-0.29519 -2.491545,0.0874 l -0.983288,0.39014 2.134062,0.12196 c 1.173735,0.0671 2.585643,0.22388 3.137591,0.34837 1.139002,0.25696 1.218169,0.2462 0.954261,-0.12955 z"
         id="path198" /></g><g
       id="g299"
       style="fill:#ffffff;stroke:none;stroke-opacity:1"><path
         id="path299"
         style="fill:#ffffff;stroke:none;stroke-width:1.1214;stroke-opacity:1"
         d="m 40.962891,122.19531 c -2.090232,-0.002 -3.542677,1.85945 -4.25317,3.63698 -0.542864,1.24491 -0.844666,2.57589 -1.12183,3.90013 -0.608825,-2.2483 -1.405867,-4.64797 -3.224122,-6.21679 -1.584772,-1.30442 -4.006823,-0.80361 -5.33229,0.63072 -0.942951,0.92849 -1.905853,2.42084 -1.164291,3.74037 0.43583,0.69006 1.391017,1.58948 2.214843,0.96484 0.393322,-0.70515 0.30028,-0.19254 0.333694,0.34307 0.08255,4.66061 -5.86e-4,9.36553 -0.31699,13.97503 0.02615,0.57483 -0.221775,1.14343 -0.817485,1.31276 -0.240676,0.34877 -1.398969,1.04545 -0.399827,0.93569 1.895487,0.12056 3.786464,-0.25376 5.674554,-0.39802 0.962701,-0.0221 1.854249,-0.37555 2.746757,-0.69978 -0.864782,-0.39399 -2.063528,-0.3385 -2.545111,-1.29969 -1.166465,-2.21343 -1.227748,-4.81019 -1.280129,-7.25809 0.0095,-2.22816 0.187054,-4.55127 0.469772,-6.70198 0.954568,2.76521 1.117031,5.71571 1.033203,8.61718 1.404755,-0.47852 2.869511,-0.77774 4.360156,-0.66601 0.606756,-0.021 0.232184,-1.10455 0.414547,-1.58482 0.12937,-1.80364 0.308061,-3.60845 0.680375,-5.38002 0.708414,3.83249 1.500439,7.6696 1.091797,11.58203 -0.176535,0.93757 -0.317981,2.12507 -1.201172,2.66015 -0.553772,-0.16185 -0.88217,0.18863 -0.9375,0.7168 0.424973,0.2224 0.549633,0.7759 1.096635,0.67076 1.739023,-0.34818 3.546637,-0.006 5.276412,-0.37974 0.726812,-0.19151 0.758268,-1.04486 0.420992,-1.59633 -1.576781,-4.58536 -1.912421,-9.48315 -1.769472,-14.29893 0.0186,-1.15413 0.01902,-2.31248 0.153167,-3.46021 1.057722,0.26834 1.979461,-0.86977 2.092525,-1.83597 0.05049,-1.27816 -1.411679,-1.73609 -2.445387,-1.83492 -0.413856,-0.057 -0.833284,-0.0759 -1.250653,-0.0752 z m 21.552734,1.91016 c -1.157632,0.38912 -2.353025,0.68517 -3.558594,0.82031 -0.83572,0.4698 -0.355969,1.58726 -0.383736,2.34413 0.09774,1.41719 0.122656,2.87471 0.176705,4.3297 -1.200131,0.33175 -2.372159,0.88831 -3.227728,1.82738 -1.520071,1.52302 -2.465527,3.86217 -1.768366,5.98707 -0.995537,-0.78953 -1.893805,-1.94198 -1.698751,-3.28942 0.01685,-2.2905 0.348916,-4.46815 0.728806,-6.70083 0.124009,-0.50191 -0.06479,-1.11983 -0.686305,-1.02342 -1.58228,0.16242 -3.146315,0.52234 -4.694372,0.8796 -2.431197,0.6664 -4.066302,3.00508 -4.358573,5.43847 -0.207262,1.79398 -0.281327,3.80238 0.714645,5.38962 0.644623,0.97747 2.021619,1.8249 3.135508,1.06791 0.772729,-0.48249 1.34466,-1.21221 1.984042,-1.84787 1.622935,1.23073 3.332475,2.52367 5.419159,2.78139 0.386264,0.11887 1.811187,0.19679 0.764435,0.37291 -1.143196,0.2926 -2.115299,0.96905 -3.139681,1.50764 -0.337195,0.22146 -1.822997,0.61513 -0.76068,0.62677 0.768603,0.14706 1.541586,0.15011 2.310517,0.182 0.716004,0.29586 0.276375,1.25867 0.325462,1.83898 -0.114347,1.52177 -0.228693,3.04354 -0.34304,4.56531 -1.106067,-0.34023 -2.224894,-0.72301 -3.36914,-0.87109 -0.466224,-1.36566 -0.418554,-2.86748 -0.407348,-4.30005 0.04193,-1.12085 0.254202,-2.19907 0.852838,-3.20404 0.525052,-0.58945 -0.285568,-0.63478 -0.730647,-0.65802 -1.587681,0.1997 -3.187,0.45358 -4.716797,0.92774 -0.611412,0.16301 -0.767493,0.98395 -0.178135,1.28948 0.725804,0.54605 1.609438,1.20357 1.465642,2.23654 0.09717,1.27586 0.191623,2.55192 0.292571,3.82749 -1.17654,0.46431 -2.425321,1.14549 -2.904296,2.39258 0.05025,-0.74746 0.08589,-1.49809 -0.04297,-2.24023 -1.97168,0.59356 -3.75247,1.78889 -5.738281,2.27148 -0.680868,0.17432 -0.76707,1.00308 -0.318631,1.46621 1.204835,2.40086 1.807648,5.05491 2.434812,7.6532 0.707069,3.31286 1.190006,6.64081 1.491241,10.05051 -1.50221,-3.05546 -2.484624,-6.30013 -3.010179,-9.63969 -0.154042,-0.45335 -0.11961,-1.36172 -0.380764,-1.55553 -1.002722,0.79987 -2.15157,1.39244 -3.416607,1.6412 -0.606449,0.14829 -1.212763,0.29714 -1.819404,0.44465 0.925173,2.97673 1.725016,6.02067 1.839844,9.15234 -1.702931,-4.41051 -3.283221,-8.9419 -5.906283,-12.91118 -1.027134,-1.49391 -2.555957,-3.14812 -4.544889,-2.92476 -1.674197,0.2285 -2.508603,1.97147 -2.684402,3.48371 -0.200723,0.7056 -0.06207,1.79127 0.848465,1.85223 0.767858,-0.0184 1.613591,-0.35549 2.28633,0.20977 1.727873,1.28465 2.650338,3.33269 3.64772,5.17999 1.987561,3.90831 3.404711,8.07436 5.296419,12.0243 0.191904,0.98595 0.735687,0.19932 1.195264,-0.16385 0.807444,-0.77483 1.777254,-1.33998 2.681689,-1.97677 0.657166,-0.84629 0.516586,-1.9924 0.625,-2.9961 0.86891,1.63232 1.728073,3.27056 2.630859,4.88477 1.576183,-1.11382 3.150421,-2.22967 4.701172,-3.37891 0.212626,1.6285 1.534072,3.27121 3.267808,3.28144 1.198683,-0.0675 2.056278,-1.24987 2.866958,-1.81073 0.435627,1.56544 2.378364,2.19372 3.769531,1.51172 0.681983,-0.51539 0.324144,0.2115 0.232422,0.67187 2.069835,-0.1615 4.144544,-0.26885 6.208984,-0.49219 0.0536,-1.10838 -0.469059,-2.14486 -0.466819,-3.25753 -0.189707,-2.22379 -0.358498,-4.40324 -0.306618,-6.63505 0.768935,-0.0524 1.492438,0.56536 2.238281,0.29883 -0.0109,0.40826 -0.299573,0.56458 -0.654297,0.61133 -0.798378,0.34075 -0.905558,1.69 -0.236328,2.1836 0.505487,0.0876 0.80872,0.076 0.618828,0.73412 -0.16313,2.71692 -0.353879,5.457 -0.960141,8.11578 -0.153459,0.58789 -0.306974,1.17575 -0.461422,1.76338 1.753411,-0.24839 3.520408,-0.39323 5.285157,-0.48243 0.664429,-0.18813 0.556271,-0.96186 0.318359,-1.44726 -0.491383,-2.64956 -0.711461,-5.31829 -0.714844,-7.99609 -0.19782,-0.7833 0.494473,-0.51526 0.940212,-0.36993 0.567077,0.15906 1.132516,0.32403 1.69846,0.48711 0,-1.13737 0,-2.27474 0,-3.41211 0.538315,0.14889 1.474744,-0.041 1.207259,0.79919 0.08293,2.08549 -0.1202,4.21909 0.365007,6.26527 0.336296,0.8741 1.015116,1.85568 2.080078,1.73242 1.360739,-0.0551 2.499657,-1.09009 3.052734,-2.2793 0.78738,1.88761 3.173356,2.77675 5.030697,1.98948 0.860416,-0.31169 1.516803,-0.96754 2.209538,-1.53635 0.716588,1.51404 2.577594,2.01291 4.113281,1.67773 1.690209,-0.27136 3.37607,-1.5626 3.434888,-3.39051 0.235049,-1.39247 -0.930881,-2.4147 -1.938965,-3.15023 -0.368659,-0.29907 -0.738009,-0.59884 -1.085767,-0.92215 1.783222,0.084 3.021393,-1.88344 2.669922,-3.52148 1.770094,0.82643 4.045163,0.21851 5.341797,-1.19336 0.969349,-1.17195 1.077487,-3.06005 -0.07227,-4.15821 -0.661284,-0.75748 -1.574198,-1.21015 -2.345703,-1.83398 1.097383,0.1338 2.187796,-0.50974 2.552121,-1.56266 0.726629,-1.37036 0.313388,-3.40144 -1.25096,-3.96729 -0.236908,-0.23697 -1.19698,-0.0597 -0.928114,-0.37044 1.3277,-1.67409 1.140537,-4.63176 -0.904297,-5.66016 -1.406242,-0.65874 -3.061119,-0.0726 -4.171875,0.89258 0.151514,-0.58899 0.394803,-1.60334 -0.460937,-1.73047 -1.172124,0.2176 -2.349967,0.49001 -3.490235,0.84375 -0.389086,0.46187 -0.520605,0.16117 -0.824218,-0.19726 -1.411803,-1.33137 -3.776214,-0.86228 -4.996661,0.50177 -1.59669,1.60155 -2.269572,3.90817 -2.239212,6.1286 -0.106854,0.66411 -0.177181,1.52867 -0.748503,1.94384 -0.393764,-0.2107 -0.212082,-0.83983 -0.342568,-1.20287 -0.104073,-1.45034 -0.321062,-3.04903 0.01054,-4.53541 0.732093,0.27276 1.222377,-0.51806 1.111447,-1.17093 0.05569,-0.68213 0.01472,-1.75024 -0.880978,-1.80368 -0.209168,-0.2172 0.10152,-0.85626 0.08402,-1.23993 0.155276,-1.2322 0.27052,-2.46877 0.404257,-3.70343 -1.392566,0.41346 -2.779685,0.92081 -4.236328,1.02149 -0.889423,0.26263 -0.488103,1.30811 -0.393778,1.95387 0.102581,0.71672 0.181332,1.4404 0.171122,2.16527 -0.691832,-0.022 -1.189018,-0.20344 -0.85816,-0.97306 0.184087,-1.35055 0.383161,-2.75223 0.598394,-4.11874 -1.445116,0.38206 -2.90217,0.77711 -4.371093,1.00781 -0.765637,0.45173 -0.387666,1.51829 -0.398371,2.2421 0.0638,0.63891 0.118168,1.27863 0.210871,1.91416 -0.657214,0.40976 -0.434308,-0.16281 -0.430422,-0.65379 -0.231176,-0.22396 -0.95494,0.0382 -1.358475,0.0495 -2.30307,0.46703 -4.945385,0.61499 -6.703644,2.37222 -0.670504,0.67685 -1.174372,1.66223 -1.482069,2.4625 0.526816,-3.41736 1.142076,-6.82076 1.705078,-10.23242 0.498909,-0.23042 0.369583,0.63184 0.688453,0.8832 0.563692,0.9434 1.859306,1.69492 2.880697,0.97098 1.617589,-0.85356 2.581024,-2.71003 2.694522,-4.4948 0.03669,-0.77 -1.012401,-0.96835 -1.330078,-0.29297 -0.281666,0.33667 -0.351765,0.87018 -0.697266,1.12305 -0.597826,-0.93503 -0.405949,-2.14154 -0.493272,-3.20308 -0.05046,-4.39563 0.198653,-8.75058 0.909288,-13.10357 -0.265625,0.0801 -0.53125,0.16016 -0.796875,0.24024 z m -13.957031,7.55664 c 0.02607,1.60382 0.02241,3.25751 -0.425072,4.80798 -0.212986,0.47352 -0.676189,1.14237 -1.254616,1.03772 -0.716881,-1.00941 -0.302039,-2.39084 0.04603,-3.47466 0.401724,-0.89355 0.957615,-1.72117 1.625849,-2.43745 z m 10.277344,2.65234 c -0.07509,1.70762 -0.07201,3.43216 -0.302735,5.125 -0.341066,0.1949 -0.946385,0.0365 -1.380675,0.005 -0.825028,-0.0928 -0.383794,-1.11161 -0.283387,-1.6183 0.312522,-1.33882 1.066993,-2.51534 1.964843,-3.53711 z m 22.998046,15.15235 c -0.0749,1.0279 -0.766648,1.899 -1.49414,2.57812 0.251145,-0.94414 0.611834,-2.01409 1.417257,-2.61549 0.03059,-0.0146 0.116842,-0.0601 0.07688,0.0374 z m -15.636718,0.75 c 0.611938,0.02 0.823695,0.22752 0.698332,0.86753 -0.09795,1.67489 0.04299,3.41413 -0.479582,5.02895 -0.407682,0.7405 -0.65928,-0.2154 -0.564069,-0.64554 -0.121178,-1.75975 0.05697,-3.52551 0.306256,-5.26657 z m 5.613281,0.61523 c -0.09682,1.7409 -0.03894,3.49255 -0.491931,5.19763 -0.168611,0.43599 -0.670518,0.51084 -0.554472,-0.0584 -0.18868,-1.7553 -0.239364,-3.59226 -0.264144,-5.31306 0.445824,0.0699 0.931013,-0.0125 1.300781,-0.27734 0.0033,0.15039 0.0065,0.30078 0.0098,0.45117 z m 18.75,-0.42578 c 0.641504,0.53028 0.190419,1.54921 -0.18843,2.12864 -0.52056,0.65044 -1.219897,1.13391 -1.817429,1.7112 0.662994,0.21593 1.288771,0.56593 1.980468,0.68164 -1.768798,1.47175 -1.942749,4.34673 -0.481213,6.09326 0.539679,0.83765 1.464002,1.53551 1.76051,2.45948 -0.327046,0.13008 -0.715224,0.11935 -0.761719,-0.32031 -0.303807,-0.61511 -0.492751,-1.60186 -1.28028,-1.69841 -1.010975,0.2216 -1.195896,1.4868 -1.256353,2.36326 -0.126751,0.29921 0.383761,1.12998 -0.236804,0.77655 -1.967132,-0.43167 -4.060011,0.86714 -4.642927,2.7789 -0.791758,1.84221 0.08793,3.89127 1.379268,5.26125 0.389076,0.46587 0.86682,0.9013 1.062487,1.48915 -0.769538,0.13576 -0.868983,-0.8906 -1.232119,-1.34609 -0.155025,-0.491 -0.682659,-0.69744 -1.112147,-0.39428 -1.198231,0.63943 -2.298421,1.95663 -3.800182,1.58805 -0.753559,-0.2058 -1.098096,-1.17269 -1.113365,-1.80276 2.702234,0.13975 4.861764,-2.69979 4.35671,-5.278 -0.15132,-1.39794 -1.54773,-2.35032 -2.903842,-2.20708 -2.026496,-0.0321 -3.690296,1.55137 -4.340089,3.37595 -0.749981,1.73502 -0.69212,3.65498 -1.071295,5.47185 -0.016,0.60471 -0.591753,0.5738 -0.549323,-0.0214 -0.462066,-2.25107 -0.120553,-4.68055 -0.01351,-6.9657 0.09311,-1.76724 0.359813,-3.52319 0.57799,-5.27215 -0.01503,-0.78422 -0.918272,-0.73241 -1.437118,-0.47892 -1.010544,0.39363 -2.292477,0.31872 -3.082413,1.14298 -0.219328,0.67441 0.05607,1.42546 -0.01094,2.13425 0.03125,1.08254 0.04499,2.16563 0.05586,3.24856 -0.359952,-1.3701 -1.265487,-2.97798 -2.873435,-2.97725 -0.709851,-0.0101 -1.419076,0.19749 -2.032815,0.54952 -0.352963,-1.36775 -0.949554,-2.95778 -2.345703,-3.55469 -1.172781,-0.29713 -2.526084,-0.20821 -3.587891,0.39648 -1.315172,1.09779 -1.799916,2.83736 -2.162109,4.44141 -0.287336,0.17605 -0.853545,0.0787 -1.060547,0.47656 0.140805,-0.51129 -0.04997,-1.1775 -0.69336,-1.07226 -1.753268,0.15837 -3.490842,0.51564 -5.212935,0.8726 -2.476835,0.58433 -4.417175,2.73768 -4.82373,5.23764 -0.115467,0.41783 -0.105511,1.46188 -0.266069,0.45421 -1.105748,-4.86498 -1.535044,-9.8086 -1.678475,-14.7769 -0.0055,-0.76395 -0.0423,-1.80039 0.01832,-2.40083 0.316103,1.20083 1.876602,1.86183 2.93164,1.23437 0.348883,-0.27461 0.131579,0.93077 0.245064,1.26884 0.06016,1.85281 0.335949,3.83014 -0.266248,5.64476 -0.133803,0.58388 -1.009971,0.30943 -0.988049,0.98423 -0.368031,0.55644 0.273151,1.19866 0.83506,0.88456 1.989625,-0.75576 4.159851,-0.63306 6.24058,-0.46403 -0.324669,-0.68275 0.423163,0.25085 0.80159,-0.14777 1.076453,-0.48778 2.307152,-0.85902 3.462123,-0.40703 0.560326,0.25936 1.327992,-0.18772 1.054646,-0.84559 -0.884336,-2.12968 -1.325549,-4.42911 -1.318359,-6.73438 0.08489,1.48872 0.612621,3.31002 2.214303,3.78442 1.184371,0.52069 2.364611,-0.33377 3.067004,-1.23868 0.296373,-0.58029 0.365304,0.0496 0.587833,0.32926 0.731745,1.21685 2.493838,1.36245 3.547991,0.4888 0.440658,-0.3095 0.810339,-0.70587 1.151228,-1.11965 0.393483,1.43496 2.340983,2.21777 3.515226,1.19224 0.507407,-0.35369 0.934897,-0.80612 1.316805,-1.2899 0.37402,1.20294 1.692822,2.14994 2.949219,1.64648 1.005283,-0.35245 1.72234,-1.23184 2.193359,-2.15429 0.846455,1.46817 2.555912,2.66456 4.312933,2.2364 0.710843,-0.14132 1.393184,-0.43769 1.97613,-0.86922 -0.406875,0.50903 -0.04177,1.28912 0.627197,1.22027 1.523352,-0.0346 3.052122,-0.1735 4.55835,-0.40972 0.07477,-1.06165 -0.457271,-2.05036 -0.463939,-3.11495 -0.117823,-1.49918 -0.340448,-2.95796 -0.177104,-4.46328 0.451586,-1.02032 1.463432,-1.85034 2.502371,-2.22255 z m -28.371094,0.25 c 0.04821,1.55754 0.07508,3.16883 -0.359375,4.67578 -0.273244,0.46564 -0.699974,1.0627 -1.277344,1.0918 -0.581,-0.88437 -0.339463,-2.08156 -0.0665,-3.04612 0.342562,-1.0434 0.8694,-2.06024 1.689551,-2.80935 z m 22.189453,1.16016 c 0.0011,1.10555 0.257841,2.2991 -0.163274,3.34832 -0.650905,1.11142 -2.510344,1.72311 -3.487541,0.71109 -0.2694,-0.39133 -0.481295,-0.82763 -0.595279,-1.28988 1.848544,0.0688 3.569552,-1.21912 4.236329,-2.90821 l 0.007,0.0998 z m -33.552734,0.91601 c 0.934424,0.0162 1.868382,0.1438 2.761719,0.42383 -0.02661,3.13788 -0.141791,6.24061 -0.576172,9.34961 -0.170677,0.41962 -0.464322,0.80473 -0.517578,1.26562 -0.197208,-1.13396 -1.41547,-1.45947 -2.171998,-2.11193 -0.815566,-0.98425 -0.347471,-2.36507 -0.418862,-3.52504 0.05763,-1.80069 0.115261,-3.60139 0.172891,-5.40209 0.25,0 0.5,0 0.75,0 z m 42.626953,3.62891 c 0.261147,0.72848 -0.498808,1.182 -0.902344,1.65039 0.110671,-0.59833 0.331433,-1.36857 0.902344,-1.65039 z m -31.064453,7.19726 c -0.131907,0.62498 -0.617637,1.09812 -0.917969,1.64649 0.18749,-0.55073 0.382701,-1.4576 0.917969,-1.64649 z m -0.322266,2.11524 c 0.561274,0.0719 1.120831,0.15782 1.683594,0.21679 -0.845938,0.11152 -1.691369,0.22685 -2.537109,0.33985 0.05019,-0.6596 0.22231,-0.73645 0.853515,-0.55664 z m 1.867188,0.23633 c 0.738893,-0.13304 0.253518,0.33289 0.103515,0.71289 -0.251109,0.74784 -0.279674,0.64477 -0.248047,-0.12617 0.0662,-0.15817 -0.150076,-0.69452 0.144532,-0.58672 z m 3.908203,0.88672 c -0.09598,0.28489 -0.845799,1.28365 -0.394531,0.50781 0.08935,-0.15688 0.323667,-0.53097 0.394531,-0.50781 z m 12.648437,0.29882 c -0.241841,0.99305 -0.750261,1.98403 -1.582031,2.60938 0.274916,-1.01243 0.697293,-2.10959 1.59375,-2.72266 l -0.01029,0.0995 z m 7.251954,0.1543 c 0.103781,0.66184 -0.490417,1.02693 -0.931641,1.38086 0.15343,-0.59902 0.458936,-1.17374 0.919922,-1.5918 0.0039,0.0703 0.0078,0.14063 0.01172,0.21094 z m -31.613282,1.04688 c 0.192874,0.4521 0.929464,0.1939 1.088031,0.44163 -0.171717,1.78841 -0.02455,3.65402 -0.615375,5.37282 -0.134497,0.34474 -0.83461,0.93936 -1.003906,0.3164 -0.187435,-2.07459 0.103485,-4.17541 0.457032,-6.2207 l 0.06369,0.0771 z m 10.861328,0.22851 c 0.198931,0.64632 1.093213,0.36146 1.608215,0.51413 1.031947,0.0833 -0.52227,0.17499 -0.87534,0.265 -0.585999,0.16719 -1.118478,0.16919 -0.800921,-0.5713 0.0067,-0.0161 0.05838,-0.35068 0.06805,-0.20783 z m -15.248046,0.32422 c 0.05334,1.53109 -0.0257,2.975 -0.339844,4.42187 -0.189749,0.7003 -0.817341,1.49483 -1.601563,1.43555 -0.740182,-0.63625 -0.495692,-1.80666 -0.293804,-2.65324 0.345978,-1.31914 1.237894,-2.43502 2.215679,-3.35262 l 0.01305,0.0992 z" /></g><path
       id="path322"
       style="fill:#f9f9f9"
       d="m 72.358891,117.0094 c -0.228215,-0.012 -0.430833,-0.0106 -0.604098,0.005 -1.27285,0.11605 -1.420171,0.56408 -0.801501,2.43655 1.28135,3.87809 1.232728,7.14514 -0.167432,11.20035 l -0.886251,2.56677 -0.58291,-0.2403 c -0.32028,-0.13225 -1.521751,-0.93502 -2.670121,-1.78387 -2.54958,-1.88457 -2.801731,-1.99584 -3.397209,-1.4981 -1.04781,0.87585 -0.476683,3.55821 1.224215,5.74952 1.0177,1.31113 3.59103,3.48763 5.80068,4.90564 v -5.1e-4 c 2.36474,1.51755 7.65242,3.45599 10.81691,3.96565 3.48438,0.56118 6.478553,0.44046 8.409823,-0.33952 1.5392,-0.62164 1.675225,-0.7427 2.144055,-1.90583 0.77372,-1.91949 0.433799,-2.23094 -1.927531,-1.7663 -1.96905,0.38748 -4.014339,0.42473 -4.848799,0.0884 -0.35173,-0.14178 -0.388553,-0.37484 -0.156063,-0.99012 0.1672,-0.44252 0.519594,-1.4878 0.783414,-2.32286 0.56436,-1.7867 2.322238,-4.68098 3.847828,-6.33553 0.98739,-1.07085 1.774781,-1.63408 4.101041,-2.93418 0.78716,-0.4399 0.801599,-0.46925 0.557589,-1.13275 -0.31457,-0.85539 -1.820862,-2.07064 -4.631242,-3.73569 -4.341862,-2.5724 -13.589177,-5.75314 -17.012398,-5.93245 z" /><path
       id="path20"
       style="fill:#000000"
       d="m 70.274333,140.35092 c -2.20965,-1.41801 -4.78307,-3.59417 -5.80077,-4.9053 -1.700898,-2.19131 -2.272088,-4.87384 -1.224278,-5.74969 0.595478,-0.49774 0.847808,-0.38647 3.397388,1.4981 1.14837,0.84885 2.35,1.65156 2.67028,1.78381 l 0.58244,0.24016 0.88624,-2.56678 c 1.40016,-4.05521 1.4491,-7.32221 0.16775,-11.2003 -0.61867,-1.87247 -0.4713,-2.32043 0.80155,-2.43648 2.77224,-0.25276 12.98498,3.18362 17.6163,5.92751 2.81038,1.66505 4.31675,2.88002 4.63132,3.73541 0.24401,0.6635 0.22942,0.69315 -0.55774,1.13305 -2.32626,1.3001 -3.11361,1.86346 -4.101,2.93431 -1.52559,1.65455 -3.28322,4.54861 -3.84758,6.33531 -0.26382,0.83506 -0.61639,1.88037 -0.78359,2.32289 -0.23249,0.61528 -0.19579,0.8482 0.15594,0.98998 0.83446,0.33636 2.88014,0.29908 4.84919,-0.0884 2.36133,-0.46464 2.70108,-0.15331 1.92736,1.76618 -0.46883,1.16313 -0.60509,1.28424 -2.14429,1.90588 -1.93127,0.77998 -4.92544,0.90096 -8.40982,0.33978 -3.16449,-0.50966 -8.45186,-2.44819 -10.8166,-3.96574 z m 7.77046,1.66713 c -0.14127,-0.13608 -0.41734,-0.24736 -0.61349,-0.24729 -0.19615,8e-5 -0.0806,0.11141 0.25686,0.24742 0.33742,0.13601 0.49792,0.13591 0.35663,-1.3e-4 z m 0.0744,-0.36162 c 2.28853,0.52982 2.60272,0.537 2.25339,0.0515 -0.14803,-0.20573 -0.43478,-0.44081 -0.63724,-0.52241 -0.32719,-0.13189 -0.33886,-0.10295 -0.10514,0.26084 0.20593,0.32049 0.12752,0.3278 -0.36156,0.0337 -0.34349,-0.20649 -0.60625,-0.26927 -0.58392,-0.13952 0.0371,0.21583 -1.6428,-0.23863 -4.89651,-1.32459 -0.79488,-0.26531 -0.54154,-0.11305 0.68889,0.41409 1.07037,0.45851 2.70927,1.01044 3.64208,1.22635 z m 5.14318,1.9108 c -0.0487,-0.11439 -0.25682,-0.20843 -0.46253,-0.20898 -0.22735,-5.3e-4 -0.19263,0.081 0.0885,0.20803 0.25438,0.11493 0.42272,0.1153 0.37403,9.4e-4 z m -16.47241,-7.06706 c -0.20366,-0.31957 -0.13966,-0.32052 0.28699,-0.004 0.30201,0.22384 2.24547,1.13487 4.31883,2.02442 2.17034,0.93122 3.38534,1.36997 2.86385,1.03388 -0.81529,-0.52513 -0.73235,-0.51858 0.82939,0.0655 2.02163,0.75613 5.51862,1.53333 6.32616,1.40598 0.46268,-0.073 0.41261,-0.12203 -0.2889,-0.28312 -0.46672,-0.10715 -0.82644,-0.24978 -0.79941,-0.31683 0.0271,-0.0671 0.72735,-0.18044 1.5562,-0.25178 0.82884,-0.0713 1.47312,-0.20931 1.43173,-0.30661 -0.0414,-0.0973 -0.34652,-0.14723 -0.67787,-0.11143 -1.01753,0.11056 -1.05539,-0.087 -0.0599,-0.31243 l 0.94179,-0.21331 -1.0417,-0.24655 c -0.99771,-0.23613 -1.01405,-0.25536 -0.38699,-0.45537 l 0.65472,-0.20882 -0.56049,-0.0249 c -0.30827,-0.0137 -0.91149,-0.10957 -1.34048,-0.21301 l -0.77999,-0.18809 0.90484,0.005 c 1.60626,0.008 1.33935,-0.15836 -0.67086,-0.41801 -1.43899,-0.18587 -2.5562,-0.5203 -4.19089,-1.25452 -1.22586,-0.55062 -2.12813,-0.85997 -2.00472,-0.68826 0.12595,0.17579 -0.27709,0.11271 -0.92005,-0.144 -1.02417,-0.40851 -1.10993,-0.50292 -0.818,-0.89589 0.1794,-0.24149 0.20636,-0.48735 0.0599,-0.54641 -0.14648,-0.059 -0.26952,0.0839 -0.27344,0.31768 -0.005,0.29908 -0.16842,0.36003 -0.55136,0.20567 l -0.54423,-0.21937 0.38479,0.71614 c 0.31637,0.58882 0.30938,0.68745 -0.0393,0.5547 -0.57691,-0.21961 -1.32813,0.42347 -1.10563,0.94646 0.12757,0.29988 0.08,0.36653 -0.19443,0.27231 -0.19986,-0.0686 -0.0398,0.18719 0.35567,0.56845 l 0.71902,0.6932 -1.28385,-0.6931 c -1.42044,-0.76684 -2.74449,-1.85499 -3.39438,-2.7896 -0.23371,-0.33612 -0.49812,-0.57999 -0.58756,-0.54194 -0.0894,0.038 0.39071,0.70569 1.06702,1.48363 0.74824,0.86069 0.9677,1.23308 0.56056,0.9512 -1.21568,-0.84169 -2.5636,-2.79612 -3.09242,-4.48389 -0.44887,-1.43258 -0.54643,-1.57357 -0.70438,-1.01789 -0.248158,0.87306 0.43415,2.35762 1.83647,3.99568 0.84529,0.98739 0.97683,1.24197 0.48076,0.93044 l -0.68293,-0.42888 0.59634,0.64369 c 0.70822,0.76444 1.18931,1.02571 0.81914,0.44484 z m 1.71185,0.5302 c 0.19615,-7e-5 0.47223,0.11121 0.6135,0.24729 0.14127,0.13608 -0.0192,0.13615 -0.35665,1.4e-4 -0.33742,-0.13601 -0.45299,-0.24739 -0.25685,-0.24743 z m -4.50462,-4.97871 -0.322898,-0.91465 0.435028,0.86694 c 0.40662,0.81028 0.48315,1.07214 0.29069,0.99457 -0.0439,-0.0177 -0.22523,-0.44381 -0.40282,-0.94686 z m 20.32575,11.54814 c 0.14205,-0.10445 0.0601,-0.1853 -0.19204,-0.18952 -0.49089,-0.008 -0.63957,0.13632 -0.28659,0.2786 0.127,0.0512 0.34239,0.0111 0.47863,-0.0891 z m 2.151,0.56699 c 0.56063,-0.093 1.71887,-0.46078 2.57386,-0.81735 1.22358,-0.51029 1.52404,-0.74365 1.41129,-1.09614 -0.0788,-0.24632 -0.009,-0.5925 0.15598,-0.7693 0.41289,-0.44359 -0.17999,-0.54705 -1.42379,-0.24845 -0.55899,0.1342 -0.98919,0.17661 -0.956,0.0943 0.0332,-0.0824 -0.55161,-0.0592 -1.29958,0.0515 -0.74797,0.11069 -2.5331,0.16037 -3.96695,0.11038 -2.8032,-0.0977 -2.9462,0.13918 -0.215,0.35619 1.91694,0.15231 4.44562,0.0438 4.85306,-0.20827 0.15357,-0.095 0.24061,-0.0721 0.19343,0.0509 -0.0474,0.12289 0.24561,0.11258 0.65059,-0.023 0.72502,-0.24283 0.72783,-0.24163 0.18255,0.0779 -0.30462,0.17858 -1.17945,0.44359 -1.94408,0.58891 -1.24067,0.23579 -1.30378,0.27817 -0.58671,0.39401 0.44191,0.0714 1.13163,0.0715 1.53271,1.9e-4 0.40107,-0.0713 0.60606,-0.0391 0.45552,0.0716 -0.17206,0.12653 -0.1077,0.20405 0.17327,0.20876 0.32154,0.005 0.41023,-0.10746 0.31601,-0.40205 -0.0932,-0.29131 0.012,-0.45529 0.36427,-0.56796 0.27241,-0.0871 0.46212,-0.0762 0.4216,0.0244 -0.0405,0.10054 0.13555,0.11588 0.39126,0.0341 0.36867,-0.11791 0.42208,-0.0754 0.25791,0.20553 -0.29987,0.51311 -1.69881,1.11589 -3.4871,1.50252 -1.68332,0.36396 -1.72436,0.63824 -0.0541,0.36124 z m 3.30673,-2.73299 c 0.18975,-0.20486 0.38183,-0.28576 0.42693,-0.17974 0.0451,0.10606 -0.11011,0.27362 -0.34492,0.37249 -0.33932,0.14286 -0.35615,0.10331 -0.082,-0.19275 z m -0.39144,1.23245 c 0.40481,-0.21847 0.28061,-0.30681 -0.608,-0.43244 -0.10335,-0.0146 -0.008,0.58927 0.10027,0.63278 0.043,0.0173 0.27147,-0.0728 0.50773,-0.20034 z M 65.827323,132.0488 c 0.12092,0.15332 0.17249,0.15093 0.11461,-0.005 -0.0579,-0.15628 -0.31549,-0.38745 -0.57248,-0.51373 -0.38099,-0.18721 -0.43936,-0.14249 -0.31628,0.24242 0.0994,0.31086 0.21981,0.39107 0.35262,0.23497 0.11092,-0.13038 0.30059,-0.1116 0.42152,0.0417 z m 15.02331,5.19274 c 1.01194,0.15051 1.92846,0.39409 2.03671,0.5413 0.10928,0.14853 0.17219,0.1245 0.14146,-0.0541 -0.0669,-0.38866 0.67663,-0.41443 1.08161,-0.0375 0.1596,0.14854 0.42964,0.1678 0.60042,0.0419 0.21648,-0.15918 0.16775,-0.23052 -0.16126,-0.23604 -0.25933,-0.004 -0.43318,-0.10302 -0.3863,-0.21932 0.0469,-0.11629 0.29474,-0.20793 0.55082,-0.20364 0.25605,0.004 0.42884,-0.0786 0.38392,-0.18414 -0.0449,-0.10554 -0.37174,-0.16063 -0.72646,-0.12189 -0.59529,0.0647 -0.6081,0.0394 -0.16688,-0.32942 0.26286,-0.21972 0.61559,-0.35414 0.78385,-0.2987 0.22895,0.0755 0.24097,0.0383 0.0477,-0.14776 -0.142,-0.1367 -0.13589,-0.33847 0.0136,-0.44839 0.17856,-0.1313 0.0912,-0.20284 -0.25471,-0.20865 -0.50398,-0.008 -0.49982,-0.0218 0.0975,-0.31182 0.40846,-0.19835 0.55599,-0.3954 0.42717,-0.57057 -0.13431,-0.18266 -0.0599,-0.38202 0.23462,-0.62817 0.52514,-0.43895 0.64204,-0.6822 0.29954,-0.62326 -0.14051,0.0242 -0.19063,-0.11684 -0.11142,-0.31335 0.0792,-0.19651 0.26507,-0.31259 0.41301,-0.25794 0.14809,0.0543 0.11657,-0.15469 -0.0697,-0.46519 -0.33484,-0.55806 -0.33177,-0.56364 0.26716,-0.48693 0.46102,0.059 0.63669,-0.0715 0.73472,-0.54585 0.0709,-0.34289 0.25719,-0.64555 0.41416,-0.67254 0.15692,-0.027 0.37312,-0.2669 0.48043,-0.53311 0.1073,-0.26621 0.39186,-0.48072 0.63236,-0.47669 0.39401,0.007 0.41645,-0.0493 0.22695,-0.56458 -0.11568,-0.31454 -0.0983,-0.61957 0.0387,-0.67783 0.13695,-0.0583 0.13157,-0.28308 -0.012,-0.49958 -0.19817,-0.29891 -0.14317,-0.3027 0.22857,-0.0158 0.7445,0.57468 0.70396,0.15423 -0.0486,-0.50394 l -0.66066,-0.5778 0.71526,-0.0884 c 0.44237,-0.0547 0.57673,-0.14977 0.35217,-0.24924 -0.31372,-0.13896 -0.30245,-0.17194 0.0828,-0.24239 0.34631,-0.0633 0.30248,-0.18593 -0.19626,-0.54887 -0.56217,-0.40908 -0.5736,-0.46429 -0.0917,-0.44317 0.36091,0.0158 -0.1368,-0.37975 -1.4456,-1.14889 -2.42237,-1.42358 -8.80867,-3.76635 -11.39357,-4.17968 -1.03399,-0.16533 -1.32616,-0.15957 -0.71888,0.0142 0.94235,0.26962 0.97413,0.30576 0.40288,0.4576 -0.61394,0.16321 -0.61546,0.167 -0.15083,0.37419 0.26961,0.12021 -0.001,0.19422 -0.63599,0.17388 -1.32695,-0.0425 -1.7544,0.0866 -0.83575,0.25237 0.36534,0.066 1.18271,0.26683 1.81636,0.44641 l 1.15209,0.32653 -1.11448,-0.066 c -0.61296,-0.0363 -0.97986,-0.002 -0.81534,0.0765 0.60829,0.28971 0.1049,0.54386 -0.89535,0.45198 l -1.03156,-0.0948 1.26873,0.39101 1.26873,0.39103 -1.11059,-0.0756 c -0.87068,-0.0593 -1.01532,-0.006 -0.66955,0.24563 0.35664,0.25977 0.25632,0.30551 -0.52424,0.23901 -0.53091,-0.0452 -0.76254,0.0111 -0.51473,0.12511 0.38836,0.17875 0.38263,0.24404 -0.0415,0.47292 -0.44564,0.24052 -0.38265,0.29313 0.66746,0.55755 l 1.15953,0.29197 -1.12601,-0.0374 -1.12602,-0.0374 1.2717,0.38364 c 0.89178,0.269 1.09819,0.39124 0.69087,0.40921 -0.31946,0.014 -0.94938,-0.11399 -1.39982,-0.28452 -1.01638,-0.38478 -1.00849,0.18409 0.008,0.59391 0.79325,0.31975 0.81376,0.63664 0.0569,0.87873 -0.71173,0.22764 -0.72203,0.47567 -0.0409,0.98619 0.37494,0.28103 0.45352,0.44653 0.20808,0.43823 -0.28415,-0.01 -0.26648,0.14433 0.0633,0.55076 l 0.45766,0.5641 -0.74034,-0.28645 -0.74035,-0.28645 0.53967,0.7843 c 0.32771,0.47628 0.39097,0.73628 0.16106,0.66202 -0.20825,-0.0672 -0.13818,0.0774 0.15569,0.32147 l 0.5343,0.44376 -0.63032,-0.20556 c -0.58917,-0.1922 -0.60439,-0.17752 -0.23285,0.22381 0.34234,0.36983 0.30997,0.3795 -0.23341,0.0697 -0.347,-0.19777 -0.61052,-0.24178 -0.58575,-0.0974 0.0248,0.14424 0.19791,0.32384 0.38465,0.39911 0.20743,0.0836 0.22578,0.31298 0.0472,0.58955 -0.16079,0.24898 -0.16134,0.50747 -0.001,0.57442 0.17565,0.073 0.10682,0.15728 -0.17284,0.21123 -0.38204,0.0737 -0.40285,0.11492 -0.11785,0.2334 0.19046,0.0789 0.26501,0.17841 0.16587,0.22057 -0.0992,0.0422 -0.34147,-0.0734 -0.53851,-0.25674 -0.28395,-0.26429 -0.27301,-0.34912 0.0527,-0.409 0.32981,-0.0606 0.33887,-0.10633 0.0459,-0.23144 -0.2928,-0.12556 -0.28392,-0.17082 0.0459,-0.23144 0.33784,-0.0621 0.35838,-0.12448 0.11546,-0.3506 -0.21303,-0.19829 -0.36087,-0.0898 -0.52975,0.38862 -0.18249,0.51698 -0.0509,0.87365 0.5951,1.61363 0.45615,0.52247 0.70088,0.94205 0.54385,0.93238 -1.06288,-0.0654 6.30554,2.49454 7.83489,2.72196 z m 3.07851,-1.50602 c 0.25519,-0.0492 0.57441,-0.045 0.70938,0.009 0.13497,0.0544 0.0366,0.1392 -0.21858,0.18842 -0.2552,0.0492 -0.57441,0.045 -0.70938,-0.009 -0.13497,-0.0544 -0.0366,-0.13919 0.21858,-0.18842 z m -12.78919,-2.77721 c -0.142,-0.1367 -0.17384,-0.31056 -0.0708,-0.38636 0.10308,-0.0758 0.0284,-0.20191 -0.166,-0.28026 -0.26668,-0.1075 -0.31914,-0.0353 -0.21374,0.29419 0.0768,0.24016 0.26769,0.47813 0.42417,0.52881 0.17726,0.0574 0.18719,-0.001 0.0263,-0.15638 z m 18.50447,-5.93163 c -0.0487,-0.11439 -0.25682,-0.20843 -0.46254,-0.20898 -0.22734,-5.3e-4 -0.19262,0.081 0.0885,0.20803 0.25439,0.11494 0.42273,0.1153 0.37404,9.3e-4 z m -15.33811,-7.66125 c -0.15326,-0.13035 -0.44234,-0.16741 -0.64242,-0.0823 -0.2555,0.1087 -0.17257,0.17926 0.27864,0.23705 0.36682,0.0469 0.52288,-0.0194 0.36378,-0.15477 z m 2.53093,-0.006 c 4.23297,0.90654 7.43806,2.1391 10.99078,4.22665 1.77595,1.04352 3.34317,1.93256 3.4827,1.97563 0.47626,0.14701 -1.92288,-1.57958 -3.2048,-2.30639 -1.14761,-0.65064 -1.1962,-0.71196 -0.47401,-0.59815 0.44259,0.0697 -0.0929,-0.16495 -1.18985,-0.52156 -1.47767,-0.48031 -1.91923,-0.70374 -1.70387,-0.86209 0.41936,-0.30838 -1.82796,-1.16631 -3.74948,-1.43135 -0.8524,-0.11759 -2.72357,-0.47724 -4.15816,-0.79922 -1.43458,-0.32198 -2.82126,-0.54425 -3.0815,-0.49392 -0.36038,0.0697 -0.31474,0.12021 0.19146,0.21195 0.36554,0.0663 1.66907,0.33556 2.89673,0.59847 z m -2.51175,-1.37662 c -0.14127,-0.13608 -0.41734,-0.24737 -0.6135,-0.24729 -0.19615,7e-5 -0.0806,0.11142 0.25686,0.24743 0.33742,0.13601 0.49792,0.1359 0.35664,-1.4e-4 z m 1.57534,0.35154 c -0.13904,-0.13421 -0.46868,-0.27183 -0.73245,-0.30602 -0.26385,-0.034 -0.15008,0.0758 0.25281,0.24398 0.40304,0.16784 0.61877,0.19604 0.47972,0.0619 z m 14.96534,6.03012 c -0.14127,-0.13608 -0.41734,-0.24736 -0.61349,-0.24729 -0.19615,7e-5 -0.0806,0.1114 0.25685,0.24742 0.33742,0.13601 0.49789,0.136 0.35664,-1.3e-4 z m -13.28612,-5.62411 c -0.0487,-0.11439 -0.25682,-0.20842 -0.46253,-0.20897 -0.22735,-5.3e-4 -0.19263,0.081 0.0885,0.20802 0.25439,0.11494 0.42273,0.1153 0.37404,9.4e-4 z m 12.16209,4.88757 c -0.13904,-0.13422 -0.46868,-0.27183 -0.73245,-0.30603 -0.26385,-0.034 -0.15008,0.0758 0.25281,0.24399 0.40303,0.16785 0.61876,0.19604 0.47971,0.0619 z" /><g
       id="g292"
       style="fill:#800080;stroke:none;stroke-opacity:1"><path
         style="fill:#800080;stroke:none;stroke-opacity:1"
         d="m 90.730928,166.38624 c -1.07611,-0.48434 -1.68759,-1.38529 -1.68759,-2.48648 0,-0.92364 0.39362,-1.90811 0.76292,-1.90811 0.11833,0 0.40556,0.48476 0.6383,1.07725 0.37098,0.94444 0.51428,1.06676 1.162344,0.99219 1.145354,-0.1318 1.028554,-0.80599 -0.427997,-2.47048 -1.412127,-1.61372 -1.784637,-2.66695 -1.493027,-4.22138 0.36025,-1.92031 2.352824,-3.29199 4.261888,-2.93385 1.56276,0.29318 2.16995,1.9309 1.32306,3.5686 -0.41388,0.80036 -0.88668,1.07726 -1.83941,1.07726 -0.952667,0 -0.985717,-0.2821 -0.12703,-1.08423 0.58594,-0.54735 0.78005,-0.94353 0.71832,-1.46614 -0.11084,-0.93844 -0.56776,-1.05845 -1.24838,-0.3279 -0.628587,0.67471 -0.955444,2.03652 -0.689737,2.8737 0.0996,0.31383 0.817707,0.97783 1.595767,1.47555 2.17862,1.39364 2.69913,2.52824 1.93213,4.21161 -0.66315,1.45546 -3.303097,2.33286 -4.881558,1.62241 z"
         id="path197" /><path
         id="path193"
         style="fill:#800080;stroke:none;stroke-opacity:1"
         d="m 83.959681,159.69648 c 0.13637,-0.26562 0.33005,-0.82562 0.4304,-1.24445 l 0.18244,-0.76151 -0.80705,0.80705 c -0.99073,0.99073 -2.39913,1.48519 -3.59263,1.26128 -1.0355,-0.19426 -2.42956,-1.4692 -2.67478,-2.44623 -0.16139,-0.64303 -0.19079,-0.62414 -0.74659,0.47978 -1.1518,2.28768 -3.22145,2.68364 -4.073996,0.77942 l -0.45663,-1.01992 -0.83759,0.99767 c -0.46067,0.54871 -1.15306,1.07684 -1.53864,1.17361 -0.938407,0.23553 -1.941887,-0.44553 -2.143777,-1.45498 l -0.1578,-0.78903 -0.89475,1.04531 c -1.06999,1.25005 -2.19647,1.59438 -3.157,0.96502 -0.36285,-0.23775 -0.73074,-0.78733 -0.81753,-1.2213 l -0.15781,-0.78903 -0.89886,1.05013 c -1.06718,1.24675 -1.716969,1.50331 -2.737185,1.08072 -1.194325,-0.49471 -1.71885,-1.86948 -1.71885,-4.5051 0,-1.90082 0.106547,-2.46349 0.675915,-3.56945 0.991313,-1.92556 2.22909,-2.67579 5.4095,-3.27877 1.45521,-0.27589 2.67031,-0.47868 2.70022,-0.45064 0.0299,0.028 -0.12374,1.15761 -0.34146,2.51016 -0.21772,1.35255 -0.36125,3.37198 -0.31897,4.48762 0.0694,1.8306 0.13112,2.03619 0.63306,2.10787 0.99908,0.14266 1.34825,-0.85847 1.45912,-4.18356 0.1009,-3.0256 0.0986,-3.03923 -0.49395,-2.95684 -0.32742,0.0455 -0.59531,-0.034 -0.59531,-0.1768 0,-0.60887 0.35461,-1.0966 0.79729,-1.0966 0.31177,0 0.44461,-0.15981 0.38489,-0.46302 -0.0502,-0.25466 -0.15625,-1.20716 -0.23576,-2.11667 -0.12754,-1.45903 -0.0895,-1.65364 0.32289,-1.65364 0.2571,0 1.10168,-0.16452 1.876837,-0.36559 l 1.40939,-0.3656 -0.14841,0.96091 c -0.0816,0.5285 -0.22668,1.56849 -0.32233,2.3111 l -0.17391,1.35021 0.85575,0.17115 c 0.47067,0.0941 0.9685,0.17115 1.1063,0.17115 0.23039,0 0.11208,-2.1165 -0.20335,-3.63802 -0.10036,-0.48407 -0.007,-0.59531 0.50103,-0.59531 0.34344,0 1.189856,-0.17017 1.880916,-0.37815 l 1.25649,-0.37814 -0.17002,1.63491 c -0.0935,0.89921 -0.23274,1.96234 -0.30941,2.36252 -0.11594,0.60517 -0.0468,0.72761 0.41079,0.72761 0.4633,0 0.55019,0.16322 0.55019,1.03356 0,0.8919 -0.0702,1.0152 -0.51222,0.89961 -0.41899,-0.10956 -0.546,0.0461 -0.69783,0.85543 -0.19559,1.04259 0.005,4.72446 0.29986,5.49168 0.0952,0.24803 0.40452,0.45097 0.68742,0.45097 0.68824,0 1.28111,-1.46079 1.28111,-3.15658 0,-2.7001 1.6952,-5.52768 3.65009,-6.08833 1.36617,-0.39181 2.66934,0.11129 3.12729,1.20733 0.9446,2.26073 -1.07807,5.12716 -3.61793,5.12716 -0.77706,0 -0.82346,0.051 -0.66266,0.7276 0.0951,0.40019 0.38781,1.02526 0.65045,1.38907 1.04075,1.4416 4.05526,0.65862 4.58393,-1.19063 0.21222,-0.74229 0.0906,-3.71469 -0.22877,-5.59038 -0.13841,-0.81296 -0.11549,-0.83365 1.27155,-1.14758 0.77688,-0.17584 1.63293,-0.38069 1.90233,-0.45523 0.4293,-0.11878 0.46773,-0.026 0.31098,0.75071 -0.0984,0.48743 -0.24691,1.12418 -0.33009,1.415 -0.11494,0.40188 0.10823,0.29436 0.93001,-0.44807 1.88579,-1.7037 4.08324,-1.60377 4.95112,0.22515 0.52436,1.10499 0.33927,2.66461 -0.4327,3.646 -0.63876,0.81205 -2.1417,1.27259 -3.03932,0.93131 l -0.64701,-0.24599 0.81816,-0.73108 c 1.01223,-0.90451 1.36834,-2.6511 0.66033,-3.2387 -0.38409,-0.31877 -0.57211,-0.30032 -1.38143,0.13552 -0.51526,0.27749 -1.23817,0.89961 -1.60649,1.38249 -0.64542,0.84618 -0.6638,0.97576 -0.50797,3.57962 0.0889,1.4859 0.28317,3.11048 0.43163,3.61017 0.14847,0.49968 0.24222,0.93089 0.20832,0.95824 -0.0339,0.0274 -1.05287,0.1335 -2.2644,0.23589 -2.07738,0.17556 -2.18867,0.15866 -1.95483,-0.29679 z m -22.118963,-3.45951 c 0.56905,-0.61103 0.70454,-1.07009 0.84567,-2.86523 0.0924,-1.17569 0.0912,-2.52187 -0.003,-2.99151 l -0.17077,-0.85389 -0.79115,0.74256 c -1.15408,1.08318 -2.041482,3.13378 -2.044559,4.72453 -0.004,2.05536 0.915369,2.58377 2.163539,1.24354 z m 9.811937,0.26459 c 0.30702,-0.33975 0.4688,-1.32592 0.60766,-3.70417 0.19092,-3.26993 0.0733,-3.74142 -0.72118,-2.89093 -0.17993,0.19262 -0.61662,0.29488 -0.97042,0.22725 l -0.64326,-0.12297 0.11232,3.15037 c 0.0618,1.7327 0.20314,3.29732 0.31414,3.47692 0.28469,0.46062 0.81107,0.4054 1.30074,-0.13647 z m 9.837106,-4.92045 c 1.21101,-1.58771 1.15453,-3.23579 -0.0881,-2.57075 -0.63885,0.3419 -1.61874,2.33018 -1.61874,3.28456 0,0.63256 0.0627,0.68599 0.51841,0.44208 0.28513,-0.1526 0.81992,-0.67274 1.18843,-1.15589 z" /><path
         style="fill:#800080;stroke:none;stroke-opacity:1"
         d="m 46.541349,163.97541 c 1.618919,-0.81107 0.68798,-7.14405 0.693906,-9.49062 0.0034,-1.35135 -0.04778,-1.51085 -0.392951,-1.22438 -0.242176,0.20099 -0.396875,0.78085 -0.396875,1.48761 0,1.09651 -0.04011,1.15823 -0.752743,1.15823 -0.99079,0 -1.628507,-0.74536 -1.628507,-1.90338 0,-1.175 0.752753,-2.15685 2.114051,-2.75745 l 1.043018,-0.46018 -0.116602,-1.47439 c -0.06413,-0.81092 -0.179062,-2.32761 -0.255402,-3.37042 -0.07634,-1.04282 -1.705559,-1.92694 -1.78706,-2.13933 -0.113957,-0.29696 1.755496,-0.60517 3.099254,-0.85872 0.961049,-0.18134 1.791293,-0.28545 1.844987,-0.23136 0.05369,0.0541 -1.077483,1.06278 -0.846975,5.09088 0.139873,2.44426 0.374791,3.07726 0.966573,3.07726 0.278076,0 1.248576,0.23125 2.156667,0.51388 l 1.651073,0.51387 0.467605,-6.26572 c 0.148459,-1.9893 -2.127435,-1.25307 -1.758973,-1.39493 1.660649,-1.21491 3.403015,-1.50895 5.418136,-1.88904 l -1.425844,8.43873 c -1.248469,7.38895 0.223195,10.81142 0.822793,12.37395 0.140819,0.36697 0.04665,0.40518 -0.593704,0.24094 -2.666302,-0.91721 -4.816743,2.03316 -3.387944,-0.62543 0.256102,-0.46311 0.623437,-6.16858 0.634396,-8.38808 l 0.0081,-1.64121 -0.992187,-0.27554 c -0.545703,-0.15155 -1.570891,-0.27621 -2.278196,-0.27702 l -1.286008,-0.001 -0.245197,7.74138 c -0.09868,3.11545 2.321362,2.25253 2.675894,4.00522 -5.56031,-0.49836 -6.306514,1.40408 -5.821613,0.14045 z"
         id="path175" /><path
         id="path174"
         style="fill:#800080;stroke:none;stroke-opacity:1"
         d="m 38.116376,144.79227 c -0.917652,0 4.223106,1.99687 0.968849,-14.13159 -0.685355,-3.3967 -0.206367,-3.75891 -0.516694,-3.0427 -0.514081,1.18644 -1.038063,3.94359 -1.244498,6.54843 l -0.183472,2.31511 h -0.957549 c -0.526652,0 -1.343716,0.11075 -1.815698,0.24611 l -0.858149,0.24611 v -1.84476 c 0,-2.18574 -0.608929,-5.34316 -1.333611,-6.91503 l -0.518724,-1.12514 c -1.121548,7.99785 -0.775595,12.33446 0.08339,14.94895 0.798135,2.42929 1.957247,2.27182 1.932622,2.29976 -0.07307,0.0829 -5.549971,0.60649 -6.022788,0.60866 -0.371292,0.002 0.660095,-0.14361 0.87473,-0.99018 0.334132,-1.3179 0.609442,-13.17563 0.366181,-15.77159 -0.161127,-1.71947 -0.251519,-1.99745 -0.564932,-1.73734 -0.205212,0.17031 -0.373113,0.7118 -0.373113,1.2033 0,1.04359 -0.504747,1.18265 -1.322917,0.36448 -0.691642,-0.69164 -0.669774,-1.56723 0.06615,-2.64852 1.367528,-2.00932 3.570049,-2.66264 5.198559,-1.54203 1.221867,0.84079 2.424226,3.07258 3.112882,5.77805 0.618831,2.43115 0.636825,2.42362 1.263986,-0.52917 0.879276,-4.13978 2.523937,-6.35 4.725151,-6.35 1.237677,0 3.138067,0.22531 3.138067,1.29999 0,0.70806 -1.042714,1.82709 -1.547012,1.32279 -0.600536,-0.60053 -0.720227,0.54689 -0.719598,6.89842 6.03e-4,6.09323 1.401529,10.57415 1.983902,12.10591 0.220862,0.58091 -0.877797,0.598 -2.478111,0.60151 -0.905903,0.002 -2.464237,0.0806 -2.816204,0.17482 -0.550819,0.14736 0.02612,-0.33435 -0.44139,-0.33435 z m 6.827232,-4.22577 c -1.036898,-0.72627 -1.481834,-1.93976 -1.4978,-4.08498 -0.028,-3.76214 1.717483,-6.26936 4.779981,-6.86598 0.855388,-0.16665 2.089518,-0.40797 2.742511,-0.53628 0.652994,-0.12831 1.235548,-0.185 1.294564,-0.12599 0.05902,0.059 -0.03148,0.79475 -0.201102,1.63496 -0.41387,2.05008 -0.676964,5.92412 -0.460807,6.78536 0.439206,1.74994 3.543972,4.11986 2.739554,2.10619 -1.194184,-2.98935 1.477106,-6.64514 4.17178,-7.22691 0.452685,-0.0977 0.783603,-0.33451 0.770135,-0.55105 -0.01299,-0.20882 -0.100459,-3.76965 -0.194381,-4.67916 -0.165578,-1.60341 -0.152072,-1.65364 0.444585,-1.65364 0.338444,0 1.182379,-0.17066 1.875422,-0.37923 l 1.260071,-0.37922 -0.163089,1.10683 c -0.662451,4.49583 -0.851051,12.40615 -0.406956,14.00526 0.346671,1.2483 1.109804,1.34201 1.615999,0.19844 0.466372,-1.05361 0.83985,-1.0132 0.611305,0.0661 -0.296092,1.39834 -1.192788,2.76628 -2.151896,3.28279 -0.816572,0.43976 -0.960357,0.44689 -1.613866,0.0801 -0.394584,-0.22148 -0.833282,-0.75619 -0.974885,-1.18825 -0.141602,-0.43206 -0.283315,-0.82649 -0.314918,-0.8765 -0.0316,-0.05 -2.429024,0.7674 -3.338701,0.59531 -2.773495,-0.52468 -3.36979,-0.51034 -5.678052,-2.1972 l -1.433929,-1.05716 -1.127339,1.17656 c -1.202976,1.25549 -1.80651,1.42319 -2.748186,0.76362 z m 3.224634,-3.15665 c 0.439892,-0.47465 0.658542,-1.11504 0.781116,-2.28777 0.241441,-2.30998 0.210843,-4.14048 -0.07213,-4.31537 -0.388941,-0.24038 -2.07293,1.92304 -2.521406,3.23924 -1.033992,3.0346 0.124642,5.18505 1.812425,3.3639 z m 10.318888,2.64568 c 0.78211,0 0.635211,-1.04143 0.797108,-3.59998 0.102342,-1.61736 0.107478,-3.01731 0.01141,-3.111 -0.315928,-0.30809 -2.186726,2.07246 -2.613894,3.32613 -1.040743,3.05441 -0.687643,3.38485 1.805372,3.38485 z"
         sodipodi:nodetypes="sssscsscsscsscsssssssssscsssscsscssssssscsssscsssssssssscsccssssssssssss" /><path
         id="path192"
         style="fill:#800080;stroke:none;stroke-opacity:1"
         d="m 72.191922,177.28021 c -0.18496,-0.0744 -0.5328,-0.5115 -0.77296,-0.9713 -0.36737,-0.70331 -0.44203,-1.84383 -0.4704,-7.18599 -0.0186,-3.4925 -0.0874,-6.51479 -0.15308,-6.7162 -0.0831,-0.25502 0.28227,-0.46196 1.20357,-0.68164 0.72761,-0.17349 1.57606,-0.399 1.88546,-0.50112 0.53512,-0.17664 0.55215,-0.13006 0.34933,0.95557 -0.39245,2.1007 -0.81758,8.74671 -0.64617,10.10172 0.24711,1.95353 0.3757,2.26563 0.93344,2.26563 0.69626,0 0.95058,-0.62372 1.14421,-2.80622 0.37554,-4.23279 2.03971,-6.52636 4.73543,-6.52636 1.48912,0 2.31422,0.86806 2.31294,2.43338 -0.002,2.12064 -1.70263,3.98557 -3.63703,3.98779 -0.94773,0.001 -1.03024,0.22713 -0.56749,1.55459 0.58649,1.6824 2.44836,1.85929 4.34353,0.41268 0.68029,-0.51928 1.29515,-0.88589 1.36635,-0.81469 0.0712,0.0712 0.32739,0.52583 0.56931,1.01029 0.32156,0.64393 0.61678,0.88083 1.09769,0.88083 1.06355,0 0.96475,-0.81757 -0.25926,-2.14548 -1.9507,-2.11626 -2.26205,-3.88414 -1.03841,-5.89626 0.97172,-1.59786 3.46711,-2.11962 4.62061,-0.96612 1.40625,1.40625 0.45885,4.11307 -1.43959,4.11307 -1.10381,0 -1.19904,-0.34606 -0.28183,-1.02418 0.61174,-0.45228 0.78336,-0.78456 0.78336,-1.51669 0,-0.72815 -0.0971,-0.91841 -0.43498,-0.85197 -0.59816,0.11764 -1.37684,1.23404 -1.57831,2.26285 -0.18014,0.91983 0.26148,1.47493 2.73039,3.43204 1.1632,0.92208 1.41882,1.60854 1.0824,2.90684 -0.62111,2.39692 -4.94753,3.22925 -6.21841,1.19631 -0.24641,-0.39416 -0.48091,-0.76312 -0.52111,-0.81991 -0.0402,-0.0568 -0.54537,0.32344 -1.12262,0.84494 -1.20441,1.08811 -2.50076,1.42644 -3.81,0.99435 -0.99665,-0.32892 -1.49412,-0.79856 -2.09835,-1.98089 l -0.39556,-0.77401 -0.47628,1.00369 c -0.679797,1.43257 -2.14893,2.25991 -3.23618,1.82246 z m 7.30845,-7.37107 c 0.94157,-0.79228 1.85235,-2.91547 1.43126,-3.33656 -0.68193,-0.68193 -2.12663,1.08546 -2.57131,3.14565 -0.22583,1.04626 0.0655,1.09505 1.14005,0.19091 z" /><path
         style="fill:#800080;stroke:none;stroke-opacity:1"
         d="m 62.774042,180.30589 c 0.34091,-1.30339 0.87642,-6.34338 0.88645,-8.34289 0.004,-0.70573 -0.0778,-0.81368 -0.52498,-0.69675 -0.42688,0.11164 -0.52917,0.008 -0.52917,-0.53553 0,-0.48975 0.15731,-0.69702 0.57562,-0.75846 0.47118,-0.0692 0.63078,-0.36186 0.87957,-1.61285 0.37338,-1.87742 1.0764,-2.87008 2.33014,-3.29016 1.8245,-0.61132 2.901076,0.19075 3.5815,2.66827 l 0.28145,1.0248 -0.97987,-0.162 c -0.538921,-0.0891 -1.19687,-0.16331 -1.46209,-0.16491 -0.45002,-0.003 -0.4456,-0.0495 0.0661,-0.70005 0.60559,-0.76988 0.69576,-1.2972 0.26711,-1.56212 -0.6695,-0.41377 -1.83541,1.68145 -1.83541,3.29836 0,0.53845 0.0869,0.5678 1.19063,0.40228 l 1.19062,-0.17855 v 1.06991 1.0699 l -0.85815,-0.24611 c -1.702953,-0.48839 -1.78768,-0.41987 -1.78768,1.44564 0,2.21144 0.48374,6.88557 0.79821,7.71269 0.23483,0.61765 0.19837,0.64984 -0.73862,0.65202 -0.5421,0.001 -1.59716,0.0758 -2.34457,0.16558 l -1.35894,0.16328 z"
         id="path190" /><path
         id="path188"
         style="fill:#800080;stroke:none;stroke-width:1.05772;stroke-opacity:1"
         d="m 56.606544,177.60578 0.206255,-0.83943 -0.692872,0.57699 c -1.484441,1.23617 -3.403975,0.90317 -3.911493,-0.67856 l -0.265437,-0.82726 -1.247184,1.16346 c -1.332272,1.24284 -2.009073,1.4088 -3.060518,0.75052 -1.160044,-0.72627 -1.657826,-1.93976 -1.675682,-4.08498 -0.03132,-3.76214 1.921451,-6.26936 5.347659,-6.86598 0.956977,-0.16665 2.337675,-0.40797 3.068215,-0.53628 0.73054,-0.12831 1.382286,-0.185 1.448304,-0.12599 0.06601,0.059 -0.03524,0.79475 -0.224983,1.63496 -0.463022,2.05008 -0.757357,5.92412 -0.515536,6.78536 0.256051,0.91186 1.193763,0.91452 1.860277,0.005 0.364246,-0.4969 0.552646,-1.49712 0.672834,-3.57207 l 0.166931,-2.88192 -0.697683,1.9e-4 c -0.514619,1.4e-4 -0.650537,-0.10961 -0.518009,-0.41832 0.09879,-0.23018 0.179673,-0.52784 0.179673,-0.66146 0,-0.13362 0.254698,-0.24294 0.565993,-0.24294 0.437268,0 0.611325,-0.25573 0.765312,-1.12448 0.264329,-1.49127 1.166667,-3.15802 1.942886,-3.58878 0.344534,-0.1912 1.173771,-0.35439 1.842757,-0.36264 0.959238,-0.0118 1.358199,0.13243 1.88762,0.68258 0.651678,0.67719 1.465365,2.73154 1.182173,2.98467 -0.0772,0.069 -0.738249,0.0453 -1.469046,-0.0527 l -1.32872,-0.1781 0.464376,-0.72323 c 0.605029,-0.94228 0.311653,-1.74187 -0.497145,-1.35496 -0.564605,0.27009 -0.976784,1.13964 -1.370919,2.89204 l -0.20112,0.89422 1.363983,-0.18283 1.363972,-0.18283 v 1.068 c 0,1.0371 -0.02193,1.06053 -0.759281,0.80996 -0.4176,-0.14192 -1.036365,-0.25803 -1.375025,-0.25803 -0.60393,0 -0.612299,0.0748 -0.436228,3.9026 0.09868,2.14643 0.310513,4.37551 0.470641,4.95351 0.160139,0.578 0.265214,1.06765 0.233508,1.08812 -0.03166,0.0205 -1.168044,0.11676 -2.525202,0.21396 l -2.467552,0.17674 z m -5.363657,-3.01093 c 0.492132,-0.47465 0.736749,-1.11504 0.873887,-2.28777 0.270114,-2.30998 0.23588,-4.14048 -0.08066,-4.31537 -0.435132,-0.24038 -2.319115,1.92304 -2.820846,3.23924 -1.156789,3.0346 0.139442,5.18505 2.027666,3.3639 z" /><path
         style="fill:#800080;stroke:none;stroke-width:1.1214;stroke-opacity:1"
         d="m 40.446234,176.87574 c -0.333591,-0.60555 -1.060881,-1.97005 -1.616203,-3.03225 l -1.00968,-1.93124 -0.122486,2.24097 c -0.106073,1.94057 -0.221548,2.29206 -0.861503,2.6222 -0.40645,0.20971 -1.163122,0.74199 -1.681485,1.18289 l -0.942472,0.80164 -0.313116,-0.61345 c -0.172225,-0.3374 -1.161909,-2.6736 -2.19933,-5.19156 -3.84871,-9.34137 -6.122684,-12.55127 -8.481777,-11.97274 -1.134108,0.27813 -1.308555,-0.0894 -0.8887,-1.87248 0.513139,-2.17926 2.177977,-2.95916 3.978822,-1.86391 2.107383,1.28169 4.416187,5.48914 7.434588,13.54849 1.482949,3.95954 1.567005,4.11364 1.606938,2.94579 0.07996,-2.33771 -0.34844,-5.65349 -1.037935,-8.03373 l -0.691563,-2.3873 1.494105,-0.36637 c 0.821776,-0.2015 1.78592,-0.56762 2.142554,-0.81361 l 0.648425,-0.44725 0.497928,2.68645 c 0.648449,3.49858 2.966161,9.26031 3.656897,9.09091 0.295371,-0.0724 -0.13096,-4.18662 -0.930207,-8.97682 -0.688778,-4.12817 -2.20646,-9.27885 -3.122874,-10.59884 -0.244884,-0.35269 -0.118817,-0.48163 0.663584,-0.67866 0.531248,-0.13375 1.765113,-0.62799 2.741928,-1.09824 0.976826,-0.47026 1.809162,-0.83746 1.849643,-0.816 0.04048,0.0215 0.01393,0.94134 -0.059,2.04415 -0.342029,5.17221 0.415135,13.99499 1.624125,18.92489 l 0.622385,2.53791 -0.918036,0.67821 c -0.504922,0.37301 -1.494275,1.08609 -2.198553,1.58458 l -1.28051,0.90637 z"
         id="path173" /></g></g></svg>
