<?xml version="1.0" encoding="UTF-8" standalone="no"?>
<!-- Created with Inkscape (http://www.inkscape.org/) -->

<svg
   width="74.876686mm"
   height="65.93615mm"
   viewBox="0 0 74.876686 65.93615"
   version="1.1"
   id="svg1"
   xml:space="preserve"
   inkscape:version="1.4.2 (f4327f4, 2025-05-13)"
   sodipodi:docname="mad hatters waffles logo color final.svg"
   xmlns:inkscape="http://www.inkscape.org/namespaces/inkscape"
   xmlns:sodipodi="http://sodipodi.sourceforge.net/DTD/sodipodi-0.dtd"
   xmlns="http://www.w3.org/2000/svg"
   xmlns:svg="http://www.w3.org/2000/svg"><sodipodi:namedview
     id="namedview1"
     pagecolor="#ffffff"
     bordercolor="#000000"
     borderopacity="0.25"
     inkscape:showpageshadow="2"
     inkscape:pageopacity="0.0"
     inkscape:pagecheckerboard="0"
     inkscape:deskcolor="#d1d1d1"
     inkscape:document-units="mm"
     inkscape:zoom="1.8519888"
     inkscape:cx="93.68307"
     inkscape:cy="143.89936"
     inkscape:window-width="1920"
     inkscape:window-height="974"
     inkscape:window-x="-11"
     inkscape:window-y="-11"
     inkscape:window-maximized="1"
     inkscape:current-layer="layer1" /><defs
     id="defs1" /><g
     inkscape:label="Layer 1"
     inkscape:groupmode="layer"
     id="layer1"
     transform="translate(-21.583075,-117.00127)"><path
       id="path198"
       style="fill:#d4aa00;stroke-width:1.07181"
       d="M 53.21732 131.78331 C 52.935522 131.77504 52.66609 131.78256 52.407033 131.80553 C 52.368566 132.07904 52.332102 132.3527 52.298513 132.62667 C 52.67617 132.56552 53.061511 132.53883 53.448313 132.54864 C 53.66358 132.55364 53.879532 132.57057 54.094786 132.59877 C 54.638198 132.67014 55.316959 132.83298 55.938084 133.02045 C 56.18275 132.80702 56.445413 132.61765 56.721499 132.44942 C 55.345189 132.03339 54.20548 131.81229 53.21732 131.78331 z M 69.946531 133.08143 C 69.882891 133.10983 69.813213 133.13351 69.738792 133.15171 L 69.899506 133.21785 L 69.946531 133.08143 z M 48.551455 133.54445 C 48.296253 133.73435 47.584841 133.94858 46.925714 134.03072 C 46.925375 134.03148 46.925019 134.03255 46.924681 134.03331 C 46.824815 134.34427 46.719912 134.6798 46.63736 135.02394 C 46.820288 134.97985 47.00971 134.94861 47.20115 134.93248 C 47.681615 134.89201 48.089824 134.78501 48.482208 134.58676 C 48.516776 134.2407 48.538658 133.89292 48.551455 133.54445 z M 62.427094 133.55737 C 62.408729 134.2517 62.398943 134.94648 62.397121 135.64251 C 63.382702 135.76412 64.269833 135.93766 65.122019 136.18511 C 64.866775 135.91857 64.647421 135.6692 64.47348 135.44511 C 64.372177 135.31459 64.27521 135.18226 64.182025 135.04875 L 63.743809 134.93764 L 63.972736 134.73714 C 63.779537 134.43615 63.60698 134.13045 63.456488 133.82608 C 63.357638 133.80848 63.260122 133.77757 63.161416 133.73307 C 62.990953 133.65619 62.724558 133.59511 62.427094 133.55737 z M 52.170355 133.82815 C 52.163887 133.90045 52.157741 133.97277 52.151752 134.04519 C 52.17996 134.04095 52.208956 134.03626 52.238568 134.03124 C 52.780307 133.93944 53.940894 134.03424 54.817739 134.24156 L 54.821873 134.24259 C 54.920294 134.10918 55.022802 133.97956 55.129348 133.85399 C 54.981798 133.84768 54.831393 133.84049 54.678729 133.8328 C 53.688198 133.78291 52.759422 133.78478 52.170355 133.82815 z M 58.834031 134.2891 C 58.824745 134.29967 58.815382 134.31002 58.806126 134.32063 C 58.815832 134.32032 58.825606 134.32036 58.835582 134.32011 C 58.835662 134.31827 58.836018 134.31626 58.836098 134.31443 L 58.834031 134.2891 z M 58.677968 134.46997 C 58.422151 134.77226 58.179934 135.08747 57.958632 135.41617 C 58.238672 135.41047 58.516511 135.40935 58.795274 135.41203 C 58.805318 135.10445 58.815757 134.79701 58.828347 134.49012 C 58.774136 134.48376 58.72385 134.477 58.677968 134.46997 z M 39.244012 134.65652 C 38.783115 134.68252 38.301995 134.72707 37.803274 134.79037 C 37.78645 135.00258 37.770438 135.21478 37.755214 135.42702 C 37.722148 135.5141 37.707603 135.62077 37.701988 135.73759 C 38.343341 135.64088 38.889551 135.57066 39.364935 135.52572 C 39.32749 135.2357 39.286885 134.94614 39.244012 134.65652 z M 42.496527 134.85909 C 42.51911 135.19315 42.544886 135.52679 42.575075 135.86007 C 42.702208 135.91088 42.821328 135.95772 42.933193 136.00011 C 42.950222 135.6642 42.978838 135.33007 43.013291 135.00224 C 42.85034 134.94868 42.6781 134.90114 42.496527 134.85909 z M 54.396059 134.88907 L 53.931488 134.9516 C 53.45957 135.015 52.810771 135.11689 52.076821 135.24098 C 52.065554 135.51255 52.058365 135.78557 52.055634 136.06005 C 52.740878 135.94325 53.373065 135.84394 53.965595 135.76085 C 54.087749 135.46112 54.232442 135.16929 54.396059 134.88907 z M 48.268785 135.94172 C 48.045983 135.98604 47.828066 136.03018 47.617662 136.07349 C 47.226281 136.15405 46.850442 136.22676 46.488015 136.29208 C 46.500165 136.56702 46.549759 136.83542 46.650796 137.08842 C 47.029558 137.01557 47.399022 136.94293 47.752537 136.87189 C 47.814237 136.85949 47.875494 136.8469 47.936505 136.83468 C 48.015549 136.71082 48.081797 136.58456 48.133392 136.46985 C 48.183854 136.295 48.229017 136.11897 48.268785 135.94172 z M 32.998399 136.05954 C 32.538241 136.29326 32.05664 136.58047 31.507534 136.94424 C 31.519052 137.28799 31.534106 137.63298 31.555593 137.97777 C 32.077649 137.63174 32.555583 137.33631 32.993748 137.08893 C 32.999411 136.74621 33.001503 136.4028 32.998399 136.05954 z M 58.515188 136.53496 C 58.258415 136.53296 58.048176 136.54747 57.901788 136.58147 C 57.632588 136.64402 57.996921 136.77438 58.742047 136.90548 C 58.747416 136.78392 58.752352 136.66278 58.757033 136.54116 C 58.672612 136.53777 58.591777 136.53553 58.515188 136.53496 z M 39.495677 136.67035 C 38.716447 136.66383 38.045535 136.68876 37.666331 136.74063 C 37.628793 136.87034 37.559016 136.96486 37.432754 136.9985 C 37.622272 137.03565 37.951712 137.06088 38.417706 137.07291 C 38.886981 137.085 39.261418 137.10644 39.538568 137.13492 C 39.525493 136.97995 39.510938 136.82518 39.495677 136.67035 z M 42.916657 136.71996 C 42.831986 136.72382 42.747536 136.72698 42.663442 136.72978 C 42.702906 137.08214 42.747155 137.43408 42.79625 137.78501 C 42.856485 137.77483 42.916637 137.7644 42.977635 137.75401 C 42.936861 137.41254 42.918841 137.06658 42.916657 136.71996 z M 62.410557 137.0662 C 62.419694 137.20324 62.424839 137.34219 62.428127 137.48271 C 62.834636 137.55861 63.19416 137.63209 63.463723 137.69561 C 64.313258 137.8958 64.934831 137.97848 64.847101 137.877 C 64.633101 137.63495 63.615414 137.32649 62.410557 137.0662 z M 52.176556 137.3685 C 52.203622 137.44804 52.233998 137.52684 52.267507 137.60415 C 52.510625 137.58028 52.716233 137.5608 52.869021 137.54782 C 53.061668 137.53142 53.159306 137.51233 53.170294 137.49253 L 53.170294 137.49201 L 53.170811 137.49201 C 53.170863 137.49184 53.170768 137.49067 53.170811 137.49046 C 53.170891 137.49005 53.171211 137.48873 53.171328 137.48787 L 53.171328 137.48736 L 53.171328 137.48684 L 53.170811 137.48632 L 53.170811 137.48581 L 53.170811 137.48529 L 53.170811 137.48477 L 53.170294 137.48426 L 53.170294 137.48374 C 53.145707 137.44432 52.791591 137.40142 52.176556 137.3685 z M 39.565957 137.48581 C 39.378022 137.51999 39.142397 137.5545 38.858506 137.58864 C 38.061124 137.68454 36.95215 137.87751 36.394057 138.01756 C 35.799815 138.16662 35.354034 138.12057 35.318154 137.90645 C 35.281234 137.68572 35.212648 137.68567 35.145038 137.90594 C 34.961033 138.50598 32.242948 139.82809 31.929214 139.47018 C 31.80302 139.32618 31.727469 139.27985 31.681683 139.34254 C 31.747974 139.86176 31.838271 140.3762 31.962286 140.88095 C 34.253095 139.34776 36.005051 138.77454 39.612465 138.26819 C 39.600604 138.00706 39.584974 137.74646 39.565957 137.48581 z M 56.784544 138.16587 C 56.733704 138.35809 56.680028 138.57069 56.665171 138.76687 C 56.689355 138.76616 56.7138 138.76547 56.738035 138.7648 L 56.738035 138.76428 C 57.359358 138.74709 57.997226 138.74167 58.614923 138.7493 C 58.632756 138.57408 58.648358 138.39893 58.662465 138.22323 C 57.999021 138.19051 57.372043 138.17142 56.784544 138.16587 z M 53.536163 138.32245 C 53.262362 138.35895 53.010061 138.40158 52.780654 138.45061 C 52.942738 138.65741 53.123 138.85181 53.313438 139.03248 C 53.414198 139.01548 53.521772 138.99952 53.635382 138.98391 C 53.586249 138.76463 53.553719 138.54365 53.536163 138.32245 z M 62.452415 138.51934 C 62.461753 138.68833 62.476366 138.85598 62.499957 139.02111 L 62.658604 139.03817 L 62.503575 139.0454 C 62.529985 139.22325 62.566671 139.39775 62.61933 139.56733 C 62.927192 139.59696 63.135332 139.65556 63.232729 139.71875 C 63.343931 139.48982 63.435534 139.23837 63.593947 139.04902 C 63.664186 138.89969 63.770011 138.79269 63.89212 138.72553 C 63.569909 138.65595 63.189085 138.59706 62.750071 138.55034 C 62.650331 138.53973 62.551172 138.52951 62.452415 138.51934 z M 64.885341 139.06607 C 64.914543 139.14749 64.928457 139.23971 64.923582 139.34203 C 64.909435 139.56449 64.882113 139.78759 64.841933 140.0102 C 65.324421 139.65962 65.336544 139.33177 64.885341 139.06607 z M 28.311863 139.26244 C 27.22447 140.10208 27.208039 140.27663 27.140875 141.29694 C 27.071475 142.35084 27.191045 142.66358 27.991986 143.52523 C 28.014468 143.54941 28.038138 143.57584 28.0633 143.6043 C 28.09392 143.46427 28.105666 143.31718 28.098956 143.1697 C 28.116802 142.90972 28.133742 142.64943 28.150116 142.38887 C 27.988944 142.29235 27.955968 141.95 28.011623 141.34707 C 28.042349 141.0141 28.096389 140.77956 28.253986 140.54195 C 28.27514 140.11602 28.294371 139.68943 28.311863 139.26244 z M 48.879083 139.32807 C 48.239701 139.96373 47.667437 140.69353 46.894708 141.17602 C 46.252612 141.61239 45.523168 141.51576 44.896897 141.16827 C 44.238896 141.2352 43.757836 141.3271 43.504734 141.42459 C 43.590107 141.75992 43.680973 142.09395 43.778103 142.42659 C 43.963955 142.41037 44.148338 142.396 44.330524 142.3837 C 44.717637 142.3576 45.04168 142.34383 45.313926 142.34443 C 46.038605 142.3462 46.398415 142.4497 46.617723 142.69428 C 46.848047 142.64328 47.078789 142.59602 47.310704 142.55165 C 47.167713 142.21712 47.115302 141.94554 47.142238 141.71346 C 47.251468 140.77148 47.499686 140.82792 48.054327 141.92223 C 48.121259 142.05431 48.204478 142.21095 48.297207 142.38008 C 48.441257 142.35735 48.585518 142.33555 48.729738 142.31445 C 48.685393 142.23842 48.639952 142.1618 48.593313 142.08449 C 48.009614 141.11697 47.736749 140.43733 47.92772 140.4293 C 47.93072 140.42917 47.933722 140.42908 47.937022 140.4293 C 48.160451 140.444 48.678327 141.2284 49.229966 142.24417 C 49.420381 142.21841 49.610771 142.19369 49.800991 142.16976 C 50.041901 142.18234 50.389784 142.20149 50.575104 142.3098 C 50.380176 141.83102 49.853289 140.88646 48.946263 139.37923 C 48.923781 139.36219 48.901531 139.3451 48.879083 139.32807 z M 56.930788 139.38543 C 56.991714 139.41438 57.064994 139.4345 57.15248 139.44434 C 57.580967 139.47542 58.175922 139.62999 58.519322 139.44693 C 58.147502 139.45611 57.643588 139.44058 57.113723 139.39835 C 57.052945 139.39351 56.991892 139.38923 56.930788 139.38543 z M 39.638304 139.62263 C 37.806806 140.10235 33.994479 141.59845 32.493003 142.47 C 32.54634 142.59207 32.602619 142.71326 32.661985 142.83328 C 33.079044 142.64266 33.637237 142.38065 34.366791 142.03747 C 35.688492 141.41573 37.656405 140.61134 38.739651 140.24998 C 39.063963 140.14179 39.367762 140.03602 39.633136 139.93992 C 39.635554 139.83409 39.637361 139.72837 39.638304 139.62263 z M 68.610695 139.79988 C 67.675428 139.77749 65.660195 140.46437 64.515338 141.15949 C 64.427934 141.38115 64.327422 141.59768 64.214065 141.80699 C 64.646097 141.64417 65.458605 141.28758 66.193272 140.93521 C 67.140479 140.48092 68.223428 140.20598 68.892332 140.24998 C 70.184771 140.33508 70.135084 140.06596 68.81275 139.819 C 68.75286 139.8078 68.685336 139.80168 68.610695 139.79988 z M 43.631858 139.89238 C 43.483188 139.92605 43.331467 139.96134 43.176589 139.9978 C 43.229911 140.25672 43.286394 140.51482 43.346088 140.77243 C 43.622109 140.70637 43.889924 140.64481 44.146556 140.58794 C 43.999598 140.43658 43.869043 140.27398 43.759499 140.10787 C 43.71495 140.03687 43.67221 139.965 43.631858 139.89238 z M 63.125242 139.91563 C 63.041132 139.93747 62.925228 139.95368 62.776426 139.96059 C 62.812383 140.03241 62.852181 140.10292 62.896316 140.17195 C 62.989378 140.10384 63.062625 140.01514 63.125242 139.91563 z M 39.587144 140.93986 C 36.651259 141.78209 34.916099 142.48144 34.204527 143.1051 C 33.938745 143.33806 33.772198 143.55579 33.736855 143.83012 C 34.242127 144.02168 34.823684 144.10232 35.302651 144.32053 C 34.867555 144.47859 34.432547 144.64356 33.989553 144.77374 C 34.346989 145.45458 35.093095 146.43131 36.347032 147.97612 C 37.783245 149.74558 39.295089 151.61585 39.706517 152.13194 C 39.738902 152.17257 39.770996 152.212 39.802635 152.24976 C 39.984107 152.17312 40.164894 152.09355 40.345237 152.01257 C 40.081994 151.77126 39.836744 151.36829 39.538051 150.71549 C 39.340246 150.28313 38.226281 148.85622 37.061717 147.54514 C 35.897421 146.23385 34.918499 145.00298 34.886139 144.81043 C 34.808584 144.34775 36.72453 143.66381 39.184068 143.13146 C 39.248193 142.95116 39.299858 142.76391 39.343748 142.5749 C 38.868318 142.67982 38.394631 142.7902 37.962437 142.8984 C 35.086431 143.61839 34.554533 143.68809 35.582737 143.21052 C 36.481644 142.793 37.928151 142.29187 39.492576 141.81888 C 39.504224 141.75464 39.515469 141.69101 39.527199 141.62871 C 39.551214 141.39879 39.571162 141.16927 39.587144 140.93986 z M 51.483059 141.12228 C 51.570469 141.26646 51.668826 141.4194 51.778648 141.58168 C 52.224016 142.23976 52.674399 143.00349 52.888141 143.45289 C 53.091239 143.33797 53.295158 143.22447 53.50154 143.11596 C 53.463415 143.03802 53.426848 142.95887 53.392503 142.87979 C 53.266996 142.59108 52.966933 142.10969 52.654047 141.684 C 52.251255 141.52622 51.861934 141.33543 51.483059 141.12228 z M 68.303737 141.22821 C 68.248657 141.22794 68.201762 141.23223 68.163694 141.24113 C 67.007273 141.50977 66.922473 141.87538 67.749766 143.02242 C 67.856437 143.17031 67.993437 143.38302 68.149742 143.64099 C 68.357708 143.59862 68.565474 143.55344 68.772959 143.50663 C 68.577308 143.49891 68.357742 143.13923 68.24586 142.56612 C 68.16802 142.16759 68.32811 141.96717 68.713532 141.96564 C 69.098957 141.96364 69.709598 142.16115 70.533059 142.55682 C 70.718718 142.64603 70.97082 142.7567 71.265314 142.87928 C 71.339608 142.85961 71.413808 142.83999 71.488039 142.82037 C 71.48061 142.86753 71.473209 142.91471 71.465818 142.96196 C 71.975138 143.16995 72.582959 143.40388 73.182509 143.6229 C 73.563732 143.54536 73.941616 143.44892 74.317324 143.34281 C 71.789095 142.22768 69.127613 141.23332 68.303737 141.22925 L 68.303737 141.22821 z M 45.70305 141.49693 C 46.356187 141.47173 46.726608 141.55663 46.536591 141.72328 C 46.464671 141.78638 45.835915 141.80642 45.13926 141.76772 L 43.872671 141.69744 L 44.966144 141.55998 C 45.236429 141.52598 45.485337 141.50543 45.70305 141.49693 z M 66.155031 141.83025 C 65.969438 141.84565 66.245741 142.31608 66.870233 143.04102 L 67.493451 143.76553 C 67.537505 143.75779 67.58171 143.74975 67.625743 143.74176 L 67.236619 143.06531 C 66.815019 142.33118 66.396532 141.84495 66.174152 141.83025 C 66.167152 141.82979 66.161022 141.82975 66.155031 141.83025 z M 53.284499 141.89949 C 53.356439 142.05197 53.433504 142.20784 53.514976 142.36458 C 53.621679 142.56987 53.72262 142.76906 53.815733 142.95627 C 53.992598 142.87004 54.17237 142.78911 54.355235 142.71598 C 54.27882 142.56298 54.19609 142.39338 54.105638 142.20645 C 54.083477 142.16065 54.062088 142.11576 54.041042 142.07209 C 53.783338 142.02928 53.531302 141.97124 53.284499 141.89949 z M 58.947719 142.00078 C 58.851214 142.03207 58.750823 142.05989 58.643345 142.08501 C 58.585358 142.43574 58.526555 142.78656 58.467645 143.13714 C 58.718467 142.9929 58.972754 142.84906 59.226772 142.70771 C 59.109792 142.47755 59.08442 142.13513 58.947719 142.00078 z M 55.431655 142.37905 L 55.047699 142.40127 L 55.311249 142.43073 L 55.311766 142.43073 C 55.378631 142.41238 55.416578 142.39533 55.431655 142.37905 z M 50.657786 142.65345 C 50.653058 142.66235 50.648341 142.6716 50.6428 142.68084 C 50.649806 142.67433 50.654534 142.66509 50.657786 142.65345 z M 50.481569 142.91287 C 50.302821 143.22544 50.160711 143.54487 50.048521 143.87043 C 50.716311 145.29702 51.226428 146.66215 51.029856 146.82942 C 50.51514 147.26748 50.056627 147.10261 49.690403 146.34883 C 49.685841 146.33944 49.680956 146.3299 49.675934 146.31989 C 49.672959 146.63459 49.670049 146.95185 49.672833 147.26971 L 49.792206 147.44902 L 49.675934 147.51155 C 49.679354 147.69075 49.685517 147.87019 49.694537 148.04899 C 49.808572 147.98297 49.912474 147.92325 50.005113 147.87122 C 51.706144 146.91599 51.750877 146.86981 51.721287 146.11112 C 51.70934 145.80518 51.526115 145.22202 51.271185 144.63679 C 51.234887 144.63047 51.198428 144.62358 51.162148 144.61664 C 50.563648 144.61008 50.77415 144.48238 51.132176 144.33242 C 51.069522 144.20168 51.003881 144.07337 50.936839 143.95053 C 50.689198 143.49671 50.532062 143.13286 50.481569 142.91287 z M 69.740342 142.98986 C 69.397303 142.99071 69.116088 143.10376 68.982766 143.34747 C 68.943951 143.41842 68.900564 143.46446 68.854608 143.48803 C 69.373254 143.3697 69.890296 143.23978 70.405935 143.10562 C 70.174056 143.02937 69.946166 142.98936 69.740342 142.98986 z M 64.424388 143.20277 L 62.597109 144.12933 C 61.591878 144.63888 59.707445 145.88466 58.409768 146.89815 C 58.166354 147.08826 57.942587 147.26494 57.737457 147.43042 C 57.690477 147.70716 57.643504 147.98406 57.596897 148.26086 C 59.158422 146.85982 62.379689 144.59546 63.015171 144.63731 C 63.266886 144.65391 63.258661 144.79243 62.9914 145.03057 C 62.647031 145.33734 62.661635 145.38601 63.07925 145.32461 C 63.373 145.28141 63.477594 145.34341 63.331948 145.47447 C 63.195275 145.59742 62.812952 145.68034 62.482904 145.65844 C 62.050044 145.62994 61.409995 146.03325 60.187954 147.10434 C 59.255886 147.92127 58.140875 148.79272 57.710069 149.04066 C 57.619932 149.09253 57.53013 149.13888 57.443418 149.17863 C 57.403705 149.4176 57.364286 149.65634 57.325079 149.89539 L 57.691465 149.72279 C 58.131061 149.51563 58.990627 148.90836 59.601426 148.373 C 60.752407 147.3642 62.844691 146.09516 63.548989 145.97883 C 63.567329 145.97583 63.585339 145.97363 63.603249 145.97263 L 63.603249 145.97314 C 63.871906 145.96085 64.09569 146.20308 64.399583 146.82374 C 64.471103 146.96979 64.593874 147.18927 64.752016 147.45574 C 64.882435 147.43133 65.012104 147.40636 65.140623 147.38029 C 65.173074 147.37939 65.207806 147.37683 65.243976 147.37306 C 64.956862 146.89906 64.722171 146.50322 64.588719 146.26408 L 63.952582 145.12462 L 64.781472 146.02327 C 65.911589 147.24839 66.051495 146.56929 64.935468 145.2781 C 64.402132 144.66142 64.245284 144.41105 64.416119 144.40942 C 64.455539 144.40904 64.512449 144.42192 64.586135 144.44662 C 64.931715 144.56218 65.481946 145.22361 66.218593 146.40929 C 66.405224 146.70968 66.623579 147.04383 66.852146 147.38184 C 66.801992 146.94534 66.762494 146.50765 66.718821 146.0703 C 66.719396 146.03143 66.718701 145.99162 66.717271 145.95092 C 66.325447 145.46008 65.971245 145.02535 65.709064 144.71637 L 64.424388 143.20277 z M 50.917202 143.30767 C 50.846532 143.30867 50.885242 143.40956 51.034507 143.59448 C 51.222211 143.82743 51.382791 143.90944 51.391591 143.77638 C 51.400091 143.64372 51.246644 143.45305 51.05001 143.35315 C 50.98896 143.32205 50.944856 143.30727 50.917202 143.30767 z M 71.361949 143.63789 C 71.318383 143.92512 71.275465 144.21286 71.233274 144.50088 C 71.299904 144.57315 71.357903 144.64538 71.407424 144.71844 C 71.391611 144.41053 71.445135 144.1259 71.673041 143.94226 C 71.668393 143.93723 71.664015 143.9323 71.659605 143.92728 C 71.568121 143.8229 71.468022 143.72642 71.361949 143.63789 z M 52.051499 143.68646 C 52.050376 143.68645 52.049473 143.68688 52.048399 143.68698 C 52.042699 143.68749 52.037643 143.68918 52.033413 143.69318 C 52.012024 143.71193 52.022744 143.79432 52.058217 143.91797 C 52.11146 143.88928 52.164854 143.8604 52.217898 143.83116 C 52.145232 143.74086 52.086318 143.6869 52.051499 143.68646 z M 79.396084 143.96086 C 81.991804 145.35606 83.84922 146.51032 85.486151 147.80146 C 85.828919 147.7081 86.174362 147.6214 86.520713 147.54049 C 86.077428 147.09674 85.714051 146.15156 85.596739 145.00111 C 85.584679 144.88275 85.572185 144.76914 85.559015 144.65953 C 85.367366 144.66353 85.172086 144.66566 84.974038 144.66366 C 85.124439 145.40962 85.149318 145.99673 85.018479 146.04653 C 84.862976 146.10573 83.866141 145.59701 82.803628 144.91585 C 82.579748 144.77232 82.330733 144.61736 82.067755 144.45748 C 81.746999 144.41658 81.421109 144.36908 81.091071 144.31588 C 80.575248 144.23278 80.002879 144.11186 79.396084 143.96086 z M 60.319212 144.07094 C 60.274392 144.07494 60.1898 144.12454 60.069098 144.22183 C 59.836334 144.40947 59.754308 144.57043 59.887197 144.57943 C 60.020191 144.58843 60.210984 144.43437 60.310944 144.23785 C 60.369554 144.12252 60.369972 144.0668 60.319212 144.07094 z M 76.062954 144.14328 C 76.044357 144.32265 76.026053 144.5019 76.007143 144.68123 C 76.534519 144.90923 76.953499 145.11726 77.142991 145.25329 C 77.84123 145.75491 77.830461 145.75865 76.445876 145.48739 C 76.269617 145.45286 76.098048 145.41845 75.931179 145.38403 C 75.907975 145.59345 75.88415 145.80266 75.859349 146.0119 C 76.700655 146.20212 77.657216 146.46868 77.752256 146.57828 C 77.897267 146.74372 76.847193 147.59541 76.177675 147.87019 C 76.349336 147.9963 76.457797 148.18802 76.523908 148.40659 C 76.891608 148.15309 77.24187 147.91891 77.546584 147.72394 C 78.648856 147.01865 79.555548 146.3659 79.561448 146.2739 C 79.581968 145.96221 78.031805 145.08257 76.062954 144.14328 z M 44.3791 144.58615 C 44.363057 144.70189 44.328736 144.81248 44.274196 144.91119 C 44.890591 144.94843 45.372229 144.95774 45.582644 144.92721 C 45.516933 144.86819 45.449378 144.81108 45.381106 144.75513 C 45.150976 144.70301 44.805501 144.64483 44.3791 144.58615 z M 59.327541 144.68692 C 59.269491 144.69092 59.126388 144.74592 58.889842 144.84867 C 58.644727 144.95513 58.346483 145.12086 58.103843 145.28016 C 58.08619 145.38354 58.068795 145.48685 58.051133 145.59022 C 58.424927 145.42574 58.914574 145.12869 59.146157 144.92566 C 59.336113 144.7592 59.402179 144.68144 59.327541 144.68692 z M 52.398248 144.75565 C 52.615153 145.20322 52.885069 145.67637 53.020433 145.84499 C 53.258325 146.13928 53.27672 146.12294 53.18528 145.70029 C 53.138649 145.48494 52.981612 145.12769 52.79719 144.77374 C 52.664263 144.76859 52.531227 144.76297 52.398248 144.75565 z M 32.129718 145.05641 C 31.743718 145.09213 31.357398 145.1352 30.971132 145.17939 C 31.688453 146.10097 32.803743 147.67492 33.607147 148.90733 C 34.876935 150.85518 36.155702 152.68823 38.103514 155.29661 C 37.965007 154.97429 37.817869 154.65544 37.66013 154.34111 C 37.333828 154.00412 37.290196 153.47339 37.55316 153.14222 C 32.614173 146.2827 31.090373 143.64021 34.951251 148.20092 C 36.236467 149.71924 37.35992 150.89791 37.44774 150.82091 C 37.53548 150.74361 36.471956 149.38491 35.08406 147.80146 C 33.525951 146.02472 32.478952 144.99415 32.347276 145.10963 C 32.312387 145.14021 32.236195 145.11947 32.129718 145.05641 z M 30.349982 145.25019 C 30.033542 145.28593 29.716813 145.32051 29.400169 145.34993 C 29.835718 145.9589 30.301968 146.63819 30.724636 147.28573 C 31.71492 148.80287 34.17371 152.41753 36.188902 155.31779 C 37.140857 156.68783 38.408359 158.51954 39.710134 160.40586 C 39.513794 159.60961 39.307864 158.81437 39.074514 158.02822 C 35.158628 152.35278 31.634088 147.2112 30.706549 145.79331 C 30.579099 145.59849 30.460399 145.41774 30.349982 145.25019 z M 40.233616 145.64862 C 40.098305 145.64662 40.000904 145.6546 39.950946 145.6729 C 39.489118 145.84162 39.995206 146.0946 40.986025 146.1907 C 41.530291 146.2435 43.173728 146.56945 44.637999 146.91521 C 45.418593 147.09952 46.019101 147.20794 46.419285 147.2511 C 46.409581 147.12284 46.399567 146.99438 46.38983 146.86611 C 46.127694 146.76692 45.779014 146.65171 45.339248 146.52298 C 43.983343 146.12607 41.180792 145.66093 40.233616 145.64862 z M 71.588808 145.82897 C 71.55594 145.98297 71.504803 146.1486 71.43688 146.3292 C 71.305239 146.67918 71.215651 146.7641 70.946987 146.52195 C 70.927795 146.66141 70.908502 146.8005 70.889626 146.93898 C 70.826117 147.08671 70.793242 147.21293 70.786273 147.32035 C 70.88145 147.41242 71.027657 147.59483 71.198651 147.83866 C 71.353351 147.88474 71.542122 147.9055 71.747972 147.91204 C 71.748006 147.90962 71.747939 147.90724 71.747972 147.90481 C 71.60475 147.8237 71.53629 147.30734 71.670457 146.47854 C 71.6467 146.26156 71.619112 146.04489 71.588808 145.82897 z M 53.773358 146.96688 C 52.27544 147.92167 50.876762 148.84649 50.586473 149.10525 C 50.421606 149.25219 50.36777 149.37731 50.4671 149.38431 C 50.598695 149.39297 52.113455 148.44895 53.741836 147.38701 C 53.752358 147.24698 53.762836 147.10692 53.773358 146.96688 z M 75.667629 147.26661 C 75.64008 147.42578 75.632965 147.56814 75.682615 147.664 C 75.711401 147.53043 75.704128 147.38175 75.667629 147.26661 z M 39.106553 147.90016 C 38.48313 147.92916 39.717467 148.34453 41.742051 148.74972 C 44.378574 149.27732 45.915028 149.40591 45.625018 149.07476 C 45.464739 148.89186 40.835145 148.0149 39.490509 147.91256 C 39.322528 147.89976 39.195614 147.89596 39.106553 147.90016 z M 88.712828 148.30117 C 88.684257 148.52508 88.629001 148.7475 88.582086 148.93007 L 88.58622 148.93214 C 88.764289 148.77792 88.956186 148.63336 89.158795 148.50219 C 89.143184 148.49497 89.127824 148.48773 89.112286 148.48049 C 88.97839 148.41805 88.844556 148.35792 88.712828 148.30117 z M 78.061281 149.2453 C 77.490773 149.59791 76.933337 149.95961 76.473265 150.27986 C 76.340011 150.53014 76.119929 150.71697 75.842295 150.74185 C 75.755646 150.80987 75.678542 150.87347 75.612335 150.9315 C 75.537436 150.99715 75.469741 151.05789 75.40873 151.1134 C 75.392698 151.21656 75.37855 151.32007 75.366872 151.42398 C 75.770297 151.20438 76.509961 150.73764 77.581724 150.02613 C 77.725244 149.75645 77.884899 149.49558 78.061281 149.2453 z M 46.576898 149.33366 C 46.154878 149.59873 45.714878 149.87859 45.288605 150.15325 C 44.717094 150.52149 44.217987 150.83584 43.78017 151.101 C 43.79661 151.29552 43.804245 151.49034 43.805491 151.68546 C 44.198837 151.4452 44.638049 151.16804 45.131508 150.85243 C 45.604331 150.55002 46.112983 150.22915 46.621857 149.91192 C 46.606851 149.71915 46.591698 149.52645 46.576898 149.33366 z M 52.874705 149.34813 C 52.798079 149.34631 52.721293 149.35209 52.643195 149.36519 C 52.481499 149.3923 51.779536 149.83203 50.847955 150.46331 C 51.088529 150.51403 51.328115 150.57227 51.566775 150.63591 C 51.997392 150.35281 52.294304 150.18389 52.384296 150.18477 C 52.527632 150.1864 52.486115 150.46555 52.302647 150.84623 C 52.60426 150.93714 52.904523 151.03206 53.203884 151.12529 C 53.06441 150.85675 53.042577 150.66921 53.118618 150.52481 C 53.165738 150.43531 53.230644 150.39073 53.315505 150.39406 C 53.371642 150.39627 53.436706 150.41917 53.510842 150.46383 C 53.532551 150.17491 53.554245 149.88613 53.575954 149.59721 C 53.331692 149.42947 53.104584 149.35361 52.874705 149.34813 z M 81.630056 149.53107 C 81.503436 149.63966 81.388732 149.76057 81.28434 149.89074 L 81.372707 149.92846 C 81.501482 149.98384 81.614079 150.03397 81.713772 150.08349 C 81.758389 149.94284 81.792479 149.79903 81.814024 149.65147 C 81.750833 149.60349 81.689116 149.56322 81.630056 149.53107 z M 66.567926 150.26642 C 66.69536 150.45866 66.816669 150.64541 66.929144 150.82246 C 66.942457 150.50863 66.826716 150.34175 66.567926 150.26642 z M 57.229995 150.47881 C 57.19208 150.71294 57.154085 150.94738 57.116823 151.18161 C 57.18693 151.24825 57.254968 151.31516 57.320945 151.38315 C 57.404085 151.21655 57.494046 151.04927 57.590696 150.88447 L 57.229995 150.47881 z M 89.926707 150.69224 C 89.650627 150.84316 89.384563 151.02456 89.140192 151.23071 C 89.523984 151.64422 89.918254 152.08228 90.329783 152.55 C 90.335033 152.55597 90.340038 152.56161 90.345286 152.56757 C 90.354198 152.55666 90.363347 152.54603 90.372158 152.53502 C 90.530597 152.29269 90.701533 151.97332 90.800039 151.64515 C 90.717861 151.55434 90.636188 151.4647 90.555092 151.37643 L 89.926707 150.69224 z M 70.503603 150.90876 C 70.503987 150.93288 70.504757 150.95695 70.505153 150.98111 L 70.53926 150.95579 L 70.503603 150.90876 z M 77.113536 151.08704 L 75.312095 152.38774 C 75.309994 152.61519 75.314458 152.84312 75.323464 153.07039 L 76.837067 152.01567 C 76.912601 151.70099 77.004477 151.39064 77.113536 151.08704 z M 61.523273 151.29582 C 61.407353 151.4523 61.299498 151.61469 61.199262 151.78209 C 61.310048 151.81994 61.423503 151.85816 61.539292 151.89681 C 61.781818 151.97777 62.006843 152.05306 62.21522 152.12264 C 62.216207 151.92258 62.214306 151.72227 62.211086 151.52268 C 61.987911 151.44676 61.757719 151.37106 61.523273 151.29582 z M 71.780528 151.47462 L 71.490623 151.68804 C 70.915201 152.11205 70.652435 152.31561 70.664834 152.3588 L 70.664834 152.35932 L 70.66535 152.35984 C 70.665397 152.36005 70.665316 152.36062 70.66535 152.36087 L 70.665867 152.36139 L 70.665867 152.3619 L 70.666384 152.3619 L 70.666384 152.36242 L 70.666384 152.36294 C 70.689764 152.38684 70.864988 152.32384 71.175397 152.19809 C 71.314978 152.14156 71.520085 152.02874 71.765542 151.87718 C 71.770279 151.74306 71.775231 151.60872 71.780528 151.47462 z M 88.747451 151.60433 C 88.642739 151.71674 88.54447 151.83379 88.453929 151.95573 C 88.816587 152.31812 89.249312 152.77436 89.676076 153.24867 C 89.677136 153.24985 89.678119 153.25111 89.679177 153.25229 C 89.7844 153.15729 89.887689 153.06021 89.987685 152.96032 C 89.607957 152.47702 89.162761 151.99484 88.747451 151.60433 z M 83.970998 152.45492 C 83.84956 152.6451 83.714337 152.82667 83.566888 152.99804 C 83.830196 153.40724 84.131686 153.82446 84.436086 154.1959 C 84.469121 153.82913 84.459027 153.45447 84.43867 153.07969 C 84.290031 152.88443 84.13321 152.67535 83.970998 152.45492 z M 38.03375 152.58101 C 37.961713 152.58195 37.981454 152.66775 38.097312 152.84508 C 38.199015 152.81882 38.300456 152.79107 38.40117 152.76136 C 38.317403 152.70329 38.24304 152.65767 38.182062 152.62855 C 38.115182 152.59665 38.065413 152.58061 38.03375 152.58101 z M 43.83288 152.67041 C 43.811296 152.68307 43.790038 152.69555 43.768801 152.70813 C 43.765903 152.75334 43.763053 152.79834 43.760016 152.84353 C 43.782703 152.78446 43.806827 152.72698 43.83288 152.67041 z M 50.076426 152.73242 C 50.071697 152.88021 50.066687 153.02802 50.061957 153.17581 C 50.406207 152.96604 50.694056 152.82205 50.944074 152.73501 C 50.904804 152.73393 50.865526 152.7331 50.826251 152.73242 L 50.076426 152.73242 z M 94.178127 152.81045 C 94.06926 153.07294 93.933399 153.32201 93.771434 153.55098 C 93.861291 153.68343 93.946152 153.8088 94.025682 153.92718 C 94.241703 153.94776 94.481268 153.97243 94.584304 154.07549 C 94.972259 154.21582 95.28965 154.44623 95.536184 154.73437 C 95.293499 154.23757 94.958783 153.73055 94.552264 153.26676 C 94.440068 153.13875 94.312984 152.98342 94.178127 152.81045 z M 52.164671 152.83681 C 52.19479 152.85544 52.224847 152.87535 52.255105 152.89624 C 52.514384 153.07524 53.004783 153.55118 53.575954 154.15301 C 53.579084 153.94877 53.58199 153.74464 53.584222 153.54012 C 53.421934 153.35439 53.277651 153.18546 53.150657 153.03215 C 52.825719 152.94899 52.49654 152.88431 52.164671 152.83681 z M 88.037417 152.84508 C 88.012778 153.13535 88.001292 153.42447 88.00021 153.71221 C 88.898989 154.62185 89.498495 155.26499 89.829039 155.70175 C 89.944743 155.53426 90.074034 155.37525 90.216095 155.22633 C 90.091866 155.07093 89.951446 154.90363 89.794932 154.72352 C 89.379022 154.57284 88.974277 154.38268 88.554698 154.24603 C 88.698065 154.10751 88.847385 153.97426 88.998598 153.84295 C 88.695069 153.51837 88.371563 153.18286 88.037417 152.84508 z M 66.838711 152.98977 C 66.547266 153.19211 66.199751 153.41995 65.823785 153.6564 C 65.817249 153.85719 65.813378 154.05808 65.812933 154.25894 C 66.14821 154.05334 66.48455 153.84174 66.814939 153.62797 C 66.825633 153.41565 66.832957 153.20268 66.838711 152.98977 z M 60.445302 153.52514 C 60.420972 153.61478 60.397065 153.7064 60.374506 153.79902 C 60.443016 153.80538 60.515912 153.81244 60.593097 153.82021 L 61.654531 153.92666 L 60.707819 153.62539 C 60.620253 153.59745 60.53304 153.56411 60.445302 153.52514 z M 82.16439 154.11322 C 82.067587 154.16348 81.969423 154.21033 81.869318 154.25326 C 81.761091 154.48913 81.643176 154.88919 81.543756 155.44285 C 81.481665 155.7887 81.444701 156.07775 81.432652 156.30636 C 81.595722 156.35654 81.766493 156.38345 81.940114 156.38905 C 82.013347 156.08516 82.089757 155.66054 82.147337 155.21237 C 82.22038 154.6439 82.215274 154.28147 82.16439 154.11322 z M 76.568866 154.19797 C 76.545887 154.27503 76.522867 154.35752 76.500136 154.44498 C 76.317244 155.14864 76.094083 155.78883 76.004043 155.86763 C 75.866761 155.98796 75.694594 155.89265 75.537921 155.67436 C 75.546465 155.86647 75.55482 156.06344 75.625254 156.21645 C 75.701435 156.28128 75.778252 156.34356 75.854181 156.40197 C 76.39425 155.97763 76.464177 155.13439 76.568866 154.48374 C 76.567565 154.3886 76.567567 154.29336 76.568866 154.19797 z M 83.383954 154.43154 C 83.289484 154.43854 83.067893 154.86315 82.886827 155.38549 C 82.755601 155.76407 82.687987 156.07781 82.680638 156.29345 C 82.863471 156.24168 83.04238 156.17021 83.211871 156.08209 C 83.399316 155.4679 83.543766 154.44167 83.388088 154.43154 C 83.386688 154.43145 83.385454 154.43143 83.383954 154.43154 z M 71.601727 154.52198 C 71.361771 154.59048 71.044519 154.72218 70.666384 154.90852 C 70.680601 155.09201 70.696098 155.27545 70.712893 155.45784 C 70.737925 155.44395 70.764321 155.42952 70.791958 155.41495 C 71.106762 155.24895 71.311594 155.13887 71.480288 155.13176 C 71.491296 155.13129 71.502125 155.13134 71.512844 155.13176 C 71.547608 154.92894 71.576848 154.72572 71.601727 154.52198 z M 80.758791 154.55815 C 80.62477 154.57508 80.489856 154.58479 80.353648 154.58761 C 80.319083 154.71533 80.284475 154.8426 80.250812 154.96846 C 80.338782 155.20525 80.451365 155.43324 80.582058 155.64956 C 80.650506 155.30433 80.710717 154.93566 80.758791 154.55815 z M 66.715721 154.75504 C 66.461726 154.90471 66.164188 155.08569 65.840322 155.28679 C 65.843785 155.34719 65.847532 155.40727 65.851691 155.46766 C 65.83484 155.54378 65.829269 155.63653 65.833087 155.73327 C 66.128901 155.54218 66.403151 155.36186 66.644407 155.19997 C 66.671795 155.0523 66.695587 154.904 66.715721 154.75504 z M 60.20604 155.3457 C 60.23542 155.71841 60.332866 156.07675 60.534703 156.39576 C 60.551585 156.40482 60.568309 156.41337 60.585346 156.4216 C 60.915708 156.39248 61.195931 156.17827 61.425088 155.91362 C 60.970226 155.93341 60.57387 155.75168 60.20604 155.3457 z M 44.056122 155.68108 C 43.897645 155.86162 43.76395 156.03753 43.650462 156.21438 C 43.653705 156.61234 43.662917 157.02189 43.665448 157.37348 C 43.688498 158.1719 43.718513 158.9697 43.757949 159.76662 C 43.924945 160.0334 44.080866 160.29859 44.211151 160.54176 L 44.211151 160.54228 C 44.66482 161.38906 45.413261 162.515 45.874616 163.04394 C 46.084112 163.28432 46.223212 163.43359 46.28751 163.47854 C 46.300251 163.47225 46.312886 163.46568 46.325234 163.4589 C 46.295967 163.33757 46.036332 162.88388 45.522182 162.03211 C 44.86718 160.947 44.207666 159.74292 44.056639 159.35682 C 43.597432 158.18238 44.436778 159.2556 45.36922 161.03476 C 45.787054 161.83197 46.202005 162.4949 46.623407 163.02999 C 46.728485 162.69644 46.804486 162.35745 46.858535 162.01506 C 46.415977 161.44481 45.993755 160.79807 45.653957 160.14386 L 45.020921 158.92533 L 46.931915 158.94083 C 46.922356 158.75638 46.911794 158.57217 46.901943 158.38892 C 46.789693 158.39107 46.679584 158.39389 46.571731 158.39719 C 43.762564 158.48307 43.39675 158.36393 45.729405 156.44796 C 45.420377 156.45144 45.107824 156.38234 44.82145 156.25314 C 44.224395 156.641 44.058202 156.66905 44.239056 156.38905 C 44.282861 156.32123 44.377639 156.21733 44.514492 156.08467 C 44.34303 155.97241 44.187374 155.83679 44.056122 155.68108 z M 88.111314 155.71932 C 88.153058 156.17471 88.199147 156.63136 88.235337 157.09185 C 88.23562 157.13691 88.236876 157.18192 88.238955 157.22672 C 88.401386 157.18667 88.567693 157.17176 88.751585 157.17711 L 88.751585 157.17815 C 88.837335 157.18015 88.927128 157.1871 89.021853 157.1983 C 89.077327 157.20465 89.129619 157.21056 89.178432 157.21639 C 89.236219 156.95317 89.317071 156.69563 89.421311 156.44796 C 89.392992 156.44315 89.363887 156.43804 89.333978 156.43245 C 88.766045 156.32696 88.414808 156.12751 88.111314 155.71932 z M 49.969973 156.05728 C 49.963991 156.2442 49.957868 156.43106 49.951886 156.61797 C 51.114787 156.69797 52.515563 156.74759 53.505674 156.73993 C 53.511849 156.58953 53.517867 156.43929 53.523244 156.28879 C 52.550497 156.16084 51.166895 156.06483 49.969973 156.05728 z M 93.453107 156.36114 C 93.444655 156.36531 93.437118 156.37071 93.428819 156.37509 C 93.435974 156.3854 93.464894 156.41787 93.47171 156.4278 C 93.465517 156.40565 93.461238 156.38382 93.453107 156.36114 z M 56.698244 157.2138 C 56.707714 157.43278 56.72098 157.6512 56.738552 157.86958 C 56.85128 158.03086 56.934077 158.1629 56.978847 158.25663 L 57.311127 158.9522 L 56.911151 159.29171 C 56.957234 159.57454 57.010404 159.85592 57.070315 160.1361 C 57.333854 159.90551 57.573701 159.69146 57.7881 159.49532 C 57.253393 158.93585 56.951742 158.14867 56.79953 157.35643 C 56.767855 157.31086 56.734089 157.26351 56.698244 157.2138 z M 89.106085 157.63703 C 88.909936 157.7233 88.64722 157.84447 88.342824 157.98843 C 88.395984 158.24476 88.461885 158.49876 88.522658 158.75324 C 88.716456 158.64064 88.901481 158.5315 89.075596 158.42665 C 89.063575 158.1631 89.07366 157.89846 89.106085 157.63703 z M 49.911062 158.43905 C 49.909904 158.60989 49.900835 158.78405 49.889358 158.95995 C 51.664045 158.95667 53.003631 158.89843 53.010614 158.81629 C 53.023079 158.66934 51.601987 158.51824 49.911062 158.43905 z M 72.003253 158.63594 C 71.857862 158.81535 71.705516 158.98949 71.544883 159.15529 C 71.812454 159.6855 72.093115 160.28072 72.380491 160.92985 C 72.401087 160.97638 72.422951 161.02376 72.445603 161.07196 C 72.658267 161.02683 72.869348 160.97978 73.073989 160.92159 C 73.031501 160.82204 72.990695 160.72064 72.951516 160.61721 C 72.75932 160.10988 72.402456 159.37558 72.003253 158.63594 z M 67.157554 158.74601 C 67.056774 158.86532 66.952764 158.98227 66.845429 159.09586 L 67.52239 159.2297 C 67.425825 159.08406 67.346149 158.92628 67.288296 158.75893 L 67.157554 158.74601 z M 76.586953 159.02506 C 76.516075 159.11306 76.442197 159.19861 76.365261 159.28086 C 77.840031 161.2382 78.932068 162.55643 78.581146 161.90499 C 78.490584 161.73686 77.657926 160.53618 76.586953 159.02506 z M 78.309845 159.3408 C 79.957782 161.85194 80.635699 162.37576 81.794904 162.12616 C 82.231208 162.03225 83.624034 161.37718 85.175576 160.57742 C 84.830568 160.59586 84.485791 160.60886 84.141014 160.6167 C 83.897229 160.64179 83.693876 160.55411 83.553453 160.40792 C 83.047335 160.89745 81.673316 161.6711 81.08642 161.674 C 80.380793 161.677 79.325499 160.69085 79.483417 160.1759 C 79.490823 160.15174 79.505135 160.12495 79.525791 160.09528 C 79.086588 159.91726 78.675582 159.65629 78.309845 159.3408 z M 71.126304 159.54854 C 71.010472 159.64667 70.890108 159.73993 70.765086 159.82708 C 70.764654 159.82746 70.764485 159.82774 70.764052 159.82811 C 71.26392 159.903 71.587491 159.93393 71.628082 159.90614 C 71.628381 159.9059 71.629373 159.90484 71.629633 159.90459 C 71.629853 159.90434 71.631002 159.90331 71.631183 159.90304 C 71.631324 159.90277 71.631599 159.90178 71.6317 159.90149 C 71.63176 159.9012 71.631679 159.90076 71.6317 159.90046 C 71.638176 159.80206 71.446616 159.67813 71.126304 159.54854 z M 89.34328 159.77902 C 89.222745 159.87074 89.161288 159.92537 89.156728 159.94387 C 89.156684 159.94415 89.156743 159.94464 89.156728 159.9449 L 89.156728 159.94542 L 89.156728 159.94594 L 89.156728 159.94645 L 89.157245 159.94697 C 89.157293 159.94719 89.157222 159.94775 89.157245 159.948 L 89.157762 159.94852 L 89.158278 159.94904 L 89.158795 159.94955 L 89.159312 159.94955 C 89.17571 159.95516 89.248785 159.92632 89.375836 159.86584 C 89.364659 159.83704 89.353843 159.80805 89.34328 159.77902 z M 75.703803 159.84672 C 75.495689 159.98476 75.272031 160.09931 75.031492 160.18365 L 75.028908 160.18468 C 75.162652 160.36342 75.295912 160.53906 75.427334 160.70971 C 77.840078 163.84299 77.673762 163.56837 77.210687 163.64597 C 76.997185 163.68157 76.632842 163.367 76.332188 162.88581 C 76.02632 162.39667 75.729158 162.14233 75.597866 162.25742 C 75.492096 162.35014 75.196578 162.13137 74.823753 161.6988 C 74.794551 161.92643 74.765141 162.15407 74.735386 162.38196 C 74.922955 162.56801 75.096292 162.67446 75.238198 162.68375 C 75.48102 162.69995 75.79016 162.83859 75.924461 162.99226 C 76.122256 163.21794 76.042692 163.2919 75.508982 163.3788 C 75.243463 163.42203 74.945142 163.32093 74.641335 163.10543 C 74.602871 163.40523 74.564878 163.70532 74.529197 164.00564 C 74.701651 163.92874 74.818742 163.8824 74.863544 163.87489 C 74.895934 163.86989 74.926585 163.86708 74.956045 163.86508 C 75.398017 163.84538 75.503997 164.2672 75.061464 164.48106 C 74.94022 164.53965 74.711285 164.67134 74.43618 164.83866 C 74.380415 165.37738 74.33424 165.91698 74.303888 166.45768 C 75.292856 165.89333 76.353672 165.26378 77.414292 164.60715 C 78.649407 163.84249 78.455141 163.1888 76.175092 160.43583 C 76.023103 160.25232 75.864752 160.05429 75.703803 159.84672 z M 63.327814 160.01415 C 62.936095 160.56092 63.198443 160.91812 63.819257 161.59493 C 64.004354 161.79675 64.189971 162.0415 64.357725 162.29773 C 64.938525 163.03906 65.268232 164.01538 65.496157 164.8986 C 65.853363 164.69372 66.242763 164.53748 66.645957 164.44489 C 66.587844 164.4125 66.523537 164.37718 66.452688 164.33843 C 65.816055 163.98983 65.603198 163.75333 65.625348 163.41756 C 65.647448 163.08182 65.956558 163.05104 66.826825 163.29767 C 67.47106 163.48051 68.074488 163.56435 68.167828 163.48525 C 68.360239 163.3219 67.402072 162.923 66.12971 162.63673 C 65.561054 162.50865 65.16695 162.22831 64.955105 161.79957 C 64.655604 161.19355 64.857945 161.17523 68.309422 161.49881 C 69.438364 161.60437 70.22108 161.66838 70.653982 161.68846 C 70.703082 161.65376 70.753478 161.62127 70.804877 161.5908 C 70.355336 161.48577 69.298459 161.30039 67.625743 161.02856 C 66.18795 160.79498 64.79009 160.7009 64.519472 160.81927 C 63.790472 161.13814 63.689715 160.84707 64.159804 160.28803 C 63.867499 160.24787 63.583793 160.15687 63.327814 160.01415 z M 58.777187 160.13662 C 58.516895 160.37479 58.384316 160.52536 58.407184 160.55003 C 58.419817 160.5604 58.468184 160.54242 58.554978 160.49164 C 58.67732 160.42001 58.819357 160.31734 58.959605 160.20173 C 58.938471 160.19331 58.917183 160.18416 58.896043 160.17486 C 58.855734 160.16292 58.816146 160.15024 58.777187 160.13662 z M 88.425507 160.24876 C 88.381561 160.2553 88.337712 160.26203 88.293732 160.2684 C 88.228563 160.3073 88.141691 160.37275 88.03845 160.46322 C 87.744551 160.72084 87.667321 160.87368 87.865851 160.80428 C 88.064323 160.73488 88.304352 160.52485 88.399152 160.33713 C 88.419806 160.29617 88.428052 160.26687 88.425507 160.24876 z M 73.677053 160.45857 C 73.621377 160.46076 73.620398 160.5448 73.67912 160.70661 C 73.766024 160.68008 73.857269 160.65967 73.948871 160.64718 C 73.817964 160.51843 73.726179 160.45663 73.677053 160.45857 z M 61.215798 160.56037 L 60.397243 160.8911 C 59.909885 161.08815 58.910003 161.69825 57.746242 162.4755 C 57.826399 162.69353 57.9108 162.91032 57.999974 163.12507 C 58.00325 163.13296 58.006296 163.1405 58.009275 163.14832 C 58.108238 163.11635 58.200455 163.09849 58.287811 163.0951 C 58.343612 163.09293 58.397608 163.09687 58.450075 163.10698 C 58.597794 162.8443 58.7641 162.59331 58.953921 162.35922 L 58.929116 162.31685 L 59.044354 162.25122 C 59.044513 162.25104 59.044713 162.25089 59.044871 162.2507 C 59.201667 162.06875 59.373677 161.8979 59.562669 161.74014 C 60.166809 161.39609 60.865402 161.21914 61.571332 161.18514 L 61.215798 160.56037 z M 57.574677 160.82805 C 57.535523 160.82977 57.438657 160.88993 57.280638 161.0084 C 57.299428 161.07838 57.318326 161.14795 57.337999 161.21769 C 57.400616 161.15901 57.445609 161.11092 57.47029 161.07507 C 57.584942 160.90859 57.621931 160.82598 57.574677 160.82805 z M 90.085354 161.06886 C 88.134888 162.31659 85.850364 163.62235 84.027842 164.49294 C 83.409905 164.78813 82.862876 165.05522 82.325104 165.3332 C 82.481715 165.46604 82.622308 165.61661 82.742649 165.78227 C 84.943111 164.68201 86.967703 163.58264 88.736599 162.53751 C 88.909515 162.02195 89.216175 161.58359 89.772711 161.46161 C 89.945853 161.48283 90.089621 161.54705 90.212478 161.64092 C 90.28138 161.59783 90.349755 161.55509 90.417633 161.51225 C 90.298695 161.36731 90.186184 161.22039 90.085354 161.06886 z M 50.038186 161.19806 C 50.108588 161.35925 50.201078 161.51373 50.321889 161.65953 C 50.33339 161.66945 50.34532 161.67921 50.357029 161.68898 C 51.015663 161.63188 51.253958 161.51873 51.098069 161.34172 C 50.992119 161.22082 50.540858 161.17951 50.038186 161.19806 z M 86.718634 161.28125 C 86.673844 161.28525 86.588694 161.33545 86.468003 161.43267 C 86.235188 161.62029 86.153132 161.78127 86.286102 161.79027 C 86.419083 161.79927 86.609879 161.64522 86.709849 161.44869 C 86.768629 161.33322 86.769374 161.27716 86.718634 161.28125 z M 43.873704 161.71844 C 43.902101 162.12734 43.933161 162.5364 43.967238 162.94472 C 44.260338 163.32153 44.562609 163.70925 44.87416 164.10899 C 46.034711 165.59808 46.984151 166.82571 47.764423 167.85036 C 47.893423 167.73721 48.0269 167.629 48.164398 167.52635 C 47.629689 166.78297 47.026084 165.95689 46.344354 165.034 C 45.809316 165.23048 45.258864 164.62955 45.605898 164.10485 C 45.605148 164.08177 45.605645 164.05965 45.606932 164.03871 C 45.072998 163.32028 44.496271 162.54855 43.873704 161.71844 z M 85.252057 162.18973 C 85.207257 162.19373 85.122123 162.24333 85.001426 162.34062 L 85.001426 162.34114 C 84.768422 162.529 84.686956 162.68922 84.820042 162.69822 C 84.953023 162.70722 85.143302 162.55317 85.243272 162.35664 C 85.302002 162.24121 85.302817 162.18562 85.252057 162.18973 z M 52.983226 162.57265 C 52.712254 162.78024 52.461634 162.96311 52.227199 163.12249 C 52.3558 163.30722 52.450497 163.51929 52.494367 163.77154 C 52.544781 163.33524 52.810213 162.96669 52.983226 162.57265 z M 80.957745 163.31369 C 80.912915 163.31769 80.828311 163.36779 80.707631 163.4651 L 80.707631 163.46458 C 80.474626 163.65244 80.392657 163.81318 80.52573 163.82218 C 80.658688 163.83118 80.849517 163.67712 80.949477 163.4806 C 81.008087 163.36528 81.008515 163.30956 80.957745 163.31369 z M 62.388853 163.55863 C 62.320818 163.58264 62.257964 163.61802 62.200234 163.66302 C 62.233609 163.72323 62.267172 163.78444 62.301003 163.84596 C 62.337649 163.75343 62.3679 163.65791 62.388853 163.55863 z M 55.878139 163.76689 C 54.823064 164.51884 53.778709 165.30004 52.960488 165.95952 C 53.327317 165.89406 53.695042 165.8331 54.063263 165.77814 C 54.680759 165.30607 55.378925 164.8042 56.14789 164.28107 C 56.354446 164.14055 56.54356 164.01073 56.717881 163.89246 C 56.440327 163.80962 56.159479 163.77094 55.878139 163.76689 z M 79.822414 164.04388 C 79.65021 164.03255 76.897122 165.64996 74.259963 167.25867 C 74.250414 167.4117 74.239844 167.56519 74.229474 167.7191 C 74.565169 167.51667 74.921539 167.30207 75.299176 167.07418 C 76.218613 166.51935 76.974362 166.05975 77.588442 165.68099 C 77.904059 165.42051 78.250043 165.20118 78.62042 165.03555 C 79.773866 164.29957 80.041214 164.05831 79.822414 164.04388 z M 76.422622 164.063 C 76.463192 164.06204 76.494402 164.07202 76.513572 164.09452 C 76.61639 164.2118 76.526652 164.44788 76.314101 164.61955 C 76.101634 164.7912 75.663505 165.01746 75.340517 165.12236 C 74.86953 165.27526 74.90902 165.17116 75.539988 164.59681 C 75.89149 164.27688 76.246838 164.06715 76.422622 164.063 z M 52.635443 164.26712 C 52.586775 164.26447 52.586701 164.31819 52.663865 164.48726 C 52.727702 164.44691 52.791972 164.40579 52.857135 164.36427 C 52.758936 164.31559 52.678386 164.26945 52.635443 164.26712 z M 49.876438 164.40044 C 49.37385 164.40921 48.872742 164.44152 48.377305 164.50896 C 49.073808 164.82045 49.815642 164.85462 50.636599 164.63454 L 51.384874 164.43403 C 50.882808 164.40674 50.378683 164.39168 49.876438 164.40044 z M 51.570909 164.44489 L 50.936839 165.00764 C 50.526153 165.37243 50.363095 165.65733 50.564252 165.65773 C 50.734145 165.6579 51.573232 165.17495 52.612189 164.51982 C 52.267 164.49199 51.919619 164.46587 51.570909 164.44489 z M 61.607505 164.77458 C 61.55863 164.9284 61.514359 165.0764 61.470563 165.20505 C 61.534318 165.08864 61.606614 164.97578 61.681919 164.86398 C 61.656959 164.83387 61.63206 164.80401 61.607505 164.77458 z M 44.217352 165.46394 C 44.28855 166.07821 44.367596 166.69115 44.455064 167.30363 C 45.062989 168.18656 45.647977 169.03029 46.21723 169.84404 C 46.358917 169.56447 46.520868 169.29541 46.700405 169.03892 C 45.918363 167.9147 45.082038 166.71094 44.217352 165.46394 z M 70.378029 165.47015 C 70.158601 165.58486 69.954783 165.69212 69.76463 165.79106 C 69.861605 165.94984 69.949191 166.11507 70.02818 166.28405 C 70.14536 166.2213 70.26551 166.15722 70.387848 166.09233 C 70.384945 165.88493 70.381654 165.67753 70.378029 165.47015 z M 61.651947 165.59107 C 61.723752 165.69007 61.79717 165.79011 61.872089 165.89079 C 61.92799 165.96591 61.984912 166.04219 62.042621 166.1192 C 62.236862 166.09305 62.431285 166.06677 62.625531 166.04065 C 62.539917 165.93072 62.453915 165.82133 62.368699 165.71354 C 62.267921 165.69995 62.167253 165.68667 62.066392 165.67375 C 61.897466 165.62563 61.761574 165.59617 61.651947 165.59107 z M 63.440468 165.85565 C 63.454608 165.87908 63.468661 165.90253 63.482843 165.92593 C 63.571833 165.91412 63.661011 165.90253 63.75001 165.89079 C 63.646757 165.87997 63.543537 165.86803 63.440468 165.85565 z M 64.156187 165.88717 C 64.099038 165.88642 64.025823 165.89328 63.933462 165.90991 C 63.666801 165.81234 63.819044 166.24291 63.80117 166.4427 C 63.865639 166.54586 63.929664 166.6477 63.993923 166.74862 C 64.007456 166.70975 64.022222 166.66804 64.037331 166.62305 C 64.168584 166.29055 64.556233 165.89243 64.156187 165.88717 z M 67.834515 166.79565 C 67.756261 166.79668 67.534017 167.15268 67.447459 167.30466 C 67.341693 167.4865 67.30149 167.571 67.303798 167.58991 C 67.30386 167.59019 67.30423 167.59122 67.304315 167.59146 L 67.304832 167.59198 L 67.304832 167.5925 L 67.305349 167.59301 L 67.305866 167.59353 L 67.306382 167.59405 C 67.306601 167.59408 67.307693 167.59405 67.307933 167.59405 C 67.35653 167.58781 67.772015 167.00367 67.84175 166.79668 C 67.839536 166.79596 67.83704 166.79561 67.834515 166.79565 z M 80.501959 166.9822 C 80.484144 166.99438 80.466692 167.00684 80.449249 167.01941 C 80.466798 167.00867 80.484088 166.99795 80.501443 166.98737 L 80.501959 166.9822 z M 75.994741 167.90152 C 75.980141 167.90841 75.965763 167.91542 75.951333 167.92219 C 75.501362 168.13337 74.887097 168.48847 74.146792 168.96192 C 74.133031 169.18455 74.120213 169.40767 74.109585 169.63062 C 74.661397 169.28112 75.196991 168.96288 75.699668 168.687 C 75.767611 168.47804 75.844932 168.27119 75.933246 168.06689 C 75.952919 168.01165 75.973227 167.95628 75.994741 167.90152 z M 61.148102 168.65186 C 61.143617 168.84751 61.141066 169.04245 61.139834 169.23736 C 61.615946 169.45936 62.018384 169.66305 62.346995 169.84869 C 62.449177 169.72048 62.577785 169.61707 62.732501 169.55103 C 62.890021 169.53027 63.034532 169.48743 63.147463 169.41099 C 63.005492 169.27403 62.882922 169.14016 62.764541 168.98931 C 62.363765 168.93145 61.963892 168.74149 61.554279 168.66737 C 61.551231 168.83102 61.410633 168.80304 61.148102 168.65186 z M 55.965989 168.73145 C 55.955829 168.79285 55.945474 168.85392 55.9355 168.91541 C 56.188524 169.04655 56.628957 169.20887 57.167466 169.37999 C 57.176277 169.23653 57.186169 169.09326 57.197955 168.95055 C 56.647155 168.83151 56.217445 168.75512 55.965989 168.73145 z M 51.371438 169.04409 C 51.321865 169.09448 51.272896 169.14506 51.22416 169.19653 C 51.316498 169.24633 51.50089 169.31716 51.755394 169.40272 C 51.753972 169.29386 51.752079 169.18478 51.749192 169.07509 C 51.600086 169.0531 51.471273 169.04298 51.371438 169.04409 z M 50.940456 169.50866 C 50.797867 169.67239 50.660568 169.8412 50.530662 170.01509 C 50.771322 170.4078 51.15208 170.87805 51.676845 171.49355 C 51.702294 171.22671 51.721041 170.9586 51.734206 170.68895 C 51.271417 170.10869 51.035505 169.76549 50.940456 169.50866 z M 75.461957 169.57997 C 75.031075 169.86876 74.571548 170.17774 74.080129 170.50963 C 74.075494 170.78055 74.075298 171.05104 74.081679 171.32044 C 74.45152 171.05998 74.801925 170.81165 75.128644 170.57784 C 75.18701 170.53608 75.245583 170.49412 75.304344 170.45227 C 75.348653 170.15959 75.399671 169.86859 75.461957 169.57997 z M 70.473631 169.62545 C 69.907797 169.99395 69.518411 170.26214 69.404962 170.36959 C 69.330985 170.43965 69.267554 170.5008 69.220477 170.54994 L 69.220477 170.66104 C 69.375109 170.59957 69.742584 170.39739 70.430739 169.9939 C 70.429905 169.97123 70.429057 169.94886 70.428156 169.9262 C 70.46632 169.80633 70.47983 169.70736 70.473631 169.62545 z M 55.77737 169.96703 C 55.752211 170.15037 55.728603 170.33411 55.706574 170.5179 C 56.184005 170.6405 56.65588 170.75833 57.09822 170.86517 C 57.106392 170.68899 57.113622 170.51269 57.120957 170.33652 C 56.701443 170.21473 56.248586 170.09005 55.77737 169.96703 z M 61.141901 169.97065 C 61.143698 170.11181 61.146437 170.25296 61.149652 170.39388 C 61.50293 170.46239 61.817227 170.51453 62.068459 170.54477 C 62.079842 170.45225 62.099391 170.36099 62.126853 170.27295 C 61.869128 170.18786 61.533405 170.08488 61.141901 169.97065 z M 50.212335 170.47553 C 50.131779 170.60237 50.055818 170.73184 49.984442 170.86362 C 50.713683 171.91484 51.091831 172.57648 51.335781 173.15185 L 51.336814 173.15133 C 51.3571 173.19917 51.377138 173.24589 51.396759 173.29189 C 51.398702 173.28501 51.400584 173.2786 51.402443 173.27174 C 51.446721 173.06781 51.486075 172.86344 51.521299 172.65937 C 51.215561 172.06501 50.794369 171.36022 50.212335 170.47553 z M 62.267413 171.49252 C 61.948648 171.64493 61.590054 171.82542 61.214248 172.0222 C 61.226301 172.24158 61.239824 172.46115 61.254039 172.68056 C 61.848434 172.36734 62.452064 172.06744 62.959878 171.82996 C 62.842933 171.78569 62.683517 171.7668 62.49634 171.73436 C 62.406023 171.66775 62.329658 171.58572 62.267413 171.49252 z M 70.451927 171.53954 C 70.253466 171.68653 70.052064 171.83652 69.848346 171.98964 C 69.637359 172.14823 69.427896 172.30479 69.220477 172.45938 L 69.220477 172.53897 C 69.194762 172.53156 69.169193 172.52416 69.143479 172.51674 C 68.26881 173.16794 67.42703 173.78314 66.62322 174.35849 C 66.633281 174.60048 66.645006 174.84223 66.658877 175.08403 C 67.936238 174.16957 69.22791 173.20359 70.451927 172.23873 C 70.451451 172.00553 70.451957 171.7726 70.451927 171.53954 z M 66.688849 171.91575 C 66.647168 171.93416 66.612919 171.96234 66.588597 172.00308 C 66.623052 171.9735 66.656484 171.9445 66.688849 171.91575 z M 63.171234 172.11677 C 63.078559 172.17103 62.98276 172.2258 62.88443 172.28058 C 62.39335 172.55418 61.781835 172.84403 61.278843 173.04901 C 61.29138 173.22945 61.304513 173.40993 61.318117 173.59058 C 61.902828 173.347 62.53285 173.05916 63.096303 172.77668 C 63.10257 172.67391 63.10874 172.57139 63.114907 172.46869 C 63.157744 172.32022 63.175247 172.2059 63.171234 172.11677 z M 49.347789 172.83455 C 49.245413 173.52255 49.271283 174.25146 49.800991 174.70679 C 50.064351 174.7267 50.309664 174.65081 50.527045 174.51404 C 50.185946 174.03039 49.789562 173.46553 49.347789 172.83455 z M 70.457611 172.9684 C 70.12875 173.19234 69.789662 173.42381 69.439585 173.66241 C 68.565993 174.25782 67.627948 174.89219 66.686265 175.52535 C 66.70463 175.79885 66.725893 176.07223 66.74931 176.34545 C 68.010538 175.49776 69.278896 174.63786 70.483966 173.81331 C 70.470365 173.5322 70.462183 173.25045 70.457611 172.9684 z M 63.029641 173.82002 C 62.476965 174.18578 61.93461 174.53711 61.41992 174.86337 C 61.431452 175.00067 61.44332 175.13813 61.45506 175.27575 C 61.454882 175.36409 61.457957 175.45185 61.463845 175.5393 C 61.964082 175.23382 62.47452 174.91341 62.975381 174.58949 C 62.994574 174.33299 63.012404 174.0765 63.029641 173.82002 z M 51.710952 176.84155 C 51.616274 176.90705 51.52109 176.98148 51.424664 177.06117 C 51.926134 177.73326 52.433173 178.40645 52.951703 179.08895 L 52.95222 179.08844 C 54.984615 181.76352 56.196397 183.06121 56.538047 182.928 C 56.971178 182.75917 59.379571 181.22791 62.430194 179.21969 C 62.486947 178.89976 62.538782 178.57904 62.586257 178.25748 C 61.549903 178.94084 60.656132 179.52316 60.029824 179.92146 L 56.640367 182.07688 L 55.117979 180.39533 C 54.712026 179.9469 54.144876 179.272 53.55115 178.53808 C 52.701718 178.32539 51.959973 177.73641 51.710952 176.84155 z M 62.749038 177.0188 C 62.438958 177.22077 62.139722 177.41254 61.851935 177.59344 C 61.890952 177.81931 61.918159 178.04627 61.924282 178.27608 C 62.160444 178.12796 62.402375 177.97426 62.648785 177.81565 C 62.68474 177.55039 62.718152 177.28483 62.749038 177.0188 z M 55.805276 178.17635 C 55.742861 178.18009 55.640071 178.2328 55.480231 178.3536 C 55.386791 178.3994 55.291219 178.43939 55.193427 178.47349 C 55.211126 178.51953 55.230542 178.56498 55.251821 178.6094 L 55.251304 178.60991 C 55.919879 180.0036 56.696578 180.67108 57.515249 180.55605 C 58.132785 180.46926 59.580004 179.72015 61.428188 178.58459 C 60.941959 178.63306 60.454848 178.676 59.967812 178.71533 C 58.770895 179.37807 57.926743 179.72243 57.5199 179.69563 C 57.132099 179.67005 56.836868 179.48487 56.43056 178.97113 C 56.191322 178.98861 55.951906 179.00673 55.712775 179.02539 C 55.782999 178.67292 56.009164 178.16413 55.805276 178.17635 z " /><path
       id="path190"
       style="fill:#800080;stroke:none;stroke-opacity:1"
       d="m 62.774042,180.30589 c 0.34091,-1.30339 0.87642,-6.34338 0.88645,-8.34289 0.004,-0.70573 -0.0778,-0.81368 -0.52498,-0.69675 -0.42688,0.11164 -0.52917,0.008 -0.52917,-0.53553 0,-0.48975 0.15731,-0.69702 0.57562,-0.75846 0.47118,-0.0692 0.63078,-0.36186 0.87957,-1.61285 0.37338,-1.87742 1.0764,-2.87008 2.33014,-3.29016 1.8245,-0.61132 2.901076,0.19075 3.5815,2.66827 l 0.28145,1.0248 -0.97987,-0.162 c -0.538921,-0.0891 -1.19687,-0.16331 -1.46209,-0.16491 -0.45002,-0.003 -0.4456,-0.0495 0.0661,-0.70005 0.60559,-0.76988 0.69576,-1.2972 0.26711,-1.56212 -0.6695,-0.41377 -1.83541,1.68145 -1.83541,3.29836 0,0.53845 0.0869,0.5678 1.19063,0.40228 l 1.19062,-0.17855 v 1.06991 1.0699 l -0.85815,-0.24611 c -1.702953,-0.48839 -1.78768,-0.41987 -1.78768,1.44564 0,2.21144 0.48374,6.88557 0.79821,7.71269 0.23483,0.61765 0.19837,0.64984 -0.73862,0.65202 -0.5421,0.001 -1.59716,0.0758 -2.34457,0.16558 l -1.35894,0.16328 z m -6.167498,-2.70011 0.206255,-0.83943 -0.692872,0.57699 c -1.484441,1.23617 -3.403975,0.90317 -3.911493,-0.67856 l -0.265437,-0.82726 -1.247184,1.16346 c -1.332272,1.24284 -2.009073,1.4088 -3.060518,0.75052 -1.160044,-0.72627 -1.657826,-1.93976 -1.675682,-4.08498 -0.03132,-3.76214 1.921451,-6.26936 5.347659,-6.86598 0.956977,-0.16665 2.337675,-0.40797 3.068215,-0.53628 0.73054,-0.12831 1.382286,-0.185 1.448304,-0.12599 0.06601,0.059 -0.03524,0.79475 -0.224983,1.63496 -0.463022,2.05008 -0.757357,5.92412 -0.515536,6.78536 0.256051,0.91186 1.193763,0.91452 1.860277,0.005 0.364246,-0.4969 0.552646,-1.49712 0.672834,-3.57207 l 0.166931,-2.88192 -0.697683,1.9e-4 c -0.514619,1.4e-4 -0.650537,-0.10961 -0.518009,-0.41832 0.09879,-0.23018 0.179673,-0.52784 0.179673,-0.66146 0,-0.13362 0.254698,-0.24294 0.565993,-0.24294 0.437268,0 0.611325,-0.25573 0.765312,-1.12448 0.264329,-1.49127 1.166667,-3.15802 1.942886,-3.58878 0.344534,-0.1912 1.173771,-0.35439 1.842757,-0.36264 0.959238,-0.0118 1.358199,0.13243 1.88762,0.68258 0.651678,0.67719 1.465365,2.73154 1.182173,2.98467 -0.0772,0.069 -0.738249,0.0453 -1.469046,-0.0527 l -1.32872,-0.1781 0.464376,-0.72323 c 0.605029,-0.94228 0.311653,-1.74187 -0.497145,-1.35496 -0.564605,0.27009 -0.976784,1.13964 -1.370919,2.89204 l -0.20112,0.89422 1.363983,-0.18283 1.363972,-0.18283 v 1.068 c 0,1.0371 -0.02193,1.06053 -0.759281,0.80996 -0.4176,-0.14192 -1.036365,-0.25803 -1.375025,-0.25803 -0.60393,0 -0.612299,0.0748 -0.436228,3.9026 0.09868,2.14643 0.310513,4.37551 0.470641,4.95351 0.160139,0.578 0.265214,1.06765 0.233508,1.08812 -0.03166,0.0205 -1.168044,0.11676 -2.525202,0.21396 l -2.467552,0.17674 z m -5.363657,-3.01093 c 0.492132,-0.47465 0.736749,-1.11504 0.873887,-2.28777 0.270114,-2.30998 0.23588,-4.14048 -0.08066,-4.31537 -0.435132,-0.24038 -2.319115,1.92304 -2.820846,3.23924 -1.156789,3.0346 0.139442,5.18505 2.027666,3.3639 z m -10.796653,2.28089 c -0.333591,-0.60555 -1.060881,-1.97005 -1.616203,-3.03225 l -1.00968,-1.93124 -0.122486,2.24097 c -0.106073,1.94057 -0.221548,2.29206 -0.861503,2.6222 -0.40645,0.20971 -1.163122,0.74199 -1.681485,1.18289 l -0.942472,0.80164 -0.313116,-0.61345 c -0.172225,-0.3374 -1.161909,-2.6736 -2.19933,-5.19156 -3.84871,-9.34137 -6.122684,-12.55127 -8.481777,-11.97274 -1.134108,0.27813 -1.308555,-0.0894 -0.8887,-1.87248 0.513139,-2.17926 2.177977,-2.95916 3.978822,-1.86391 2.107383,1.28169 4.416187,5.48914 7.434588,13.54849 1.482949,3.95954 1.567005,4.11364 1.606938,2.94579 0.07996,-2.33771 -0.34844,-5.65349 -1.037935,-8.03373 l -0.691563,-2.3873 1.494105,-0.36637 c 0.821776,-0.2015 1.78592,-0.56762 2.142554,-0.81361 l 0.648425,-0.44725 0.497928,2.68645 c 0.648449,3.49858 2.966161,9.26031 3.656897,9.09091 0.295371,-0.0724 -0.13096,-4.18662 -0.930207,-8.97682 -0.688778,-4.12817 -2.20646,-9.27885 -3.122874,-10.59884 -0.244884,-0.35269 -0.118817,-0.48163 0.663584,-0.67866 0.531248,-0.13375 1.765113,-0.62799 2.741928,-1.09824 0.976826,-0.47026 1.809162,-0.83746 1.849643,-0.816 0.04048,0.0215 0.01393,0.94134 -0.059,2.04415 -0.342029,5.17221 0.415135,13.99499 1.624125,18.92489 l 0.622385,2.53791 -0.918036,0.67821 c -0.504922,0.37301 -1.494275,1.08609 -2.198553,1.58458 l -1.28051,0.90637 z m 31.745688,0.40447 c -0.18496,-0.0744 -0.5328,-0.5115 -0.77296,-0.9713 -0.36737,-0.70331 -0.44203,-1.84383 -0.4704,-7.18599 -0.0186,-3.4925 -0.0874,-6.51479 -0.15308,-6.7162 -0.0831,-0.25502 0.28227,-0.46196 1.20357,-0.68164 0.72761,-0.17349 1.57606,-0.399 1.88546,-0.50112 0.53512,-0.17664 0.55215,-0.13006 0.34933,0.95557 -0.39245,2.1007 -0.81758,8.74671 -0.64617,10.10172 0.24711,1.95353 0.3757,2.26563 0.93344,2.26563 0.69626,0 0.95058,-0.62372 1.14421,-2.80622 0.37554,-4.23279 2.03971,-6.52636 4.73543,-6.52636 1.48912,0 2.31422,0.86806 2.31294,2.43338 -0.002,2.12064 -1.70263,3.98557 -3.63703,3.98779 -0.94773,0.001 -1.03024,0.22713 -0.56749,1.55459 0.58649,1.6824 2.44836,1.85929 4.34353,0.41268 0.68029,-0.51928 1.29515,-0.88589 1.36635,-0.81469 0.0712,0.0712 0.32739,0.52583 0.56931,1.01029 0.32156,0.64393 0.61678,0.88083 1.09769,0.88083 1.06355,0 0.96475,-0.81757 -0.25926,-2.14548 -1.9507,-2.11626 -2.26205,-3.88414 -1.03841,-5.89626 0.97172,-1.59786 3.46711,-2.11962 4.62061,-0.96612 1.40625,1.40625 0.45885,4.11307 -1.43959,4.11307 -1.10381,0 -1.19904,-0.34606 -0.28183,-1.02418 0.61174,-0.45228 0.78336,-0.78456 0.78336,-1.51669 0,-0.72815 -0.0971,-0.91841 -0.43498,-0.85197 -0.59816,0.11764 -1.37684,1.23404 -1.57831,2.26285 -0.18014,0.91983 0.26148,1.47493 2.73039,3.43204 1.1632,0.92208 1.41882,1.60854 1.0824,2.90684 -0.62111,2.39692 -4.94753,3.22925 -6.21841,1.19631 -0.24641,-0.39416 -0.48091,-0.76312 -0.52111,-0.81991 -0.0402,-0.0568 -0.54537,0.32344 -1.12262,0.84494 -1.20441,1.08811 -2.50076,1.42644 -3.81,0.99435 -0.99665,-0.32892 -1.49412,-0.79856 -2.09835,-1.98089 l -0.39556,-0.77401 -0.47628,1.00369 c -0.679797,1.43257 -2.14893,2.25991 -3.23618,1.82246 z m 7.30845,-7.37107 c 0.94157,-0.79228 1.85235,-2.91547 1.43126,-3.33656 -0.68193,-0.68193 -2.12663,1.08546 -2.57131,3.14565 -0.22583,1.04626 0.0655,1.09505 1.14005,0.19091 z M 38.116376,144.79227 c -0.917652,0 4.223106,1.99687 0.968849,-14.13159 -0.685355,-3.3967 -0.206367,-3.75891 -0.516694,-3.0427 -0.514081,1.18644 -1.038063,3.94359 -1.244498,6.54843 l -0.183472,2.31511 h -0.957549 c -0.526652,0 -1.343716,0.11075 -1.815698,0.24611 l -0.858149,0.24611 v -1.84476 c 0,-2.18574 -0.608929,-5.34316 -1.333611,-6.91503 l -0.518724,-1.12514 c -1.121548,7.99785 -0.775595,12.33446 0.08339,14.94895 0.798135,2.42929 1.957247,2.27182 1.932622,2.29976 -0.07307,0.0829 -5.549971,0.60649 -6.022788,0.60866 -0.371292,0.002 0.660095,-0.14361 0.87473,-0.99018 0.334132,-1.3179 0.609442,-13.17563 0.366181,-15.77159 -0.161127,-1.71947 -0.251519,-1.99745 -0.564932,-1.73734 -0.205212,0.17031 -0.373113,0.7118 -0.373113,1.2033 0,1.04359 -0.504747,1.18265 -1.322917,0.36448 -0.691642,-0.69164 -0.669774,-1.56723 0.06615,-2.64852 1.367528,-2.00932 3.570049,-2.66264 5.198559,-1.54203 1.221867,0.84079 2.424226,3.07258 3.112882,5.77805 0.618831,2.43115 0.636825,2.42362 1.263986,-0.52917 0.879276,-4.13978 2.523937,-6.35 4.725151,-6.35 1.237677,0 3.138067,0.22531 3.138067,1.29999 0,0.70806 -1.042714,1.82709 -1.547012,1.32279 -0.600536,-0.60053 -0.720227,0.54689 -0.719598,6.89842 6.03e-4,6.09323 1.401529,10.57415 1.983902,12.10591 0.220862,0.58091 -0.877797,0.598 -2.478111,0.60151 -0.905903,0.002 -2.464237,0.0806 -2.816204,0.17482 -0.550819,0.14736 0.02612,-0.33435 -0.44139,-0.33435 z m 6.827232,-4.22577 c -1.036898,-0.72627 -1.481834,-1.93976 -1.4978,-4.08498 -0.028,-3.76214 1.717483,-6.26936 4.779981,-6.86598 0.855388,-0.16665 2.089518,-0.40797 2.742511,-0.53628 0.652994,-0.12831 1.235548,-0.185 1.294564,-0.12599 0.05902,0.059 -0.03148,0.79475 -0.201102,1.63496 -0.41387,2.05008 -0.676964,5.92412 -0.460807,6.78536 0.439206,1.74994 3.543972,4.11986 2.739554,2.10619 -1.194184,-2.98935 1.477106,-6.64514 4.17178,-7.22691 0.452685,-0.0977 0.783603,-0.33451 0.770135,-0.55105 -0.01299,-0.20882 -0.100459,-3.76965 -0.194381,-4.67916 -0.165578,-1.60341 -0.152072,-1.65364 0.444585,-1.65364 0.338444,0 1.182379,-0.17066 1.875422,-0.37923 l 1.260071,-0.37922 -0.163089,1.10683 c -0.662451,4.49583 -0.851051,12.40615 -0.406956,14.00526 0.346671,1.2483 1.109804,1.34201 1.615999,0.19844 0.466372,-1.05361 0.83985,-1.0132 0.611305,0.0661 -0.296092,1.39834 -1.192788,2.76628 -2.151896,3.28279 -0.816572,0.43976 -0.960357,0.44689 -1.613866,0.0801 -0.394584,-0.22148 -0.833282,-0.75619 -0.974885,-1.18825 -0.141602,-0.43206 -0.283315,-0.82649 -0.314918,-0.8765 -0.0316,-0.05 -2.429024,0.7674 -3.338701,0.59531 -2.773495,-0.52468 -3.36979,-0.51034 -5.678052,-2.1972 l -1.433929,-1.05716 -1.127339,1.17656 c -1.202976,1.25549 -1.80651,1.42319 -2.748186,0.76362 z m 3.224634,-3.15665 c 0.439892,-0.47465 0.658542,-1.11504 0.781116,-2.28777 0.241441,-2.30998 0.210843,-4.14048 -0.07213,-4.31537 -0.388941,-0.24038 -2.07293,1.92304 -2.521406,3.23924 -1.033992,3.0346 0.124642,5.18505 1.812425,3.3639 z m 10.318888,2.64568 c 0.78211,0 0.635211,-1.04143 0.797108,-3.59998 0.102342,-1.61736 0.107478,-3.01731 0.01141,-3.111 -0.315928,-0.30809 -2.186726,2.07246 -2.613894,3.32613 -1.040743,3.05441 -0.687643,3.38485 1.805372,3.38485 z m -11.945781,23.91988 c 1.618919,-0.81107 0.68798,-7.14405 0.693906,-9.49062 0.0034,-1.35135 -0.04778,-1.51085 -0.392951,-1.22438 -0.242176,0.20099 -0.396875,0.78085 -0.396875,1.48761 0,1.09651 -0.04011,1.15823 -0.752743,1.15823 -0.99079,0 -1.628507,-0.74536 -1.628507,-1.90338 0,-1.175 0.752753,-2.15685 2.114051,-2.75745 l 1.043018,-0.46018 -0.116602,-1.47439 c -0.06413,-0.81092 -0.179062,-2.32761 -0.255402,-3.37042 -0.07634,-1.04282 -1.705559,-1.92694 -1.78706,-2.13933 -0.113957,-0.29696 1.755496,-0.60517 3.099254,-0.85872 0.961049,-0.18134 1.791293,-0.28545 1.844987,-0.23136 0.05369,0.0541 -1.077483,1.06278 -0.846975,5.09088 0.139873,2.44426 0.374791,3.07726 0.966573,3.07726 0.278076,0 1.248576,0.23125 2.156667,0.51388 l 1.651073,0.51387 0.467605,-6.26572 c 0.148459,-1.9893 -2.127435,-1.25307 -1.758973,-1.39493 1.660649,-1.21491 3.403015,-1.50895 5.418136,-1.88904 l -1.425844,8.43873 c -1.248469,7.38895 0.223195,10.81142 0.822793,12.37395 0.140819,0.36697 0.04665,0.40518 -0.593704,0.24094 -2.666302,-0.91721 -4.816743,2.03316 -3.387944,-0.62543 0.256102,-0.46311 0.623437,-6.16858 0.634396,-8.38808 l 0.0081,-1.64121 -0.992187,-0.27554 c -0.545703,-0.15155 -1.570891,-0.27621 -2.278196,-0.27702 l -1.286008,-0.001 -0.245197,7.74138 c -0.09868,3.11545 2.321362,2.25253 2.675894,4.00522 -5.56031,-0.49836 -6.306514,1.40408 -5.821613,0.14045 z m 37.418332,-4.27893 c 0.13637,-0.26562 0.33005,-0.82562 0.4304,-1.24445 l 0.18244,-0.76151 -0.80705,0.80705 c -0.99073,0.99073 -2.39913,1.48519 -3.59263,1.26128 -1.0355,-0.19426 -2.42956,-1.4692 -2.67478,-2.44623 -0.16139,-0.64303 -0.19079,-0.62414 -0.74659,0.47978 -1.1518,2.28768 -3.22145,2.68364 -4.073996,0.77942 l -0.45663,-1.01992 -0.83759,0.99767 c -0.46067,0.54871 -1.15306,1.07684 -1.53864,1.17361 -0.938407,0.23553 -1.941887,-0.44553 -2.143777,-1.45498 l -0.1578,-0.78903 -0.89475,1.04531 c -1.06999,1.25005 -2.19647,1.59438 -3.157,0.96502 -0.36285,-0.23775 -0.73074,-0.78733 -0.81753,-1.2213 l -0.15781,-0.78903 -0.89886,1.05013 c -1.06718,1.24675 -1.716969,1.50331 -2.737185,1.08072 -1.194325,-0.49471 -1.71885,-1.86948 -1.71885,-4.5051 0,-1.90082 0.106547,-2.46349 0.675915,-3.56945 0.991313,-1.92556 2.22909,-2.67579 5.4095,-3.27877 1.45521,-0.27589 2.67031,-0.47868 2.70022,-0.45064 0.0299,0.028 -0.12374,1.15761 -0.34146,2.51016 -0.21772,1.35255 -0.36125,3.37198 -0.31897,4.48762 0.0694,1.8306 0.13112,2.03619 0.63306,2.10787 0.99908,0.14266 1.34825,-0.85847 1.45912,-4.18356 0.1009,-3.0256 0.0986,-3.03923 -0.49395,-2.95684 -0.32742,0.0455 -0.59531,-0.034 -0.59531,-0.1768 0,-0.60887 0.35461,-1.0966 0.79729,-1.0966 0.31177,0 0.44461,-0.15981 0.38489,-0.46302 -0.0502,-0.25466 -0.15625,-1.20716 -0.23576,-2.11667 -0.12754,-1.45903 -0.0895,-1.65364 0.32289,-1.65364 0.2571,0 1.10168,-0.16452 1.876837,-0.36559 l 1.40939,-0.3656 -0.14841,0.96091 c -0.0816,0.5285 -0.22668,1.56849 -0.32233,2.3111 l -0.17391,1.35021 0.85575,0.17115 c 0.47067,0.0941 0.9685,0.17115 1.1063,0.17115 0.23039,0 0.11208,-2.1165 -0.20335,-3.63802 -0.10036,-0.48407 -0.007,-0.59531 0.50103,-0.59531 0.34344,0 1.189856,-0.17017 1.880916,-0.37815 l 1.25649,-0.37814 -0.17002,1.63491 c -0.0935,0.89921 -0.23274,1.96234 -0.30941,2.36252 -0.11594,0.60517 -0.0468,0.72761 0.41079,0.72761 0.4633,0 0.55019,0.16322 0.55019,1.03356 0,0.8919 -0.0702,1.0152 -0.51222,0.89961 -0.41899,-0.10956 -0.546,0.0461 -0.69783,0.85543 -0.19559,1.04259 0.005,4.72446 0.29986,5.49168 0.0952,0.24803 0.40452,0.45097 0.68742,0.45097 0.68824,0 1.28111,-1.46079 1.28111,-3.15658 0,-2.7001 1.6952,-5.52768 3.65009,-6.08833 1.36617,-0.39181 2.66934,0.11129 3.12729,1.20733 0.9446,2.26073 -1.07807,5.12716 -3.61793,5.12716 -0.77706,0 -0.82346,0.051 -0.66266,0.7276 0.0951,0.40019 0.38781,1.02526 0.65045,1.38907 1.04075,1.4416 4.05526,0.65862 4.58393,-1.19063 0.21222,-0.74229 0.0906,-3.71469 -0.22877,-5.59038 -0.13841,-0.81296 -0.11549,-0.83365 1.27155,-1.14758 0.77688,-0.17584 1.63293,-0.38069 1.90233,-0.45523 0.4293,-0.11878 0.46773,-0.026 0.31098,0.75071 -0.0984,0.48743 -0.24691,1.12418 -0.33009,1.415 -0.11494,0.40188 0.10823,0.29436 0.93001,-0.44807 1.88579,-1.7037 4.08324,-1.60377 4.95112,0.22515 0.52436,1.10499 0.33927,2.66461 -0.4327,3.646 -0.63876,0.81205 -2.1417,1.27259 -3.03932,0.93131 l -0.64701,-0.24599 0.81816,-0.73108 c 1.01223,-0.90451 1.36834,-2.6511 0.66033,-3.2387 -0.38409,-0.31877 -0.57211,-0.30032 -1.38143,0.13552 -0.51526,0.27749 -1.23817,0.89961 -1.60649,1.38249 -0.64542,0.84618 -0.6638,0.97576 -0.50797,3.57962 0.0889,1.4859 0.28317,3.11048 0.43163,3.61017 0.14847,0.49968 0.24222,0.93089 0.20832,0.95824 -0.0339,0.0274 -1.05287,0.1335 -2.2644,0.23589 -2.07738,0.17556 -2.18867,0.15866 -1.95483,-0.29679 z m -22.118963,-3.45951 c 0.56905,-0.61103 0.70454,-1.07009 0.84567,-2.86523 0.0924,-1.17569 0.0912,-2.52187 -0.003,-2.99151 l -0.17077,-0.85389 -0.79115,0.74256 c -1.15408,1.08318 -2.041482,3.13378 -2.044559,4.72453 -0.004,2.05536 0.915369,2.58377 2.163539,1.24354 z m 9.811937,0.26459 c 0.30702,-0.33975 0.4688,-1.32592 0.60766,-3.70417 0.19092,-3.26993 0.0733,-3.74142 -0.72118,-2.89093 -0.17993,0.19262 -0.61662,0.29488 -0.97042,0.22725 l -0.64326,-0.12297 0.11232,3.15037 c 0.0618,1.7327 0.20314,3.29732 0.31414,3.47692 0.28469,0.46062 0.81107,0.4054 1.30074,-0.13647 z m 9.837106,-4.92045 c 1.21101,-1.58771 1.15453,-3.23579 -0.0881,-2.57075 -0.63885,0.3419 -1.61874,2.33018 -1.61874,3.28456 0,0.63256 0.0627,0.68599 0.51841,0.44208 0.28513,-0.1526 0.81992,-0.67274 1.18843,-1.15589 z m 9.241167,14.80513 c -1.07611,-0.48434 -1.68759,-1.38529 -1.68759,-2.48648 0,-0.92364 0.39362,-1.90811 0.76292,-1.90811 0.11833,0 0.40556,0.48476 0.6383,1.07725 0.37098,0.94444 0.51428,1.06676 1.162344,0.99219 1.145354,-0.1318 1.028554,-0.80599 -0.427997,-2.47048 -1.412127,-1.61372 -1.784637,-2.66695 -1.493027,-4.22138 0.36025,-1.92031 2.352824,-3.29199 4.261888,-2.93385 1.56276,0.29318 2.16995,1.9309 1.32306,3.5686 -0.41388,0.80036 -0.88668,1.07726 -1.83941,1.07726 -0.952667,0 -0.985717,-0.2821 -0.12703,-1.08423 0.58594,-0.54735 0.78005,-0.94353 0.71832,-1.46614 -0.11084,-0.93844 -0.56776,-1.05845 -1.24838,-0.3279 -0.628587,0.67471 -0.955444,2.03652 -0.689737,2.8737 0.0996,0.31383 0.817707,0.97783 1.595767,1.47555 2.17862,1.39364 2.69913,2.52824 1.93213,4.21161 -0.66315,1.45546 -3.303097,2.33286 -4.881558,1.62241 z" /><path
       id="path20"
       style="fill:#000000"
       d="m 70.274333,140.35092 c -2.20965,-1.41801 -4.78307,-3.59417 -5.80077,-4.9053 -1.700898,-2.19131 -2.272088,-4.87384 -1.224278,-5.74969 0.595478,-0.49774 0.847808,-0.38647 3.397388,1.4981 1.14837,0.84885 2.35,1.65156 2.67028,1.78381 l 0.58244,0.24016 0.88624,-2.56678 c 1.40016,-4.05521 1.4491,-7.32221 0.16775,-11.2003 -0.61867,-1.87247 -0.4713,-2.32043 0.80155,-2.43648 2.77224,-0.25276 12.98498,3.18362 17.6163,5.92751 2.81038,1.66505 4.31675,2.88002 4.63132,3.73541 0.24401,0.6635 0.22942,0.69315 -0.55774,1.13305 -2.32626,1.3001 -3.11361,1.86346 -4.101,2.93431 -1.52559,1.65455 -3.28322,4.54861 -3.84758,6.33531 -0.26382,0.83506 -0.61639,1.88037 -0.78359,2.32289 -0.23249,0.61528 -0.19579,0.8482 0.15594,0.98998 0.83446,0.33636 2.88014,0.29908 4.84919,-0.0884 2.36133,-0.46464 2.70108,-0.15331 1.92736,1.76618 -0.46883,1.16313 -0.60509,1.28424 -2.14429,1.90588 -1.93127,0.77998 -4.92544,0.90096 -8.40982,0.33978 -3.16449,-0.50966 -8.45186,-2.44819 -10.8166,-3.96574 z m 7.77046,1.66713 c -0.14127,-0.13608 -0.41734,-0.24736 -0.61349,-0.24729 -0.19615,8e-5 -0.0806,0.11141 0.25686,0.24742 0.33742,0.13601 0.49792,0.13591 0.35663,-1.3e-4 z m 0.0744,-0.36162 c 2.28853,0.52982 2.60272,0.537 2.25339,0.0515 -0.14803,-0.20573 -0.43478,-0.44081 -0.63724,-0.52241 -0.32719,-0.13189 -0.33886,-0.10295 -0.10514,0.26084 0.20593,0.32049 0.12752,0.3278 -0.36156,0.0337 -0.34349,-0.20649 -0.60625,-0.26927 -0.58392,-0.13952 0.0371,0.21583 -1.6428,-0.23863 -4.89651,-1.32459 -0.79488,-0.26531 -0.54154,-0.11305 0.68889,0.41409 1.07037,0.45851 2.70927,1.01044 3.64208,1.22635 z m 5.14318,1.9108 c -0.0487,-0.11439 -0.25682,-0.20843 -0.46253,-0.20898 -0.22735,-5.3e-4 -0.19263,0.081 0.0885,0.20803 0.25438,0.11493 0.42272,0.1153 0.37403,9.4e-4 z m -16.47241,-7.06706 c -0.20366,-0.31957 -0.13966,-0.32052 0.28699,-0.004 0.30201,0.22384 2.24547,1.13487 4.31883,2.02442 2.17034,0.93122 3.38534,1.36997 2.86385,1.03388 -0.81529,-0.52513 -0.73235,-0.51858 0.82939,0.0655 2.02163,0.75613 5.51862,1.53333 6.32616,1.40598 0.46268,-0.073 0.41261,-0.12203 -0.2889,-0.28312 -0.46672,-0.10715 -0.82644,-0.24978 -0.79941,-0.31683 0.0271,-0.0671 0.72735,-0.18044 1.5562,-0.25178 0.82884,-0.0713 1.47312,-0.20931 1.43173,-0.30661 -0.0414,-0.0973 -0.34652,-0.14723 -0.67787,-0.11143 -1.01753,0.11056 -1.05539,-0.087 -0.0599,-0.31243 l 0.94179,-0.21331 -1.0417,-0.24655 c -0.99771,-0.23613 -1.01405,-0.25536 -0.38699,-0.45537 l 0.65472,-0.20882 -0.56049,-0.0249 c -0.30827,-0.0137 -0.91149,-0.10957 -1.34048,-0.21301 l -0.77999,-0.18809 0.90484,0.005 c 1.60626,0.008 1.33935,-0.15836 -0.67086,-0.41801 -1.43899,-0.18587 -2.5562,-0.5203 -4.19089,-1.25452 -1.22586,-0.55062 -2.12813,-0.85997 -2.00472,-0.68826 0.12595,0.17579 -0.27709,0.11271 -0.92005,-0.144 -1.02417,-0.40851 -1.10993,-0.50292 -0.818,-0.89589 0.1794,-0.24149 0.20636,-0.48735 0.0599,-0.54641 -0.14648,-0.059 -0.26952,0.0839 -0.27344,0.31768 -0.005,0.29908 -0.16842,0.36003 -0.55136,0.20567 l -0.54423,-0.21937 0.38479,0.71614 c 0.31637,0.58882 0.30938,0.68745 -0.0393,0.5547 -0.57691,-0.21961 -1.32813,0.42347 -1.10563,0.94646 0.12757,0.29988 0.08,0.36653 -0.19443,0.27231 -0.19986,-0.0686 -0.0398,0.18719 0.35567,0.56845 l 0.71902,0.6932 -1.28385,-0.6931 c -1.42044,-0.76684 -2.74449,-1.85499 -3.39438,-2.7896 -0.23371,-0.33612 -0.49812,-0.57999 -0.58756,-0.54194 -0.0894,0.038 0.39071,0.70569 1.06702,1.48363 0.74824,0.86069 0.9677,1.23308 0.56056,0.9512 -1.21568,-0.84169 -2.5636,-2.79612 -3.09242,-4.48389 -0.44887,-1.43258 -0.54643,-1.57357 -0.70438,-1.01789 -0.248158,0.87306 0.43415,2.35762 1.83647,3.99568 0.84529,0.98739 0.97683,1.24197 0.48076,0.93044 l -0.68293,-0.42888 0.59634,0.64369 c 0.70822,0.76444 1.18931,1.02571 0.81914,0.44484 z m 1.71185,0.5302 c 0.19615,-7e-5 0.47223,0.11121 0.6135,0.24729 0.14127,0.13608 -0.0192,0.13615 -0.35665,1.4e-4 -0.33742,-0.13601 -0.45299,-0.24739 -0.25685,-0.24743 z m -4.50462,-4.97871 -0.322898,-0.91465 0.435028,0.86694 c 0.40662,0.81028 0.48315,1.07214 0.29069,0.99457 -0.0439,-0.0177 -0.22523,-0.44381 -0.40282,-0.94686 z m 20.32575,11.54814 c 0.14205,-0.10445 0.0601,-0.1853 -0.19204,-0.18952 -0.49089,-0.008 -0.63957,0.13632 -0.28659,0.2786 0.127,0.0512 0.34239,0.0111 0.47863,-0.0891 z m 2.151,0.56699 c 0.56063,-0.093 1.71887,-0.46078 2.57386,-0.81735 1.22358,-0.51029 1.52404,-0.74365 1.41129,-1.09614 -0.0788,-0.24632 -0.009,-0.5925 0.15598,-0.7693 0.41289,-0.44359 -0.17999,-0.54705 -1.42379,-0.24845 -0.55899,0.1342 -0.98919,0.17661 -0.956,0.0943 0.0332,-0.0824 -0.55161,-0.0592 -1.29958,0.0515 -0.74797,0.11069 -2.5331,0.16037 -3.96695,0.11038 -2.8032,-0.0977 -2.9462,0.13918 -0.215,0.35619 1.91694,0.15231 4.44562,0.0438 4.85306,-0.20827 0.15357,-0.095 0.24061,-0.0721 0.19343,0.0509 -0.0474,0.12289 0.24561,0.11258 0.65059,-0.023 0.72502,-0.24283 0.72783,-0.24163 0.18255,0.0779 -0.30462,0.17858 -1.17945,0.44359 -1.94408,0.58891 -1.24067,0.23579 -1.30378,0.27817 -0.58671,0.39401 0.44191,0.0714 1.13163,0.0715 1.53271,1.9e-4 0.40107,-0.0713 0.60606,-0.0391 0.45552,0.0716 -0.17206,0.12653 -0.1077,0.20405 0.17327,0.20876 0.32154,0.005 0.41023,-0.10746 0.31601,-0.40205 -0.0932,-0.29131 0.012,-0.45529 0.36427,-0.56796 0.27241,-0.0871 0.46212,-0.0762 0.4216,0.0244 -0.0405,0.10054 0.13555,0.11588 0.39126,0.0341 0.36867,-0.11791 0.42208,-0.0754 0.25791,0.20553 -0.29987,0.51311 -1.69881,1.11589 -3.4871,1.50252 -1.68332,0.36396 -1.72436,0.63824 -0.0541,0.36124 z m 3.30673,-2.73299 c 0.18975,-0.20486 0.38183,-0.28576 0.42693,-0.17974 0.0451,0.10606 -0.11011,0.27362 -0.34492,0.37249 -0.33932,0.14286 -0.35615,0.10331 -0.082,-0.19275 z m -0.39144,1.23245 c 0.40481,-0.21847 0.28061,-0.30681 -0.608,-0.43244 -0.10335,-0.0146 -0.008,0.58927 0.10027,0.63278 0.043,0.0173 0.27147,-0.0728 0.50773,-0.20034 z M 65.827323,132.0488 c 0.12092,0.15332 0.17249,0.15093 0.11461,-0.005 -0.0579,-0.15628 -0.31549,-0.38745 -0.57248,-0.51373 -0.38099,-0.18721 -0.43936,-0.14249 -0.31628,0.24242 0.0994,0.31086 0.21981,0.39107 0.35262,0.23497 0.11092,-0.13038 0.30059,-0.1116 0.42152,0.0417 z m 15.02331,5.19274 c 1.01194,0.15051 1.92846,0.39409 2.03671,0.5413 0.10928,0.14853 0.17219,0.1245 0.14146,-0.0541 -0.0669,-0.38866 0.67663,-0.41443 1.08161,-0.0375 0.1596,0.14854 0.42964,0.1678 0.60042,0.0419 0.21648,-0.15918 0.16775,-0.23052 -0.16126,-0.23604 -0.25933,-0.004 -0.43318,-0.10302 -0.3863,-0.21932 0.0469,-0.11629 0.29474,-0.20793 0.55082,-0.20364 0.25605,0.004 0.42884,-0.0786 0.38392,-0.18414 -0.0449,-0.10554 -0.37174,-0.16063 -0.72646,-0.12189 -0.59529,0.0647 -0.6081,0.0394 -0.16688,-0.32942 0.26286,-0.21972 0.61559,-0.35414 0.78385,-0.2987 0.22895,0.0755 0.24097,0.0383 0.0477,-0.14776 -0.142,-0.1367 -0.13589,-0.33847 0.0136,-0.44839 0.17856,-0.1313 0.0912,-0.20284 -0.25471,-0.20865 -0.50398,-0.008 -0.49982,-0.0218 0.0975,-0.31182 0.40846,-0.19835 0.55599,-0.3954 0.42717,-0.57057 -0.13431,-0.18266 -0.0599,-0.38202 0.23462,-0.62817 0.52514,-0.43895 0.64204,-0.6822 0.29954,-0.62326 -0.14051,0.0242 -0.19063,-0.11684 -0.11142,-0.31335 0.0792,-0.19651 0.26507,-0.31259 0.41301,-0.25794 0.14809,0.0543 0.11657,-0.15469 -0.0697,-0.46519 -0.33484,-0.55806 -0.33177,-0.56364 0.26716,-0.48693 0.46102,0.059 0.63669,-0.0715 0.73472,-0.54585 0.0709,-0.34289 0.25719,-0.64555 0.41416,-0.67254 0.15692,-0.027 0.37312,-0.2669 0.48043,-0.53311 0.1073,-0.26621 0.39186,-0.48072 0.63236,-0.47669 0.39401,0.007 0.41645,-0.0493 0.22695,-0.56458 -0.11568,-0.31454 -0.0983,-0.61957 0.0387,-0.67783 0.13695,-0.0583 0.13157,-0.28308 -0.012,-0.49958 -0.19817,-0.29891 -0.14317,-0.3027 0.22857,-0.0158 0.7445,0.57468 0.70396,0.15423 -0.0486,-0.50394 l -0.66066,-0.5778 0.71526,-0.0884 c 0.44237,-0.0547 0.57673,-0.14977 0.35217,-0.24924 -0.31372,-0.13896 -0.30245,-0.17194 0.0828,-0.24239 0.34631,-0.0633 0.30248,-0.18593 -0.19626,-0.54887 -0.56217,-0.40908 -0.5736,-0.46429 -0.0917,-0.44317 0.36091,0.0158 -0.1368,-0.37975 -1.4456,-1.14889 -2.42237,-1.42358 -8.80867,-3.76635 -11.39357,-4.17968 -1.03399,-0.16533 -1.32616,-0.15957 -0.71888,0.0142 0.94235,0.26962 0.97413,0.30576 0.40288,0.4576 -0.61394,0.16321 -0.61546,0.167 -0.15083,0.37419 0.26961,0.12021 -0.001,0.19422 -0.63599,0.17388 -1.32695,-0.0425 -1.7544,0.0866 -0.83575,0.25237 0.36534,0.066 1.18271,0.26683 1.81636,0.44641 l 1.15209,0.32653 -1.11448,-0.066 c -0.61296,-0.0363 -0.97986,-0.002 -0.81534,0.0765 0.60829,0.28971 0.1049,0.54386 -0.89535,0.45198 l -1.03156,-0.0948 1.26873,0.39101 1.26873,0.39103 -1.11059,-0.0756 c -0.87068,-0.0593 -1.01532,-0.006 -0.66955,0.24563 0.35664,0.25977 0.25632,0.30551 -0.52424,0.23901 -0.53091,-0.0452 -0.76254,0.0111 -0.51473,0.12511 0.38836,0.17875 0.38263,0.24404 -0.0415,0.47292 -0.44564,0.24052 -0.38265,0.29313 0.66746,0.55755 l 1.15953,0.29197 -1.12601,-0.0374 -1.12602,-0.0374 1.2717,0.38364 c 0.89178,0.269 1.09819,0.39124 0.69087,0.40921 -0.31946,0.014 -0.94938,-0.11399 -1.39982,-0.28452 -1.01638,-0.38478 -1.00849,0.18409 0.008,0.59391 0.79325,0.31975 0.81376,0.63664 0.0569,0.87873 -0.71173,0.22764 -0.72203,0.47567 -0.0409,0.98619 0.37494,0.28103 0.45352,0.44653 0.20808,0.43823 -0.28415,-0.01 -0.26648,0.14433 0.0633,0.55076 l 0.45766,0.5641 -0.74034,-0.28645 -0.74035,-0.28645 0.53967,0.7843 c 0.32771,0.47628 0.39097,0.73628 0.16106,0.66202 -0.20825,-0.0672 -0.13818,0.0774 0.15569,0.32147 l 0.5343,0.44376 -0.63032,-0.20556 c -0.58917,-0.1922 -0.60439,-0.17752 -0.23285,0.22381 0.34234,0.36983 0.30997,0.3795 -0.23341,0.0697 -0.347,-0.19777 -0.61052,-0.24178 -0.58575,-0.0974 0.0248,0.14424 0.19791,0.32384 0.38465,0.39911 0.20743,0.0836 0.22578,0.31298 0.0472,0.58955 -0.16079,0.24898 -0.16134,0.50747 -0.001,0.57442 0.17565,0.073 0.10682,0.15728 -0.17284,0.21123 -0.38204,0.0737 -0.40285,0.11492 -0.11785,0.2334 0.19046,0.0789 0.26501,0.17841 0.16587,0.22057 -0.0992,0.0422 -0.34147,-0.0734 -0.53851,-0.25674 -0.28395,-0.26429 -0.27301,-0.34912 0.0527,-0.409 0.32981,-0.0606 0.33887,-0.10633 0.0459,-0.23144 -0.2928,-0.12556 -0.28392,-0.17082 0.0459,-0.23144 0.33784,-0.0621 0.35838,-0.12448 0.11546,-0.3506 -0.21303,-0.19829 -0.36087,-0.0898 -0.52975,0.38862 -0.18249,0.51698 -0.0509,0.87365 0.5951,1.61363 0.45615,0.52247 0.70088,0.94205 0.54385,0.93238 -1.06288,-0.0654 6.30554,2.49454 7.83489,2.72196 z m 3.07851,-1.50602 c 0.25519,-0.0492 0.57441,-0.045 0.70938,0.009 0.13497,0.0544 0.0366,0.1392 -0.21858,0.18842 -0.2552,0.0492 -0.57441,0.045 -0.70938,-0.009 -0.13497,-0.0544 -0.0366,-0.13919 0.21858,-0.18842 z m -12.78919,-2.77721 c -0.142,-0.1367 -0.17384,-0.31056 -0.0708,-0.38636 0.10308,-0.0758 0.0284,-0.20191 -0.166,-0.28026 -0.26668,-0.1075 -0.31914,-0.0353 -0.21374,0.29419 0.0768,0.24016 0.26769,0.47813 0.42417,0.52881 0.17726,0.0574 0.18719,-0.001 0.0263,-0.15638 z m 18.50447,-5.93163 c -0.0487,-0.11439 -0.25682,-0.20843 -0.46254,-0.20898 -0.22734,-5.3e-4 -0.19262,0.081 0.0885,0.20803 0.25439,0.11494 0.42273,0.1153 0.37404,9.3e-4 z m -15.33811,-7.66125 c -0.15326,-0.13035 -0.44234,-0.16741 -0.64242,-0.0823 -0.2555,0.1087 -0.17257,0.17926 0.27864,0.23705 0.36682,0.0469 0.52288,-0.0194 0.36378,-0.15477 z m 2.53093,-0.006 c 4.23297,0.90654 7.43806,2.1391 10.99078,4.22665 1.77595,1.04352 3.34317,1.93256 3.4827,1.97563 0.47626,0.14701 -1.92288,-1.57958 -3.2048,-2.30639 -1.14761,-0.65064 -1.1962,-0.71196 -0.47401,-0.59815 0.44259,0.0697 -0.0929,-0.16495 -1.18985,-0.52156 -1.47767,-0.48031 -1.91923,-0.70374 -1.70387,-0.86209 0.41936,-0.30838 -1.82796,-1.16631 -3.74948,-1.43135 -0.8524,-0.11759 -2.72357,-0.47724 -4.15816,-0.79922 -1.43458,-0.32198 -2.82126,-0.54425 -3.0815,-0.49392 -0.36038,0.0697 -0.31474,0.12021 0.19146,0.21195 0.36554,0.0663 1.66907,0.33556 2.89673,0.59847 z m -2.51175,-1.37662 c -0.14127,-0.13608 -0.41734,-0.24737 -0.6135,-0.24729 -0.19615,7e-5 -0.0806,0.11142 0.25686,0.24743 0.33742,0.13601 0.49792,0.1359 0.35664,-1.4e-4 z m 1.57534,0.35154 c -0.13904,-0.13421 -0.46868,-0.27183 -0.73245,-0.30602 -0.26385,-0.034 -0.15008,0.0758 0.25281,0.24398 0.40304,0.16784 0.61877,0.19604 0.47972,0.0619 z m 14.96534,6.03012 c -0.14127,-0.13608 -0.41734,-0.24736 -0.61349,-0.24729 -0.19615,7e-5 -0.0806,0.1114 0.25685,0.24742 0.33742,0.13601 0.49789,0.136 0.35664,-1.3e-4 z m -13.28612,-5.62411 c -0.0487,-0.11439 -0.25682,-0.20842 -0.46253,-0.20897 -0.22735,-5.3e-4 -0.19263,0.081 0.0885,0.20802 0.25439,0.11494 0.42273,0.1153 0.37404,9.4e-4 z m 12.16209,4.88757 c -0.13904,-0.13422 -0.46868,-0.27183 -0.73245,-0.30603 -0.26385,-0.034 -0.15008,0.0758 0.25281,0.24399 0.40303,0.16785 0.61876,0.19604 0.47971,0.0619 z" /></g></svg>
